<svg width="16" height="17" viewBox="0 0 16 17" fill="none" xmlns="http://www.w3.org/2000/svg">
<path fill-rule="evenodd" clip-rule="evenodd"
            d="M7.96646 0.5L8 0.5V1.5C6.34401 1.5 5.14598 1.50082 4.22198 1.61004C3.30902 1.71795 2.72895 1.92571 2.27962 2.29446C2.1024 2.4399 1.9399 2.6024 1.79446 2.77962C1.42571 3.22895 1.21795 3.80902 1.11004 4.72198C1.00082 5.64598 1 6.84401 1 8.5C1 10.156 1.00082 11.354 1.11004 12.278C1.13749 12.5103 1.1714 12.721 1.21278 12.9134L1.81311 12.3131L2.73469 11.3915L2.76055 11.3657C3.40523 10.721 3.92486 10.2013 4.3885 9.84758C4.86987 9.48032 5.34917 9.24509 5.91667 9.24509C6.48416 9.24509 6.96347 9.48032 7.44483 9.84758C7.90847 10.2013 8.42809 10.721 9.07276 11.3656L9.07279 11.3657L9.09865 11.3915L9.6671 11.96C10.0101 11.6198 10.3045 11.3374 10.5723 11.1201C10.9347 10.826 11.2913 10.6144 11.7132 10.5366C12.013 10.4813 12.3204 10.4813 12.6201 10.5366C13.042 10.6144 13.3987 10.826 13.7611 11.1201C14.0877 11.3852 14.4539 11.7471 14.8997 12.1926C14.9992 11.2804 15 10.1054 15 8.5H16V8.53354C16 10.1489 16 11.4059 15.883 12.3954C15.764 13.4028 15.5178 14.1977 14.9785 14.8548C14.7916 15.0826 14.5826 15.2916 14.3548 15.4785C13.6977 16.0178 12.9028 16.264 11.8954 16.383C10.9059 16.5 9.64888 16.5 8.03354 16.5H8H7.96646C6.35112 16.5 5.09409 16.5 4.1046 16.383C3.09723 16.264 2.30225 16.0178 1.64523 15.4785C1.41738 15.2916 1.20845 15.0826 1.02145 14.8548C0.892483 14.6976 0.780275 14.5326 0.682559 14.3586C0.639609 14.3359 0.59928 14.3064 0.563113 14.2702C0.436927 14.144 0.392287 13.9672 0.429195 13.8051C0.275181 13.3857 0.178874 12.9193 0.116952 12.3954C-9.75862e-06 11.4059 -5.46709e-06 10.1489 7.61439e-08 8.53354L1.95353e-07 8.5L7.61439e-08 8.46646C-5.46709e-06 6.85112 -9.75862e-06 5.59409 0.116952 4.6046C0.236026 3.59723 0.482248 2.80225 1.02145 2.14523C1.20845 1.91738 1.41738 1.70845 1.64523 1.52145C2.30225 0.982248 3.09723 0.736026 4.1046 0.616952C5.09409 0.49999 6.35112 0.499995 7.96646 0.5ZM1.79446 14.2204C1.72296 14.1332 1.65751 14.0412 1.59767 13.9428L2.52022 13.0202L3.44179 12.0986C4.11845 11.422 4.59113 10.9508 4.99508 10.6426C5.38749 10.3432 5.65573 10.2451 5.91667 10.2451C6.1776 10.2451 6.44584 10.3432 6.83825 10.6426C7.2422 10.9508 7.71488 11.422 8.39154 12.0986L9.31311 13.0202L11.6926 15.3997C10.7804 15.4992 9.6054 15.5 8 15.5C6.34401 15.5 5.14598 15.4992 4.22198 15.39C3.30902 15.282 2.72895 15.0743 2.27962 14.7055C2.1024 14.5601 1.9399 14.3976 1.79446 14.2204ZM13.7204 14.7055C13.4834 14.9 13.2101 15.0497 12.8707 15.1636L10.3743 12.6672C10.7102 12.3341 10.9718 12.0838 11.2024 11.8966C11.5014 11.654 11.7048 11.555 11.8946 11.52C12.0745 11.4868 12.2589 11.4868 12.4387 11.52C12.6285 11.555 12.8319 11.654 13.131 11.8966C13.4368 12.1448 13.797 12.5042 14.3131 13.0202L14.6636 13.3707C14.5497 13.7101 14.4 13.9834 14.2055 14.2204C14.0601 14.3976 13.8976 14.5601 13.7204 14.7055ZM12.6667 1C12.6667 0.723858 12.4428 0.5 12.1667 0.5C11.8905 0.5 11.6667 0.723858 11.6667 1V4.79289L10.4369 3.56311C10.2416 3.36785 9.92504 3.36785 9.72978 3.56311C9.53452 3.75837 9.53452 4.07496 9.72978 4.27022L11.8131 6.35355C11.9069 6.44732 12.0341 6.5 12.1667 6.5C12.2993 6.5 12.4265 6.44732 12.5202 6.35355L14.6036 4.27022C14.7988 4.07496 14.7988 3.75837 14.6036 3.56311C14.4083 3.36785 14.0917 3.36785 13.8964 3.56311L12.6667 4.79289V1Z" />
      </svg>
