<svg width="16.499998" height="16.499973" viewBox="0 0 16.499998 16.499973" fill="none" xmlns="http://www.w3.org/2000/svg">
  <path
     fill-rule="evenodd"
     clip-rule="evenodd"
     d="m 4.6136575,1.2803275 c 0.2929,-0.29289 0.2929,-0.76777 0,-1.06066 -0.29289,-0.29289 -0.76776,-0.29289 -1.06066,0 l -3.33333,3.33333 c -0.29289,0.2929 -0.29289,0.76777 0,1.06066 l 3.33333,3.33334 c 0.2929,0.29289 0.76777,0.29289 1.06066,0 0.2929,-0.2929 0.2929,-0.76777 0,-1.06066 l -2.053,-2.05301 h 9.8560395 c 0.4142,0 0.75,-0.33578 0.75,-0.75 0,-0.41421 -0.3358,-0.75 -0.75,-0.75 H 2.5606575 Z m 7.2726405,8.33337 c -0.2929,-0.2929 -0.2929,-0.7678 0,-1.0607 0.2929,-0.2929 0.767799,-0.2929 1.0607,0 l 3.333299,3.3333005 c 0.1407,0.1407 0.2197,0.3315 0.2197,0.5304 0,0.1989 -0.079,0.389599 -0.2197,0.5303 l -3.333299,3.333299 c -0.2929,0.2929 -0.7678,0.2929 -1.0607,0 -0.2929,-0.292899 -0.2929,-0.7677 0,-1.0606 l 2.052999,-2.053 H 4.0833275 c -0.41421,0 -0.75,-0.3358 -0.75,-0.75 0,-0.414199 0.33579,-0.75 0.75,-0.75 h 9.8559695 z"
     fill="#2891f9" />
</svg>
