<?xml version="1.0" encoding="UTF-8" standalone="no"?>
<svg
   width="8"
   height="10"
   viewBox="0 0 9.0138578 12.5"
   fill="none"
   version="1.1"
   id="svg4"
   sodipodi:docname="artc-icon.svg"
   inkscape:version="1.2.1 (9c6d41e410, 2022-07-14)"
   xmlns:inkscape="http://www.inkscape.org/namespaces/inkscape"
   xmlns:sodipodi="http://sodipodi.sourceforge.net/DTD/sodipodi-0.dtd"
   xmlns="http://www.w3.org/2000/svg"
   xmlns:svg="http://www.w3.org/2000/svg">
  <defs
     id="defs8" />
  <sodipodi:namedview
     id="namedview6"
     pagecolor="#ffffff"
     bordercolor="#000000"
     borderopacity="0.25"
     inkscape:showpageshadow="2"
     inkscape:pageopacity="0.0"
     inkscape:pagecheckerboard="0"
     inkscape:deskcolor="#d1d1d1"
     showgrid="false"
     inkscape:zoom="43.731835"
     inkscape:cx="-0.27439965"
     inkscape:cy="7.4888236"
     inkscape:window-width="1920"
     inkscape:window-height="991"
     inkscape:window-x="-9"
     inkscape:window-y="-9"
     inkscape:window-maximized="1"
     inkscape:current-layer="svg4" />
  <path
     d="m 2.506949,6.25 h 4 m -4,2.66667 h 4 M 7.840279,12.25 h -6.66667 c -0.35361999,0 -0.69275999,-0.1405 -0.94280999,-0.3905 -0.25004,-0.2501 -0.39052,-0.5892 -0.39052,-0.9428 V 1.58333 c 0,-0.35362 0.14048,-0.69276 0.39052,-0.942806 C 0.48084901,0.390476 0.81998901,0.25 1.173609,0.25 h 3.724 c 0.1768,3.8e-5 0.34634,0.0703 0.47134,0.195333 l 3.60933,3.609337 c 0.125,0.12499 0.1953,0.29453 0.1953,0.47133 v 6.3907 c 0,0.3536 -0.1404,0.6927 -0.39049,0.9428 -0.25005,0.25 -0.58919,0.3905 -0.94281,0.3905 z"
     stroke="#ffffff"
     stroke-width="0.5"
     stroke-linecap="round"
     stroke-linejoin="round"
     id="path2"
     inkscape:label="path2" />
</svg>
