<svg width="16" height="20" viewBox="0 0 16 20" fill="none" xmlns="http://www.w3.org/2000/svg">
<path
            d="M16 16.7639V6C16 3.17157 16 1.75736 15.1213 0.87868C14.2426 0 12.8284 0 10 0H6C3.17157 0 1.75736 0 0.87868 0.87868C0 1.75736 0 3.17157 0 6V16.7639C0 18.2143 0 18.9395 0.474269 19.2326C0.948536 19.5257 1.59716 19.2014 2.89441 18.5528L2.89443 18.5528L6.21115 16.8944C7.08896 16.4555 7.52786 16.2361 8 16.2361C8.47214 16.2361 8.91104 16.4555 9.78885 16.8944L13.1056 18.5528C14.4028 19.2014 15.0515 19.5257 15.5257 19.2326C16 18.9395 16 18.2143 16 16.7639Z" />
      </svg>
