<svg width="16" height="20" viewBox="0 0 16 20" fill="none" xmlns="http://www.w3.org/2000/svg">
<path fill-rule="evenodd" clip-rule="evenodd"
            d="M6.94513 0.250001L7 0.250001H9L9.05488 0.250001C10.4225 0.24998 11.5248 0.249963 12.3918 0.366524C13.2919 0.48754 14.0497 0.746434 14.6517 1.34835C15.2536 1.95027 15.5125 2.70814 15.6335 3.60825C15.75 4.47522 15.75 5.57754 15.75 6.94513V7V19C15.75 19.2674 15.6077 19.5145 15.3764 19.6487C15.1452 19.7829 14.86 19.7838 14.6279 19.6512L9.61245 16.7852C9.11542 16.5012 8.78866 16.3154 8.52117 16.1955C8.26862 16.0822 8.12296 16.0535 8 16.0535C7.87704 16.0535 7.73138 16.0822 7.47883 16.1955C7.21134 16.3154 6.88459 16.5012 6.38755 16.7852L1.37211 19.6512C1.13998 19.7838 0.854792 19.7829 0.623556 19.6487C0.39232 19.5145 0.250001 19.2674 0.250001 19V7L0.250001 6.94513C0.24998 5.57754 0.249963 4.47522 0.366524 3.60825C0.48754 2.70814 0.746434 1.95027 1.34835 1.34835C1.95027 0.746434 2.70814 0.48754 3.60825 0.366524C4.47522 0.249963 5.57754 0.24998 6.94513 0.250001ZM3.80812 1.85315C3.07435 1.9518 2.68577 2.13225 2.40901 2.40901C2.13225 2.68577 1.9518 3.07435 1.85315 3.80812C1.75159 4.56347 1.75 5.56458 1.75 7V17.7076L5.64334 15.4829L5.67333 15.4657C6.13223 15.2035 6.52264 14.9804 6.86498 14.8268C7.22969 14.6632 7.59183 14.5535 8 14.5535C8.40817 14.5535 8.77031 14.6632 9.13502 14.8268C9.47735 14.9803 9.86775 15.2035 10.3266 15.4657L10.3567 15.4829L14.25 17.7076V7C14.25 5.56459 14.2484 4.56347 14.1469 3.80812C14.0482 3.07435 13.8678 2.68577 13.591 2.40901C13.3142 2.13225 12.9257 1.9518 12.1919 1.85315C11.4365 1.75159 10.4354 1.75 9 1.75H7C5.56459 1.75 4.56347 1.75159 3.80812 1.85315Z" />
         <!--<path d="M16 16.7639V6C16 3.17157 16 1.75736 15.1213 0.87868C14.2426 0 12.8284 0 10 0H6C3.17157 0 1.75736 0 0.87868 0.87868C0 1.75736 0 3.17157 0 6V16.7639C0 18.2143 0 18.9395 0.474269 19.2326C0.948536 19.5257 1.59716 19.2014 2.89441 18.5528L2.89443 18.5528L6.21115 16.8944C7.08896 16.4555 7.52786 16.2361 8 16.2361C8.47214 16.2361 8.91104 16.4555 9.78885 16.8944L13.1056 18.5528C14.4028 19.2014 15.0515 19.5257 15.5257 19.2326C16 18.9395 16 18.2143 16 16.7639Z"/>-->
      </svg>
