<svg width="16" height="17" viewBox="0 0 16 17" fill="none" xmlns="http://www.w3.org/2000/svg">
<path fill-rule="evenodd" clip-rule="evenodd"
            d="M1 8.5C1 4.63401 4.13401 1.5 8 1.5C11.866 1.5 15 4.63401 15 8.5C15 12.366 11.866 15.5 8 15.5C4.13401 15.5 1 12.366 1 8.5ZM8 0.5C3.58172 0.5 0 4.08172 0 8.5C0 12.9183 3.58172 16.5 8 16.5C12.4183 16.5 16 12.9183 16 8.5C16 4.08172 12.4183 0.5 8 0.5ZM11.6869 6.35355C11.8821 6.15829 11.8821 5.84171 11.6869 5.64645C11.4916 5.45118 11.175 5.45118 10.9798 5.64645L7.16667 9.45956L5.85355 8.14645C5.65829 7.95118 5.34171 7.95118 5.14645 8.14645C4.95118 8.34171 4.95118 8.65829 5.14645 8.85355L6.81311 10.5202C7.00838 10.7155 7.32496 10.7155 7.52022 10.5202L11.6869 6.35355Z" />
      </svg>
