<?xml version="1.0" encoding="UTF-8" standalone="no"?>
<svg
   width="16"
   height="16"
   viewBox="0 0 16 16"
   fill="none"
   version="1.1"
   id="svg3602"
   sodipodi:docname="checkcircle-icon.svg"
   inkscape:version="1.2.1 (9c6d41e410, 2022-07-14)"
   xmlns:inkscape="http://www.inkscape.org/namespaces/inkscape"
   xmlns:sodipodi="http://sodipodi.sourceforge.net/DTD/sodipodi-0.dtd"
   xmlns="http://www.w3.org/2000/svg"
   xmlns:svg="http://www.w3.org/2000/svg">
  <defs
     id="defs3606" />
  <sodipodi:namedview
     id="namedview3604"
     pagecolor="#ffffff"
     bordercolor="#000000"
     borderopacity="0.25"
     inkscape:showpageshadow="2"
     inkscape:pageopacity="0.0"
     inkscape:pagecheckerboard="0"
     inkscape:deskcolor="#d1d1d1"
     showgrid="false"
     inkscape:zoom="48.5"
     inkscape:cx="8"
     inkscape:cy="5.7628866"
     inkscape:window-width="1920"
     inkscape:window-height="991"
     inkscape:window-x="-9"
     inkscape:window-y="-9"
     inkscape:window-maximized="1"
     inkscape:current-layer="svg3602" />
  <path
     fill-rule="evenodd"
     clip-rule="evenodd"
     d="m 1,8.0051536 c 0,-3.86599 3.13401,-7 7,-7 3.866,0 7,3.13401 7,7 0,3.8659904 -3.134,6.9999904 -7,6.9999904 -3.86599,0 -7,-3.134 -7,-6.9999904 z M 8,0.00515456 c -4.41828,0 -8,3.58171904 -8,7.99999904 0,4.4182904 3.58172,7.9999904 8,7.9999904 4.4183,0 8,-3.5817 8,-7.9999904 0,-4.41828 -3.5817,-7.99999904 -8,-7.99999904 z m 3.6869,5.85354904 c 0.1952,-0.19526 0.1952,-0.51184 0,-0.7071 -0.1953,-0.19527 -0.5119,-0.19527 -0.7071,0 l -3.81313,3.81311 -1.31312,-1.31311 c -0.19526,-0.19527 -0.51184,-0.19527 -0.7071,0 -0.19527,0.19526 -0.19527,0.51184 0,0.7071 l 1.66666,1.6666404 c 0.19527,0.1953 0.51185,0.1953 0.70711,0 z"
     id="path3600" />
</svg>
