<svg width="18" height="18" viewBox="0 0 18 18" fill="none" xmlns="http://www.w3.org/2000/svg">
<path fill-rule="evenodd" clip-rule="evenodd"
            d="M2.37868 3.87868C1.5 4.75736 1.5 6.17157 1.5 9C1.5 11.8284 1.5 13.2426 2.37868 14.1213C3.25736 15 4.67157 15 7.5 15H10.5C13.3284 15 14.7426 15 15.6213 14.1213C16.5 13.2426 16.5 11.8284 16.5 9C16.5 6.17157 16.5 4.75736 15.6213 3.87868C14.7426 3 13.3284 3 10.5 3H7.5C4.67157 3 3.25736 3 2.37868 3.87868ZM4.81202 5.53197C4.55353 5.35965 4.20429 5.4295 4.03197 5.68798C3.85965 5.94647 3.9295 6.2957 4.18798 6.46803L8.68798 9.46803C8.87692 9.59399 9.12307 9.59399 9.31202 9.46803L13.812 6.46803C14.0705 6.2957 14.1404 5.94647 13.968 5.68798C13.7957 5.4295 13.4465 5.35965 13.188 5.53197L9 8.32396L4.81202 5.53197Z" />
      
</svg>
