<?xml version="1.0" encoding="UTF-8" standalone="no"?>
<svg
   width="15"
   height="12"
   viewBox="0 0 15 12"
   fill="none"
   version="1.1"
   id="svg3754"
   sodipodi:docname="email-icon.svg"
   inkscape:version="1.2.1 (9c6d41e410, 2022-07-14)"
   xmlns:inkscape="http://www.inkscape.org/namespaces/inkscape"
   xmlns:sodipodi="http://sodipodi.sourceforge.net/DTD/sodipodi-0.dtd"
   xmlns="http://www.w3.org/2000/svg"
   xmlns:svg="http://www.w3.org/2000/svg">
  <defs
     id="defs3758" />
  <sodipodi:namedview
     id="namedview3756"
     pagecolor="#ffffff"
     bordercolor="#000000"
     borderopacity="0.25"
     inkscape:showpageshadow="2"
     inkscape:pageopacity="0.0"
     inkscape:pagecheckerboard="0"
     inkscape:deskcolor="#d1d1d1"
     showgrid="false"
     inkscape:zoom="43.055556"
     inkscape:cx="7.4787097"
     inkscape:cy="6.003871"
     inkscape:window-width="1920"
     inkscape:window-height="991"
     inkscape:window-x="-9"
     inkscape:window-y="-9"
     inkscape:window-maximized="1"
     inkscape:current-layer="svg3754" />
  <path
     fill-rule="evenodd"
     clip-rule="evenodd"
     d="M 0.87868,0.87868 C 0,1.75736 0,3.17157 0,6 0,8.8284 0,10.2426 0.87868,11.1213 1.75736,12 3.17157,12 6,12 h 3 c 2.8284,0 4.2426,0 5.1213,-0.8787 C 15,10.2426 15,8.8284 15,6 15,3.17157 15,1.75736 14.1213,0.87868 13.2426,0 11.8284,0 9,0 H 6 C 3.17157,0 1.75736,0 0.87868,0.87868 Z M 3.31202,2.53197 C 3.05353,2.35965 2.70429,2.4295 2.53197,2.68798 2.35965,2.94647 2.4295,3.2957 2.68798,3.46803 l 4.5,3 c 0.18894,0.12596 0.43509,0.12596 0.62404,0 l 4.49998,-3 C 12.5705,3.2957 12.6404,2.94647 12.468,2.68798 12.2957,2.4295 11.9465,2.35965 11.688,2.53197 L 7.5,5.32396 Z"
     id="path3752" />
</svg>
