<svg width="12" height="12" viewBox="0 0 12 12" fill="none" xmlns="http://www.w3.org/2000/svg">
<path fill-rule="evenodd" clip-rule="evenodd" d="M6 1.75C4.05768 1.75 2.62703 2.4486 1.67879 3.3239C1.20916 3.7574 0.859274 4.23284 0.623877 4.6848C0.395479 5.12332 0.25 5.58841 0.25 6C0.25 6.41159 0.395479 6.87668 0.623877 7.3152C0.859274 7.76716 1.20916 8.2426 1.67879 8.6761C2.62703 9.5514 4.05768 10.25 6 10.25C7.94232 10.25 9.37297 9.5514 10.3212 8.6761C10.7908 8.2426 11.1407 7.76716 11.3761 7.3152C11.6045 6.87668 11.75 6.41159 11.75 6C11.75 5.58841 11.6045 5.12332 11.3761 4.6848C11.1407 4.23284 10.7908 3.7574 10.3212 3.3239C9.37297 2.4486 7.94232 1.75 6 1.75ZM5.99994 5.25002C5.58573 5.25002 5.24994 5.5858 5.24994 6.00002C5.24994 6.41423 5.58573 6.75002 5.99994 6.75002C6.41415 6.75002 6.74994 6.41423 6.74994 6.00002C6.74994 5.5858 6.41415 5.25002 5.99994 5.25002ZM3.74994 6.00002C3.74994 4.75737 4.7573 3.75002 5.99994 3.75002C7.24258 3.75002 8.24994 4.75737 8.24994 6.00002C8.24994 7.24266 7.24258 8.25002 5.99994 8.25002C4.7573 8.25002 3.74994 7.24266 3.74994 6.00002Z" fill="#938E8E"/>
</svg>
