<svg width="11.5" height="8.5" viewBox="0 0 11.5 8.5" fill="none" xmlns="http://www.w3.org/2000/svg">
  <path
     fill-rule="evenodd"
     clip-rule="evenodd"
     d="M 5.75,0 C 3.80768,0 2.37703,0.6986 1.42879,1.5739 0.95916,2.0074 0.609274,2.48284 0.373877,2.9348 0.145479,3.37332 0,3.83841 0,4.25 0,4.66159 0.145479,5.12668 0.373877,5.5652 0.609274,6.01716 0.95916,6.4926 1.42879,6.9261 2.37703,7.8014 3.80768,8.5 5.75,8.5 7.69232,8.5 9.12297,7.8014 10.0712,6.9261 10.5408,6.4926 10.8907,6.01716 11.1261,5.5652 11.3545,5.12668 11.5,4.66159 11.5,4.25 11.5,3.83841 11.3545,3.37332 11.1261,2.9348 10.8907,2.48284 10.5408,2.0074 10.0712,1.5739 9.12297,0.6986 7.69232,0 5.75,0 Z m -6e-5,3.50002 c -0.41421,0 -0.75,0.33578 -0.75,0.75 0,0.41421 0.33579,0.75 0.75,0.75 0.41421,0 0.75,-0.33579 0.75,-0.75 0,-0.41422 -0.33579,-0.75 -0.75,-0.75 z m -2.25,0.75 c 0,-1.24265 1.00736,-2.25 2.25,-2.25 1.24264,0 2.25,1.00735 2.25,2.25 0,1.24264 -1.00736,2.25 -2.25,2.25 -1.24264,0 -2.25,-1.00736 -2.25,-2.25 z"
     fill="#938e8e" />
</svg>
