<svg width="13" height="8" viewBox="0 0 13 8" fill="none" xmlns="http://www.w3.org/2000/svg">
<g clip-path="url(#clip0_1_30262)">
<path d="M12.9582 3.85714C11.605 1.48626 9.14803 0 6.5 0C3.85197 0 1.39234 1.48626 0.04179 3.85714C-0.01393 3.94231 -0.01393 4.05769 0.04179 4.14286C1.39499 6.51374 3.85197 8 6.5 8C9.14803 8 11.6077 6.51374 12.9582 4.14286C13.0139 4.05769 13.0139 3.94231 12.9582 3.85714ZM6.5 7.42857C4.09873 7.42857 1.86198 6.11538 0.620216 4C1.86198 1.88462 4.09873 0.571428 6.5 0.571428C8.90127 0.571428 11.138 1.88462 12.3798 4C11.138 6.11538 8.90127 7.42857 6.5 7.42857Z" fill="white"/>
<path d="M12.9582 3.85714C11.605 1.48626 9.14803 0 6.5 0C3.85197 0 1.39234 1.48626 0.04179 3.85714C-0.01393 3.94231 -0.01393 4.05769 0.04179 4.14286C1.39499 6.51374 3.85197 8 6.5 8C9.14803 8 11.6077 6.51374 12.9582 4.14286C13.0139 4.05769 13.0139 3.94231 12.9582 3.85714ZM6.5 7.42857C4.09873 7.42857 1.86198 6.11538 0.620216 4C1.86198 1.88462 4.09873 0.571428 6.5 0.571428C8.90127 0.571428 11.138 1.88462 12.3798 4C11.138 6.11538 8.90127 7.42857 6.5 7.42857Z" fill="#AB0E36"/>
<path d="M6.50005 1.99121C5.42187 1.99121 4.55933 2.88429 4.55933 4.00063C4.55933 5.11697 5.42187 6.01005 6.50005 6.01005C7.57823 6.01005 8.44077 5.11697 8.44077 4.00063C8.44077 2.88429 7.57823 1.99121 6.50005 1.99121ZM6.50005 5.56351C5.65824 5.56351 4.9906 4.87009 4.9906 4.00063C4.9906 3.13117 5.66031 2.43775 6.50005 2.43775C7.33978 2.43775 8.0095 3.13117 8.0095 4.00063C8.0095 4.87009 7.34186 5.56351 6.50005 5.56351Z" fill="white"/>
<path d="M6.50005 1.99121C5.42187 1.99121 4.55933 2.88429 4.55933 4.00063C4.55933 5.11697 5.42187 6.01005 6.50005 6.01005C7.57823 6.01005 8.44077 5.11697 8.44077 4.00063C8.44077 2.88429 7.57823 1.99121 6.50005 1.99121ZM6.50005 5.56351C5.65824 5.56351 4.9906 4.87009 4.9906 4.00063C4.9906 3.13117 5.66031 2.43775 6.50005 2.43775C7.33978 2.43775 8.0095 3.13117 8.0095 4.00063C8.0095 4.87009 7.34186 5.56351 6.50005 5.56351Z" fill="#AB0E36"/>
</g>
<defs>
<clipPath id="clip0_1_30262">
<rect width="13" height="8" fill="white"/>
</clipPath>
</defs>
</svg>
