<svg width="8" height="8" viewBox="0 0 8 8" fill="none" xmlns="http://www.w3.org/2000/svg">
<path fill-rule="evenodd" clip-rule="evenodd" d="M0.890223 0.0115291C0.677573 0.0473745 0.476039 0.153551 0.313644 0.315285C0.1858 0.442596 0.102654 0.576848 0.0426458 0.752761L0 0.877821V3.99651V7.1152L0.0426458 7.24026C0.10256 7.41589 0.185706 7.55027 0.313346 7.67774C0.441002 7.80519 0.575577 7.88821 0.751468 7.94804L0.876712 7.99062L2.41487 7.99504L3.95303 7.99945V7.48564C3.95303 7.20305 3.95771 6.55915 3.96343 6.05477L3.97382 5.13768H3.57908C3.25688 5.13768 3.17592 5.13332 3.13843 5.11397C3.04795 5.06726 3.04501 5.04777 3.04501 4.49603C3.04501 4.05526 3.04822 3.9881 3.07108 3.94946C3.11836 3.86953 3.14679 3.86431 3.56373 3.85888L3.94935 3.85386L3.95713 3.29599C3.96565 2.68366 3.9806 2.54681 4.06394 2.31806C4.26829 1.75717 4.70034 1.44352 5.34741 1.38633C5.58107 1.36568 6.24559 1.36581 6.32027 1.38652C6.35616 1.39648 6.39198 1.42177 6.4142 1.45286C6.44908 1.5017 6.45024 1.51467 6.4549 1.90957C6.46225 2.52849 6.48564 2.49951 5.96759 2.5132C5.768 2.51847 5.57847 2.52999 5.54644 2.53881C5.45282 2.56454 5.34877 2.63353 5.30582 2.69835C5.22569 2.81924 5.21788 2.87472 5.20947 3.3822L5.20164 3.85436L5.7817 3.85899C6.33359 3.86342 6.36376 3.86515 6.40321 3.8949C6.42602 3.91209 6.45619 3.94527 6.47026 3.96862C6.49432 4.00856 6.49234 4.04053 6.43677 4.50668C6.4021 4.79774 6.36831 5.02044 6.35493 5.04627C6.30917 5.13465 6.28842 5.13768 5.73072 5.13768H5.22114L5.22112 5.87632C5.2211 6.28258 5.21642 6.92659 5.21072 7.30748L5.20036 8L6.16182 7.99511L7.12329 7.99023L7.24853 7.94783C7.42414 7.8884 7.55884 7.80536 7.68665 7.67774C7.81429 7.55027 7.89744 7.41589 7.95735 7.24026L8 7.1152V3.99651V0.877821L7.95735 0.752761C7.89744 0.57713 7.81429 0.442752 7.68665 0.315285C7.559 0.187833 7.42442 0.104808 7.24853 0.0449827L7.12329 0.00239968L4.04697 0.000179858C2.35499 -0.00103948 0.93445 0.00407236 0.890223 0.0115291Z" fill="#9E9E9E"/>
</svg>
