<?xml version="1.0" encoding="UTF-8" standalone="no"?>
<svg
   width="10.33336"
   height="10.33329"
   viewBox="0 0 12 12"
   fill="none"
   version="1.1"
   id="svg6"
   sodipodi:docname="feed-icon.svg"
   inkscape:version="1.2.1 (9c6d41e410, 2022-07-14)"
   xmlns:inkscape="http://www.inkscape.org/namespaces/inkscape"
   xmlns:sodipodi="http://sodipodi.sourceforge.net/DTD/sodipodi-0.dtd"
   xmlns="http://www.w3.org/2000/svg"
   xmlns:svg="http://www.w3.org/2000/svg">
  <defs
     id="defs10" />
  <sodipodi:namedview
     id="namedview8"
     pagecolor="#ffffff"
     bordercolor="#000000"
     borderopacity="0.25"
     inkscape:showpageshadow="2"
     inkscape:pageopacity="0.0"
     inkscape:pagecheckerboard="0"
     inkscape:deskcolor="#d1d1d1"
     showgrid="false"
     inkscape:zoom="50.25"
     inkscape:cx="4.6766169"
     inkscape:cy="5.1840796"
     inkscape:window-width="1920"
     inkscape:window-height="991"
     inkscape:window-x="-9"
     inkscape:window-y="-9"
     inkscape:window-maximized="1"
     inkscape:current-layer="svg6" />
  <path
     d="m 1.83333,9.16669 c 0,0.1768 -0.07024,0.3464 -0.19526,0.4714 -0.12503,0.125 -0.29459,0.1952 -0.47141,0.1952 -0.17681,0 -0.34638,-0.0702 -0.4714,-0.1952 C 0.57024,9.51309 0.5,9.34349 0.5,9.16669 c 0,-0.1768 0.07024,-0.3464 0.19526,-0.4714 0.12502,-0.1251 0.29459,-0.1953 0.4714,-0.1953 0.17682,0 0.34638,0.0702 0.47141,0.1953 0.12502,0.125 0.19526,0.2946 0.19526,0.4714 z"
     fill="#ffffff"
     id="path2" />
  <path
     d="m 1.16666,0.5 c 4.78667,0 8.6667,3.88 8.6667,8.66669 M 1.16666,4.5 C 2.40434,4.5 3.59133,4.99166 4.4665,5.86683 5.34167,6.742 5.83333,7.92899 5.83333,9.16669 m -4,0 c 0,0.1768 -0.07024,0.3464 -0.19526,0.4714 -0.12503,0.125 -0.29459,0.1952 -0.47141,0.1952 -0.17681,0 -0.34638,-0.0702 -0.4714,-0.1952 C 0.57024,9.51309 0.5,9.34349 0.5,9.16669 c 0,-0.1768 0.07024,-0.3464 0.19526,-0.4714 0.12502,-0.1251 0.29459,-0.1953 0.4714,-0.1953 0.17682,0 0.34638,0.0702 0.47141,0.1953 0.12502,0.125 0.19526,0.2946 0.19526,0.4714 z"
     stroke="#ffffff"
     stroke-linecap="round"
     stroke-linejoin="round"
     id="path4" />
</svg>
