<svg width="20" height="21" viewBox="0 0 20 21" fill="none" xmlns="http://www.w3.org/2000/svg">
<path fill-rule="evenodd" clip-rule="evenodd"
            d="M11.1667 3.51015C10.9007 3.50104 10.571 3.50003 10.143 3.50003H10.0592C8.68361 3.50003 7.70039 3.50102 6.95063 3.59835C6.21422 3.69395 5.77551 3.87489 5.44931 4.18324C5.41524 4.21545 5.38208 4.24861 5.34987 4.28268C5.04152 4.60888 4.86058 5.04759 4.76498 5.784C4.66765 6.53375 4.66666 7.51698 4.66666 8.89258V12.1667C4.66666 13.5133 4.66761 14.4758 4.76118 15.2111C4.85312 15.9335 5.02726 16.3658 5.32346 16.689C5.3726 16.7426 5.42406 16.7941 5.47768 16.8432C5.80093 17.1394 6.23314 17.3136 6.95562 17.4055C7.6909 17.4991 8.65338 17.5 9.99999 17.5C11.3466 17.5 12.3091 17.4991 13.0444 17.4055C13.7668 17.3136 14.1991 17.1394 14.5223 16.8432C14.5759 16.7941 14.6274 16.7426 14.6765 16.689C14.9727 16.3658 15.1469 15.9335 15.2388 15.2111C15.3324 14.4758 15.3333 13.5133 15.3333 12.1667V8.69038C15.3333 8.26242 15.3323 7.93276 15.3232 7.66677C14.5567 7.66674 13.9358 7.66522 13.4396 7.60657C12.9123 7.54424 12.4611 7.41151 12.0807 7.0993C11.9541 6.99541 11.838 6.87934 11.7341 6.75275C11.4219 6.37232 11.2892 5.9211 11.2269 5.39381C11.1682 4.89756 11.1667 4.27664 11.1667 3.51015ZM15.1621 6.66669C15.1436 6.61936 15.1237 6.5726 15.1024 6.52649C14.9243 6.14154 14.6157 5.82285 13.8131 5.02025C13.0105 4.21765 12.6918 3.90904 12.3069 3.73099C12.2608 3.70967 12.214 3.68976 12.1667 3.67129C12.1674 4.3715 12.173 4.87912 12.2199 5.27643C12.2711 5.70931 12.3654 5.94562 12.5071 6.11836C12.5695 6.19431 12.6391 6.26396 12.7151 6.32629C12.8878 6.46805 13.1241 6.56231 13.557 6.61348C13.9543 6.66044 14.4619 6.66603 15.1621 6.66669ZM12.4646 2.71483C11.8791 2.49967 11.2455 2.4998 10.2392 2.50001L10.143 2.50003H10.0592L10.0227 2.50003C8.69164 2.50002 7.64349 2.50001 6.82189 2.60667C5.97945 2.71603 5.30349 2.94502 4.76237 3.45653C4.71467 3.50161 4.66825 3.54804 4.62316 3.59574C4.11165 4.13686 3.88266 4.81282 3.7733 5.65526C3.66664 6.47686 3.66665 7.52501 3.66666 8.85608L3.66666 8.89258V12.1667L3.66666 12.2024C3.66665 13.5055 3.66664 14.5316 3.76918 15.3373C3.87428 16.1632 4.09422 16.8277 4.58619 17.3646C4.65498 17.4397 4.72702 17.5117 4.80209 17.5805C5.33898 18.0725 6.00349 18.2924 6.82938 18.3975C7.63511 18.5 8.66123 18.5 9.96429 18.5H9.99999H10.0357C11.3387 18.5 12.3649 18.5 13.1706 18.3975C13.9965 18.2924 14.661 18.0725 15.1979 17.5805C15.273 17.5117 15.345 17.4397 15.4138 17.3646C15.9058 16.8277 16.1257 16.1632 16.2308 15.3373C16.3333 14.5316 16.3333 13.5054 16.3333 12.2024V12.1667V8.69038L16.3333 8.5941C16.3335 7.58788 16.3337 6.95422 16.1185 6.36874C16.0859 6.27995 16.0497 6.19253 16.01 6.10668C15.7481 5.54054 15.3 5.09257 14.5883 4.38122L14.5883 4.38121L14.5202 4.31314L14.4521 4.24505C13.7408 3.5334 13.2928 3.08524 12.7267 2.82338C12.6408 2.78367 12.5534 2.74746 12.4646 2.71483ZM9.52021 10.0203C9.71547 9.82507 9.71547 9.50849 9.52021 9.31323C9.32495 9.11797 9.00836 9.11797 8.8131 9.31323L7.14644 10.9799C6.95117 11.1752 6.95117 11.4917 7.14644 11.687L8.8131 13.3537C9.00836 13.5489 9.32495 13.5489 9.52021 13.3537C9.71547 13.1584 9.71547 12.8418 9.52021 12.6466L8.2071 11.3334L9.52021 10.0203ZM10.4798 11.687L11.7929 13.0001L10.4798 14.3132C10.2845 14.5085 10.2845 14.8251 10.4798 15.0203C10.675 15.2156 10.9916 15.2156 11.1869 15.0203L12.8535 13.3537C13.0488 13.1584 13.0488 12.8418 12.8535 12.6466L11.1869 10.9799C10.9916 10.7846 10.675 10.7846 10.4798 10.9799C10.2845 11.1752 10.2845 11.4917 10.4798 11.687Z" />
      </svg>
