<svg width="12.666653" height="16.000004" viewBox="0 0 12.666653 16.000004" fill="none" xmlns="http://www.w3.org/2000/svg">
  <path
     fill-rule="evenodd"
     clip-rule="evenodd"
     d="m 7.5000402,1.0101529 c -0.266,-0.00911 -0.5957,-0.01012 -1.0237,-0.01012 h -0.0838 c -1.37559,0 -2.35881,9.9e-4 -3.10857,0.09832 -0.73641,0.0956 -1.17512,0.27654 -1.50132,0.58489 -0.03407,0.03221 -0.06723,0.06537 -0.09944,0.09944 -0.30835,0.3262 -0.48929,0.76491 -0.58489,1.50132 -0.09733,0.74975 -0.09832,1.73298 -0.09832,3.10858 v 3.27412 c 0,1.3466001 9.5e-4,2.3091001 0.09452,3.0444001 0.09194,0.7224 0.26608,1.1547 0.56228,1.4779 0.04914,0.0536 0.1006,0.1051 0.15422,0.1542 0.32325,0.2962 0.75546,0.4704 1.47794,0.5623 0.73528,0.0936 1.69776,0.0945 3.04437,0.0945 1.34661,0 2.30911,-9e-4 3.04441,-0.0945 0.7223998,-0.0919 1.1546998,-0.2661 1.4778998,-0.5623 0.0536,-0.0491 0.1051,-0.1006 0.1542,-0.1542 0.2962,-0.3232 0.4704,-0.7555 0.5623,-1.4779 0.0936,-0.7353 0.0945,-1.6978 0.0945,-3.0444001 v -3.47632 c 0,-0.42796 -10e-4,-0.75762 -0.0101,-1.02361 -0.7665,-3e-5 -1.3874,-0.00155 -1.8835998,-0.0602 -0.5273,-0.06233 -0.9785,-0.19506 -1.3589,-0.50727 -0.1266,-0.10389 -0.2427,-0.21996 -0.3466,-0.34655 -0.3122,-0.38043 -0.4449,-0.83165 -0.5072,-1.35894 -0.0587,-0.49625 -0.0602,-1.11717 -0.0602,-1.88366 z m 3.9953998,3.15654 c -0.0185,-0.04733 -0.0384,-0.09409 -0.0597,-0.1402 -0.1781,-0.38495 -0.4867,-0.70364 -1.2893,-1.50624 -0.8025998,-0.8026 -1.1212998,-1.11121 -1.5061998,-1.28926 -0.0461,-0.02132 -0.0929,-0.04123 -0.1402,-0.0597 7e-4,0.70021 0.0063,1.20783 0.0532,1.60514 0.0512,0.43288 0.1455,0.66919 0.2872,0.84193 0.0624,0.07595 0.132,0.1456 0.208,0.20793 0.1727,0.14176 0.409,0.23602 0.8419,0.28719 0.3972998,0.04696 0.9048998,0.05255 1.6050998,0.05321 z M 8.7979402,0.21483289 c -0.5855,-0.21516000161 -1.2191,-0.21503000161 -2.2254,-0.21482000161 l -0.0962,2e-5 h -0.0838 -0.0365 c -1.33106,-1e-5 -2.37921,-2e-5 -3.20081,0.10664000161 -0.84244,0.10936 -1.5184,0.33835 -2.05952,0.84986 -0.0477,0.04508 -0.09412,0.09151 -0.13921,0.13921001 -0.51151,0.54112 -0.7405,1.21708 -0.84986,2.05952 C -1.9802502e-5,3.9768629 -9.8025022e-6,5.0250129 1.9749776e-7,6.3560829 v 0.0365 3.27412 0.0357 C -9.8025022e-6,11.005503 -1.9802502e-5,12.031603 0.1025202,12.837303 c 0.1051,0.8259 0.32504,1.4904 0.81701,2.0273 0.06879,0.0751 0.14083,0.1471 0.2159,0.2159 0.53689,0.492 1.2014,0.7119 2.02729,0.817 0.80573,0.1025 1.83185,0.1025 3.13491,0.1025 h 0.0357 0.03571 c 1.303,0 2.3292,0 3.1349,-0.1025 0.8258998,-0.1051 1.4903998,-0.325 2.0272998,-0.817 0.0751,-0.0688 0.1471,-0.1408 0.2159,-0.2159 0.492,-0.5369 0.7119,-1.2014 0.817,-2.0273 0.1025,-0.8057 0.1025,-1.8319 0.1025,-3.1349001 v -0.0357 -3.47632 -0.09628 c 2e-4,-1.00622 4e-4,-1.63988 -0.2148,-2.22536 -0.0326,-0.08879 -0.0688,-0.17621 -0.1085,-0.26206 -0.2619,-0.56614 -0.71,-1.01411 -1.4217,-1.72546 v -1e-5 l -0.0681,-0.06807 -0.0681,-0.06809 c -0.7113,-0.71165 -1.1592998,-1.15981001 -1.7253998,-1.42167001 -0.0859,-0.03971 -0.1733,-0.07592 -0.2621,-0.10855 z m -2.94439,7.30547001 c 0.19526,-0.19523 0.19526,-0.51181 0,-0.70707 -0.19526,-0.19526 -0.51185,-0.19526 -0.70711,0 l -1.66666,1.66667 c -0.19527,0.1953 -0.19527,0.5118 0,0.7071 l 1.66666,1.6667001 c 0.19526,0.1952 0.51185,0.1952 0.70711,0 0.19526,-0.1953 0.19526,-0.5119 0,-0.7071 l -1.31311,-1.3132001 z m 0.95959,1.6667 1.3131,1.3131001 -1.3131,1.3131 c -0.1953,0.1953 -0.1953,0.5119 0,0.7071 0.1952,0.1953 0.5118,0.1953 0.7071,0 l 1.6666,-1.6666 c 0.1953,-0.1953 0.1953,-0.5119 0,-0.7071 l -1.6666,-1.6667001 c -0.1953,-0.1953 -0.5119,-0.1953 -0.7071,0 -0.1953,0.1953 -0.1953,0.5118 0,0.7071 z"
      />
</svg>
