<?xml version="1.0" encoding="UTF-8" standalone="no"?>
<svg
   width="63.533302"
   height="80.252502"
   viewBox="0 0 63.533302 80.252502"
   fill="none"
   version="1.1"
   id="svg3562"
   sodipodi:docname="filetext-icon.svg"
   inkscape:version="1.2.1 (9c6d41e410, 2022-07-14)"
   xmlns:inkscape="http://www.inkscape.org/namespaces/inkscape"
   xmlns:sodipodi="http://sodipodi.sourceforge.net/DTD/sodipodi-0.dtd"
   xmlns="http://www.w3.org/2000/svg"
   xmlns:svg="http://www.w3.org/2000/svg">
  <defs
     id="defs3566" />
  <sodipodi:namedview
     id="namedview3564"
     pagecolor="#ffffff"
     bordercolor="#000000"
     borderopacity="0.25"
     inkscape:showpageshadow="2"
     inkscape:pageopacity="0.0"
     inkscape:pagecheckerboard="0"
     inkscape:deskcolor="#d1d1d1"
     showgrid="false"
     inkscape:zoom="9.5802469"
     inkscape:cx="31.940722"
     inkscape:cy="45.092784"
     inkscape:window-width="1920"
     inkscape:window-height="991"
     inkscape:window-x="-9"
     inkscape:window-y="-9"
     inkscape:window-maximized="1"
     inkscape:current-layer="svg3562" />
  <path
     fill-rule="evenodd"
     clip-rule="evenodd"
     d="m 42.63416,5.4426929 c 0.1356,0.04403 0.2666,0.09257 0.3957,0.14607 1.2755,0.52831 2.3349,1.52498 5.379,4.5690401 l 4.9666,4.9666 c 3.0441,3.0441 4.0408,4.1035 4.5691,5.379 0.0535,0.1293 0.1021,0.2605 0.1462,0.3963 -3.7368,-0.0016 -6.4095,-0.022 -8.4832,-0.2672 -2.1712,-0.2566 -3.3565,-0.7294 -4.2229,-1.4404 -0.3809,-0.3127 -0.7302,-0.662 -1.0429,-1.043 -0.711,-0.8664 -1.1838,-2.0517 -1.4405,-4.2229 -0.2451,-2.0737 -0.2655,-4.7465101 -0.2671,-8.4835101 z m -5.0159,-0.42296 c -0.4916,-0.00283 -1.0301,-0.00367 -1.6227,-0.00367 h -13.4246 c -4.7998,0 -8.1474,0.00532 -10.6732,0.3449 -2.4535902,0.32989 -3.7529202,0.93327 -4.6783702,1.85872 -0.92545,0.92545 -1.52883,2.22478 -1.85872,4.6784201 -0.33958,2.5258 -0.3449,5.8733 -0.3449,10.6731 v 35.1104 c 0,4.7998 0.00532,8.1473 0.3449,10.6731 0.32989,2.4536 0.93327,3.753 1.85872,4.6784 0.92545,0.9255 2.22478,1.5289 4.6783702,1.8587 2.5258,0.3396 5.8734,0.3449 10.6732,0.3449 h 18.3911 c 4.7998,0 8.1474,-0.0053 10.6731,-0.3449 2.4537,-0.3298 3.753,-0.9332 4.6785,-1.8587 0.9254,-0.9254 1.5288,-2.2248 1.8587,-4.6784 0.3396,-2.5258 0.3449,-5.8733 0.3449,-10.6731 v -30.1438 c 0,-0.5924 -9e-4,-1.1308 -0.0037,-1.6222 -3.866,-10e-5 -6.9956,-0.0066 -9.4947,-0.302 -2.6448,-0.3126 -4.908,-0.9783 -6.8161,-2.5443 -0.635,-0.5211 -1.2171,-1.1033 -1.7382,-1.7382 -1.566,-1.9082 -2.2317,-4.1714 -2.5444,-6.8161 -0.2954,-2.4993 -0.3018,-5.6290001 -0.3019,-9.4952701 z m 7.3311,-4.06492996 c -2.3119,-0.957601 -4.8397,-0.956394 -8.477,-0.95465800042 l -0.4768,1.51e-4 h -13.4246 l -0.1835,-2e-6 c -4.573,-6.9e-5 -8.259,-1.25e-4 -11.158,0.38963600042 -3.0098202,0.404663 -5.5440302,1.27036296 -7.5567502,3.28307296 -2.01271,2.01271 -2.87840997,4.54693 -3.28307197,7.5567001 -0.38976100085,2.899 -0.389705000853,6.585 -0.3896360008532,11.158 l 2e-6,0.1835 v 35.1104 l -2e-6,0.1835 c -6.89999998e-5,4.573 -1.249999968e-4,8.259 0.3896360008532,11.158 0.404662,3.0098 1.27036197,5.544 3.28307197,7.5567 2.01272,2.0127 4.54693,2.8784 7.5567502,3.2831 2.899,0.3897 6.5849,0.3897 11.1578,0.3896 h 2e-4 0.1835 18.3911 0.1835 2e-4 c 4.5729,10e-5 8.2588,10e-5 11.1578,-0.3896 3.0098,-0.4047 5.544,-1.2704 7.5567,-3.2831 2.0127,-2.0127 2.8784,-4.5469 3.2831,-7.5567 0.3898,-2.899 0.3897,-6.5849 0.3896,-11.1579 v 0 -1e-4 -10e-5 -0.1834 -30.1438 l 2e-4,-0.4769 c 0.0017,-3.6373 0.0029,-6.1651 -0.9547,-8.4769 -0.9576,-2.3119 -2.7458,-4.0985 -5.3191,-6.6692 l -0.3372,-0.3371 -4.9666,-4.9665301 -0.3371,-0.3373 v -3e-5 c -2.5707,-2.57319 -4.3573,-4.36145 -6.6691,-5.31903996 z M 19.22696,37.619103 c -1.385,0 -2.5078,1.1228 -2.5078,2.5079 0,1.3851 1.1228,2.5079 2.5078,2.5079 h 25.0789 c 1.385,0 2.5078,-1.1228 2.5078,-2.5079 0,-1.3851 -1.1228,-2.5079 -2.5078,-2.5079 z m -2.5078,19.2273 c 0,-1.385 1.1228,-2.5079 2.5078,-2.5079 h 16.7192 c 1.3851,0 2.5079,1.1229 2.5079,2.5079 0,1.3851 -1.1228,2.5079 -2.5079,2.5079 h -16.7192 c -1.385,0 -2.5078,-1.1228 -2.5078,-2.5079 z"
     id="path3560" />
</svg>
