<svg width="65" height="81" viewBox="0 0 65 81" fill="none" xmlns="http://www.w3.org/2000/svg">
<path fill-rule="evenodd" clip-rule="evenodd"
            d="M43.1377 5.94489C43.2733 5.98892 43.4043 6.03746 43.5334 6.09096C44.8089 6.61927 45.8683 7.61594 48.9124 10.66L53.879 15.6266C56.9231 18.6707 57.9198 19.7301 58.4481 21.0056C58.5016 21.1349 58.5502 21.2661 58.5943 21.4019C54.8575 21.4003 52.1848 21.3799 50.1111 21.1347C47.9399 20.8781 46.7546 20.4053 45.8882 19.6943C45.5073 19.3816 45.158 19.0323 44.8453 18.6513C44.1343 17.7849 43.6615 16.5996 43.4048 14.4284C43.1597 12.3547 43.1393 9.68189 43.1377 5.94489ZM38.1218 5.52193C37.6302 5.5191 37.0917 5.51826 36.4991 5.51826H23.0745C18.2747 5.51826 14.9271 5.52358 12.4013 5.86316C9.94771 6.19305 8.64838 6.79643 7.72293 7.72188C6.79748 8.64733 6.1941 9.94666 5.86421 12.4003C5.52463 14.9261 5.51931 18.2736 5.51931 23.0734V58.1838C5.51931 62.9836 5.52463 66.3311 5.86421 68.8569C6.1941 71.3105 6.79748 72.6099 7.72293 73.5353C8.64838 74.4608 9.94771 75.0642 12.4013 75.394C14.9271 75.7336 18.2747 75.7389 23.0745 75.7389H41.4656C46.2654 75.7389 49.613 75.7336 52.1387 75.394C54.5924 75.0642 55.8917 74.4608 56.8172 73.5353C57.7426 72.6099 58.346 71.3105 58.6759 68.8569C59.0155 66.3311 59.0208 62.9836 59.0208 58.1838V28.04C59.0208 27.4476 59.0199 26.9092 59.0171 26.4178C55.1511 26.4177 52.0215 26.4112 49.5224 26.1158C46.8776 25.8032 44.6144 25.1375 42.7063 23.5715C42.0713 23.0504 41.4892 22.4682 40.9681 21.8333C39.4021 19.9251 38.7364 17.6619 38.4237 15.0172C38.1283 12.5179 38.1219 9.3882 38.1218 5.52193ZM45.4529 1.457C43.141 0.499399 40.6132 0.500606 36.9759 0.502342L36.4991 0.502493H23.0745L22.891 0.502491C18.318 0.502422 14.632 0.502366 11.733 0.892127C8.72318 1.29679 6.18897 2.16249 4.17625 4.1752C2.16354 6.18791 1.29784 8.72213 0.893178 11.7319C0.503417 14.6309 0.503473 18.3169 0.503542 22.8899L0.503544 23.0734V58.1838L0.503542 58.3673C0.503473 62.9403 0.503417 66.6263 0.893178 69.5253C1.29784 72.5351 2.16354 75.0693 4.17625 77.082C6.18897 79.0947 8.72318 79.9604 11.733 80.3651C14.632 80.7548 18.3179 80.7548 22.8908 80.7547H22.891H23.0745H41.4656H41.6491H41.6493C46.2222 80.7548 49.9081 80.7548 52.8071 80.3651C55.8169 79.9604 58.3511 79.0947 60.3638 77.082C62.3765 75.0693 63.2422 72.5351 63.6469 69.5253C64.0367 66.6263 64.0366 62.9404 64.0365 58.3674V58.3674V58.3673V58.3672V58.1838V28.04L64.0367 27.5631C64.0384 23.9258 64.0396 21.398 63.082 19.0862C62.1244 16.7743 60.3362 14.9877 57.7629 12.417L57.4257 12.0799L52.4591 7.11337L52.122 6.77607L52.122 6.77604C49.5513 4.20285 47.7647 2.41459 45.4529 1.457ZM19.7305 38.1213C18.3455 38.1213 17.2227 39.2441 17.2227 40.6292C17.2227 42.0143 18.3455 43.1371 19.7305 43.1371H44.8094C46.1944 43.1371 47.3172 42.0143 47.3172 40.6292C47.3172 39.2441 46.1944 38.1213 44.8094 38.1213H19.7305ZM17.2227 57.3486C17.2227 55.9636 18.3455 54.8407 19.7305 54.8407H36.4497C37.8348 54.8407 38.9576 55.9636 38.9576 57.3486C38.9576 58.7337 37.8348 59.8565 36.4497 59.8565H19.7305C18.3455 59.8565 17.2227 58.7337 17.2227 57.3486Z" />
      </svg>
