<?xml version="1.0" encoding="UTF-8" standalone="no"?>
<svg
   width="16.5"
   height="9.8333597"
   viewBox="0 0 16.5 9.8333597"
   fill="none"
   version="1.1"
   id="svg3218"
   sodipodi:docname="filter-icon.svg"
   inkscape:version="1.2.1 (9c6d41e410, 2022-07-14)"
   xmlns:inkscape="http://www.inkscape.org/namespaces/inkscape"
   xmlns:sodipodi="http://sodipodi.sourceforge.net/DTD/sodipodi-0.dtd"
   xmlns="http://www.w3.org/2000/svg"
   xmlns:svg="http://www.w3.org/2000/svg">
  <defs
     id="defs3222" />
  <sodipodi:namedview
     id="namedview3220"
     pagecolor="#ffffff"
     bordercolor="#000000"
     borderopacity="0.25"
     inkscape:showpageshadow="2"
     inkscape:pageopacity="0.0"
     inkscape:pagecheckerboard="0"
     inkscape:deskcolor="#d1d1d1"
     showgrid="false"
     inkscape:zoom="36.904762"
     inkscape:cx="8.2374194"
     inkscape:cy="5.4870968"
     inkscape:window-width="1920"
     inkscape:window-height="991"
     inkscape:window-x="-9"
     inkscape:window-y="-9"
     inkscape:window-maximized="1"
     inkscape:current-layer="svg3218" />
  <path
     fill-rule="evenodd"
     clip-rule="evenodd"
     d="M 0,0.75 C 0,0.33579 0.33579,0 0.75,0 h 15 c 0.4142,0 0.75,0.33579 0.75,0.75 0,0.41422 -0.3358,0.75 -0.75,0.75 h -15 C 0.33579,1.5 0,1.16422 0,0.75 Z m 2.5,4.16666 c 0,-0.4142 0.33579,-0.74999 0.75,-0.74999 h 10 c 0.4142,0 0.75,0.33579 0.75,0.74999 0,0.4142 -0.3358,0.75 -0.75,0.75 h -10 c -0.41421,0 -0.75,-0.3358 -0.75,-0.75 z m 4.08333,3.4167 c -0.41421,0 -0.75,0.3358 -0.75,0.75 0,0.4142 0.33579,0.75 0.75,0.75 H 9.9167 c 0.4142,0 0.75,-0.3358 0.75,-0.75 0,-0.4142 -0.3358,-0.75 -0.75,-0.75 z"
     id="path3216" />
</svg>
