<svg width="20" height="21" viewBox="0 0 20 21" fill="none" xmlns="http://www.w3.org/2000/svg">
<path fill-rule="evenodd" clip-rule="evenodd"
            d="M1.75 6.33334C1.75 5.91913 2.08579 5.58334 2.5 5.58334H17.5C17.9142 5.58334 18.25 5.91913 18.25 6.33334C18.25 6.74756 17.9142 7.08334 17.5 7.08334H2.5C2.08579 7.08334 1.75 6.74756 1.75 6.33334ZM4.25 10.5C4.25 10.0858 4.58579 9.75001 5 9.75001H15C15.4142 9.75001 15.75 10.0858 15.75 10.5C15.75 10.9142 15.4142 11.25 15 11.25H5C4.58579 11.25 4.25 10.9142 4.25 10.5ZM8.33333 13.9167C7.91912 13.9167 7.58333 14.2525 7.58333 14.6667C7.58333 15.0809 7.91912 15.4167 8.33333 15.4167H11.6667C12.0809 15.4167 12.4167 15.0809 12.4167 14.6667C12.4167 14.2525 12.0809 13.9167 11.6667 13.9167H8.33333Z" />
     
</svg>
