<svg width="20" height="21" viewBox="0 0 20 21" fill="none" xmlns="http://www.w3.org/2000/svg">
<path fill-rule="evenodd" clip-rule="evenodd"
            d="M10 20C15.5228 20 20 15.5228 20 10C20 4.47715 15.5228 0 10 0C4.47715 0 0 4.47715 0 10C0 15.5228 4.47715 20 10 20ZM6.24981 7.74353C6.24981 6.36646 7.36615 5.25012 8.74323 5.25012H9.24988V4.50012C9.24988 4.08591 9.58567 3.75012 9.99988 3.75012C10.4141 3.75012 10.7498 4.08591 10.7498 4.50012V5.25012H10.9998C12.5186 5.25012 13.7498 6.48133 13.7498 8.00012C13.7498 8.41433 13.414 8.75012 12.9998 8.75012C12.5856 8.75012 12.2498 8.41433 12.2498 8.00012C12.2498 7.30976 11.6901 6.75012 10.9998 6.75012H10.7498V9.45957L12.0448 9.89124C13.063 10.2306 13.7498 11.1835 13.7498 12.2567C13.7498 13.6338 12.6334 14.7501 11.2564 14.7501H10.7498V15.5001C10.7498 15.9143 10.4141 16.2501 9.99988 16.2501C9.58567 16.2501 9.24988 15.9143 9.24988 15.5001V14.7501H8.99981C7.48103 14.7501 6.24981 13.5189 6.24981 12.0001C6.24981 11.5859 6.5856 11.2501 6.99981 11.2501C7.41402 11.2501 7.74981 11.5859 7.74981 12.0001C7.74981 12.6905 8.30945 13.2501 8.99981 13.2501H9.24988V10.5407L7.95474 10.109C6.93657 9.76961 6.24981 8.81678 6.24981 7.74353ZM9.24988 8.95957V6.75012H8.74323C8.19458 6.75012 7.74981 7.19488 7.74981 7.74353C7.74981 8.17113 8.02343 8.55075 8.42908 8.68597L9.24988 8.95957ZM10.7498 11.0407V13.2501H11.2564C11.805 13.2501 12.2498 12.8053 12.2498 12.2567C12.2498 11.8291 11.9762 11.4495 11.5705 11.3143L10.7498 11.0407Z" />
      </svg>
