<svg width="8.125" height="11.375" viewBox="0 0 8.125 11.375" fill="none" xmlns="http://www.w3.org/2000/svg">
  <path
     d="M 7.5722,4.20367 C 7.25769,3.36855 6.79904,2.59511 6.21715,1.91852 5.21016,0.75283 3.88604,0 2.84375,0 2.78177,5e-5 2.72063,0.01427 2.665,0.04159 2.60937,0.0689 2.56072,0.10858 2.52279,0.15759 2.48486,0.2066 2.45864,0.26364 2.44615,0.32435 2.43365,0.38505 2.43521,0.44781 2.4507,0.50781 2.80287,1.85352 2.07289,2.97248 1.30025,4.15695 0.66016,5.13805 0,6.15139 0,7.3125 0,9.5525 1.82254,11.375 4.0625,11.375 6.30246,11.375 8.125,9.5525 8.125,7.3125 8.125,6.21309 7.9391,5.16725 7.5722,4.20367 Z M 4.88338,9.8183 c -0.26229,0.2793 -0.5911,0.338 -0.82088,0.338 -0.22979,0 -0.55859,-0.0587 -0.82088,-0.338 C 2.97934,9.539 2.84375,9.0959 2.84375,8.53125 2.84375,7.89293 3.0677,7.40695 3.28402,6.93723 3.40971,6.66453 3.53793,6.38701 3.6141,6.08994 3.62219,6.05763 3.6381,6.0278 3.66043,6.00308 3.68276,5.97837 3.71083,5.95952 3.74216,5.94821 3.77349,5.93689 3.80712,5.93346 3.8401,5.93821 3.87307,5.94295 3.90436,5.95574 3.93123,5.97543 4.16346,6.1551 4.36994,6.36578 4.54492,6.60156 5.00627,7.21094 5.28125,7.93254 5.28125,8.53125 5.28125,9.0959 5.14363,9.541 4.88338,9.8183 Z"
     fill="#ff9800" />
</svg>
