<svg width="18" height="13" viewBox="0 0 18 13" fill="none" xmlns="http://www.w3.org/2000/svg">
<path fill-rule="evenodd" clip-rule="evenodd"
            d="M11.4697 0.46967C11.7626 0.176777 12.2374 0.176777 12.5303 0.46967L17.5303 5.46967C17.8232 5.76256 17.8232 6.23744 17.5303 6.53033L12.5303 11.5303C12.2374 11.8232 11.7626 11.8232 11.4697 11.5303C11.1768 11.2374 11.1768 10.7626 11.4697 10.4697L15.1893 6.75H8C6.57993 6.75 5.57133 6.75091 4.78975 6.83041C4.02071 6.90865 3.55507 7.05673 3.1944 7.29772C2.83953 7.53484 2.53484 7.83953 2.29772 8.1944C2.05673 8.55507 1.90865 9.02071 1.83041 9.78975C1.75091 10.5713 1.75 11.5799 1.75 13H0.25L0.25 12.9584C0.249991 11.5892 0.249984 10.5043 0.338116 9.63794C0.428414 8.7503 0.617393 8.00926 1.05052 7.36104C1.39707 6.84239 1.84239 6.39707 2.36104 6.05052C3.00926 5.61739 3.7503 5.42841 4.63794 5.33812C5.5043 5.24998 6.58921 5.24999 7.95842 5.25H8H15.1893L11.4697 1.53033C11.1768 1.23744 11.1768 0.762563 11.4697 0.46967Z" />
      </svg>
