<?xml version="1.0" encoding="UTF-8" standalone="no"?>
<svg
   width="12.999975"
   height="11.366634"
   viewBox="0 0 12.999975 11.366634"
   fill="none"
   version="1.1"
   id="svg122"
   sodipodi:docname="gif-icon.svg"
   inkscape:version="1.2.1 (9c6d41e410, 2022-07-14)"
   xmlns:inkscape="http://www.inkscape.org/namespaces/inkscape"
   xmlns:sodipodi="http://sodipodi.sourceforge.net/DTD/sodipodi-0.dtd"
   xmlns="http://www.w3.org/2000/svg"
   xmlns:svg="http://www.w3.org/2000/svg">
  <defs
     id="defs126" />
  <sodipodi:namedview
     id="namedview124"
     pagecolor="#ffffff"
     bordercolor="#000000"
     borderopacity="0.25"
     inkscape:showpageshadow="2"
     inkscape:pageopacity="0.0"
     inkscape:pagecheckerboard="0"
     inkscape:deskcolor="#d1d1d1"
     showgrid="false"
     inkscape:zoom="67"
     inkscape:cx="5.8208955"
     inkscape:cy="10.768657"
     inkscape:window-width="1920"
     inkscape:window-height="991"
     inkscape:window-x="-9"
     inkscape:window-y="-9"
     inkscape:window-maximized="1"
     inkscape:current-layer="svg122" />
  <path
     fill-rule="evenodd"
     clip-rule="evenodd"
     d="M 0,0.4888894 C 0,0.1833334 0.177275,0 0.472725,0 h 12.05455 c 0.2364,0 0.4727,0.1833334 0.4727,0.4888894 V 10.877734 c 0,0.2445 -0.2363,0.4889 -0.4727,0.4889 H 0.472725 C 0.177275,11.366634 0,11.122234 0,10.877734 Z m 0.886365,0.427777 v 9.5333676 h 11.22731 V 0.9166664 Z"
     fill="#6a6a6a"
     id="path118" />
  <path
     d="m 4.838775,4.8883944 h 0.82728 c -0.11819,-0.79445 -0.76819,-1.34445 -1.65455,-1.34445 -1.00454,0 -1.83182,0.73333 -1.83182,2.07778 0,1.22222 0.76818,2.01667 1.83182,2.01667 1.00455,0 1.71364,-0.61112 1.71364,-1.71112 v -0.48888 h -1.65455 v 0.67222 h 0.82727 c 0,0.48889 -0.35454,0.79444 -0.88636,0.79444 -0.59091,0 -1.00454,-0.48889 -1.00454,-1.34444 0,-0.79445 0.41363,-1.28334 1.00454,-1.28334 0.41364,0 0.70909,0.24445 0.82727,0.61112 z m 2.42273,-1.28334 h -0.82727 v 3.97222 h 0.82727 z m 0.82727,3.97222 h 0.82728 v -1.65 h 1.59542 v -0.67222 h -1.59542 v -0.97778 h 1.71362 v -0.67222 h -2.5409 z"
     fill="#6a6a6a"
     id="path120" />
</svg>
