<svg width="16" height="16" viewBox="0 0 16 16" fill="none" xmlns="http://www.w3.org/2000/svg">
  <path
     fill-rule="evenodd"
     clip-rule="evenodd"
     d="M 7.04721,1.45158 C 7.38135,1.1336 7.70245,1 8,1 8.2975,1 8.6187,1.1336 8.9528,1.45158 9.2895,1.77203 9.6155,2.25934 9.9001,2.89977 10.0888,3.32421 10.2549,3.80621 10.3928,4.33454 9.6357,4.22513 8.8314,4.16667 8,4.16667 7.16858,4.16667 6.36428,4.22513 5.60721,4.33454 5.74507,3.80621 5.91124,3.32421 6.09988,2.89977 6.38452,2.25934 6.71049,1.77203 7.04721,1.45158 Z M 4.53108,4.53108 C 4.69884,3.77908 4.92021,3.09183 5.18607,2.49363 5.37521,2.06807 5.59033,1.67979 5.83036,1.34274 3.7095,2.03348 2.03348,3.7095 1.34274,5.83036 1.67979,5.59033 2.06807,5.37521 2.49363,5.18607 3.09183,4.9202 3.77908,4.69884 4.53108,4.53108 Z M 0,8 C 0,3.58172 3.58172,0 8,0 c 4.4183,0 8,3.58172 8,8 0,4.4183 -3.5817,8 -8,8 C 3.58172,16 0,12.4183 0,8 Z M 14.6573,5.83036 C 13.9665,3.7095 12.2905,2.03348 10.1696,1.34274 c 0.2401,0.33705 0.4552,0.72533 0.6443,1.15089 0.2659,0.5982 0.4873,1.28545 0.655,2.03745 0.752,0.16776 1.4393,0.38912 2.0375,0.65499 0.4255,0.18914 0.8138,0.40426 1.1509,0.64429 z M 11.6655,5.60721 c 0.5283,0.13786 1.0103,0.30403 1.4347,0.49267 0.6405,0.28464 1.1278,0.61061 1.4482,0.94733 C 14.8664,7.38135 15,7.7025 15,8 15,8.2975 14.8664,8.6187 14.5484,8.9528 14.228,9.2895 13.7407,9.6155 13.1002,9.9001 12.6758,10.0888 12.1938,10.2549 11.6655,10.3928 11.7749,9.6357 11.8333,8.8314 11.8333,8 c 0,-0.83142 -0.0584,-1.63572 -0.1678,-2.39279 z M 10.6176,5.38237 C 9.8106,5.24377 8.928,5.16667 8,5.16667 7.07197,5.16667 6.18944,5.24376 5.38237,5.38237 5.24377,6.18944 5.16667,7.07197 5.16667,8 c 0,0.928 0.0771,1.8106 0.2157,2.6176 0.80707,0.1386 1.68961,0.2157 2.61763,0.2157 0.928,0 1.8106,-0.0771 2.6176,-0.2157 C 10.7562,9.8106 10.8333,8.928 10.8333,8 c 0,-0.92802 -0.0771,-1.81056 -0.2157,-2.61763 z M 10.3928,11.6655 C 9.6357,11.7749 8.8314,11.8333 8,11.8333 c -0.83142,0 -1.63572,-0.0584 -2.39279,-0.1678 0.13786,0.5283 0.30403,1.0103 0.49267,1.4347 0.28464,0.6405 0.61061,1.1278 0.94733,1.4482 C 7.38135,14.8664 7.70245,15 8,15 c 0.2975,0 0.6187,-0.1336 0.9528,-0.4516 0.3367,-0.3204 0.6627,-0.8077 0.9473,-1.4482 0.1887,-0.4244 0.3548,-0.9064 0.4927,-1.4347 z M 4.53108,11.4689 c 0.16776,0.752 0.38913,1.4393 0.65499,2.0375 0.18914,0.4255 0.40426,0.8138 0.64429,1.1509 -2.12086,-0.6908 -3.79688,-2.3668 -4.48762,-4.4877 0.33705,0.2401 0.72533,0.4552 1.15089,0.6443 0.5982,0.2659 1.28545,0.4873 2.03745,0.655 z M 4.33454,10.3928 C 3.80621,10.2549 3.32421,10.0888 2.89977,9.9001 2.25934,9.6155 1.77203,9.2895 1.45159,8.9528 1.1336,8.6187 1,8.2975 1,8 1,7.7025 1.1336,7.38135 1.45158,7.04721 1.77203,6.71049 2.25934,6.38452 2.89977,6.09988 3.32421,5.91124 3.80621,5.74507 4.33454,5.60721 4.22513,6.36428 4.16667,7.16858 4.16667,8 c 0,0.8314 0.05846,1.6357 0.16787,2.3928 z m 7.13436,1.0761 c 0.752,-0.1677 1.4393,-0.3891 2.0375,-0.655 0.4255,-0.1891 0.8138,-0.4042 1.1509,-0.6443 -0.6908,2.1209 -2.3668,3.7969 -4.4877,4.4877 0.2401,-0.3371 0.4552,-0.7254 0.6443,-1.1509 0.2659,-0.5982 0.4873,-1.2855 0.655,-2.0375 z"
     />
</svg>
