<svg width="20" height="21" viewBox="0 0 20 21" fill="none" xmlns="http://www.w3.org/2000/svg">
<path fill-rule="evenodd" clip-rule="evenodd"
            d="M9.04721 3.95158C9.38135 3.6336 9.70245 3.5 10 3.5C10.2975 3.5 10.6187 3.6336 10.9528 3.95158C11.2895 4.27203 11.6155 4.75934 11.9001 5.39977C12.0888 5.82421 12.2549 6.30621 12.3928 6.83454C11.6357 6.72513 10.8314 6.66667 10 6.66667C9.16858 6.66667 8.36428 6.72513 7.60721 6.83454C7.74507 6.30621 7.91124 5.82421 8.09988 5.39977C8.38452 4.75934 8.71049 4.27203 9.04721 3.95158ZM6.53108 7.03108C6.69884 6.27908 6.92021 5.59183 7.18607 4.99363C7.37521 4.56807 7.59033 4.17979 7.83036 3.84274C5.7095 4.53348 4.03348 6.2095 3.34274 8.33036C3.67979 8.09033 4.06807 7.87521 4.49363 7.68607C5.09183 7.4202 5.77908 7.19884 6.53108 7.03108ZM2 10.5C2 6.08172 5.58172 2.5 10 2.5C14.4183 2.5 18 6.08172 18 10.5C18 14.9183 14.4183 18.5 10 18.5C5.58172 18.5 2 14.9183 2 10.5ZM16.6573 8.33036C15.9665 6.2095 14.2905 4.53348 12.1696 3.84274C12.4097 4.17979 12.6248 4.56807 12.8139 4.99363C13.0798 5.59183 13.3012 6.27908 13.4689 7.03108C14.2209 7.19884 14.9082 7.4202 15.5064 7.68607C15.9319 7.87521 16.3202 8.09033 16.6573 8.33036ZM13.6655 8.10721C14.1938 8.24507 14.6758 8.41124 15.1002 8.59988C15.7407 8.88452 16.228 9.21049 16.5484 9.54721C16.8664 9.88135 17 10.2025 17 10.5C17 10.7975 16.8664 11.1187 16.5484 11.4528C16.228 11.7895 15.7407 12.1155 15.1002 12.4001C14.6758 12.5888 14.1938 12.7549 13.6655 12.8928C13.7749 12.1357 13.8333 11.3314 13.8333 10.5C13.8333 9.66858 13.7749 8.86428 13.6655 8.10721ZM12.6176 7.88237C11.8106 7.74377 10.928 7.66667 10 7.66667C9.07197 7.66667 8.18944 7.74376 7.38237 7.88237C7.24377 8.68944 7.16667 9.57197 7.16667 10.5C7.16667 11.428 7.24377 12.3106 7.38237 13.1176C8.18944 13.2562 9.07198 13.3333 10 13.3333C10.928 13.3333 11.8106 13.2562 12.6176 13.1176C12.7562 12.3106 12.8333 11.428 12.8333 10.5C12.8333 9.57198 12.7562 8.68944 12.6176 7.88237ZM12.3928 14.1655C11.6357 14.2749 10.8314 14.3333 10 14.3333C9.16858 14.3333 8.36428 14.2749 7.60721 14.1655C7.74507 14.6938 7.91124 15.1758 8.09988 15.6002C8.38452 16.2407 8.71049 16.728 9.04721 17.0484C9.38135 17.3664 9.70245 17.5 10 17.5C10.2975 17.5 10.6187 17.3664 10.9528 17.0484C11.2895 16.728 11.6155 16.2407 11.9001 15.6002C12.0888 15.1758 12.2549 14.6938 12.3928 14.1655ZM6.53108 13.9689C6.69884 14.7209 6.92021 15.4082 7.18607 16.0064C7.37521 16.4319 7.59033 16.8202 7.83036 17.1573C5.7095 16.4665 4.03348 14.7905 3.34274 12.6696C3.67979 12.9097 4.06807 13.1248 4.49363 13.3139C5.09183 13.5798 5.77908 13.8012 6.53108 13.9689ZM6.33454 12.8928C5.80621 12.7549 5.32421 12.5888 4.89977 12.4001C4.25934 12.1155 3.77203 11.7895 3.45159 11.4528C3.1336 11.1187 3 10.7975 3 10.5C3 10.2025 3.1336 9.88135 3.45158 9.54721C3.77203 9.21049 4.25934 8.88452 4.89977 8.59988C5.32421 8.41124 5.80621 8.24507 6.33454 8.10721C6.22513 8.86428 6.16667 9.66858 6.16667 10.5C6.16667 11.3314 6.22513 12.1357 6.33454 12.8928ZM13.4689 13.9689C14.2209 13.8012 14.9082 13.5798 15.5064 13.3139C15.9319 13.1248 16.3202 12.9097 16.6573 12.6696C15.9665 14.7905 14.2905 16.4665 12.1696 17.1573C12.4097 16.8202 12.6248 16.4319 12.8139 16.0064C13.0798 15.4082 13.3012 14.7209 13.4689 13.9689Z" />
</svg>
