    <svg width="20" height="18" viewBox="0 0 20 18" fill="none" xmlns="http://www.w3.org/2000/svg">
<path fill-rule="evenodd" clip-rule="evenodd" d="M8.43798 2.9751C6.88108 1.38281 4.3191 1.38281 2.76219 2.9751C1.25399 4.51758 1.25399 6.98228 2.76219 8.52475L9.86136 15.7853C9.93747 15.8631 10.0627 15.8631 10.1388 15.7853L17.238 8.52476C18.7462 6.98228 18.7462 4.51758 17.238 2.9751C15.6811 1.38281 13.1191 1.38281 11.5622 2.9751L10.5363 4.02427C10.3952 4.16858 10.2019 4.24993 10.0001 4.24993C9.79825 4.24993 9.60494 4.16858 9.46383 4.02427L8.43798 2.9751ZM1.68968 1.92642C3.83498 -0.267629 7.3652 -0.267629 9.51049 1.92642L10.0001 2.42715L10.4897 1.92642C12.635 -0.267627 16.1652 -0.26763 18.3105 1.92642C20.3887 4.05184 20.3887 7.44801 18.3105 9.57343L11.2113 16.8339C10.5468 17.5135 9.45335 17.5135 8.78885 16.8339L1.68968 9.57343C-0.388507 7.44801 -0.388502 4.05184 1.68968 1.92642Z"/>
       </svg>
