<svg width="22" height="22" viewBox="0 0 22 22" fill="none" xmlns="http://www.w3.org/2000/svg">
<path d="M21.4378 6.68939C21.426 5.80579 21.2606 4.93096 20.9489 4.10406C20.6787 3.40657 20.2659 2.77312 19.737 2.24419C19.208 1.71526 18.5746 1.30248 17.8771 1.03222C17.0608 0.725808 16.1985 0.560123 15.3268 0.542225C14.2044 0.492058 13.8486 0.478058 10.9996 0.478058C8.15059 0.478058 7.78543 0.478058 6.67126 0.542225C5.79995 0.560254 4.938 0.725937 4.12209 1.03222C3.42449 1.3023 2.79095 1.71501 2.262 2.24396C1.73305 2.77292 1.32033 3.40646 1.05026 4.10406C0.74323 4.91971 0.577904 5.78185 0.561427 6.65323C0.51126 7.77673 0.496094 8.13256 0.496094 10.9816C0.496094 13.8306 0.496094 14.1946 0.561427 15.3099C0.578927 16.1826 0.743427 17.0436 1.05026 17.8614C1.32078 18.5588 1.73381 19.1921 2.26294 19.7208C2.79207 20.2495 3.42567 20.6621 4.12326 20.9321C4.93693 21.2508 5.79903 21.4283 6.67243 21.4571C7.79593 21.5072 8.15176 21.5224 11.0008 21.5224C13.8498 21.5224 14.2149 21.5224 15.3291 21.4571C16.2008 21.4399 17.0632 21.2746 17.8794 20.9682C18.5767 20.6977 19.21 20.2848 19.7389 19.7559C20.2678 19.227 20.6807 18.5937 20.9513 17.8964C21.2581 17.0797 21.4226 16.2187 21.4401 15.3449C21.4903 14.2226 21.5054 13.8667 21.5054 11.0166C21.5031 8.16756 21.5031 7.80589 21.4378 6.68939ZM10.9926 16.3692C8.01293 16.3692 5.59909 13.9554 5.59909 10.9757C5.59909 7.99606 8.01293 5.58222 10.9926 5.58222C12.423 5.58222 13.7949 6.15047 14.8064 7.16195C15.8179 8.17342 16.3861 9.54528 16.3861 10.9757C16.3861 12.4062 15.8179 13.778 14.8064 14.7895C13.7949 15.801 12.423 16.3692 10.9926 16.3692ZM16.6008 6.64039C16.4356 6.64054 16.2719 6.60812 16.1193 6.54497C15.9666 6.48182 15.8279 6.38919 15.7111 6.27237C15.5943 6.15556 15.5017 6.01685 15.4385 5.86419C15.3754 5.71154 15.3429 5.54793 15.3431 5.38272C15.3431 5.21764 15.3756 5.05418 15.4388 4.90166C15.502 4.74914 15.5946 4.61056 15.7113 4.49383C15.828 4.3771 15.9666 4.28451 16.1191 4.22133C16.2716 4.15816 16.4351 4.12564 16.6002 4.12564C16.7653 4.12564 16.9287 4.15816 17.0812 4.22133C17.2338 4.28451 17.3723 4.3771 17.4891 4.49383C17.6058 4.61056 17.6984 4.74914 17.7616 4.90166C17.8247 5.05418 17.8573 5.21764 17.8573 5.38272C17.8573 6.07806 17.2949 6.64039 16.6008 6.64039Z" />
<path d="M10.9926 14.4788C12.9275 14.4788 14.4961 12.9102 14.4961 10.9753C14.4961 9.04034 12.9275 7.47176 10.9926 7.47176C9.05769 7.47176 7.48912 9.04034 7.48912 10.9753C7.48912 12.9102 9.05769 14.4788 10.9926 14.4788Z" />
</svg>
