<svg width="25" height="24" viewBox="0 0 25 24" fill="none" xmlns="http://www.w3.org/2000/svg">
<path d="M21.906 9.558C20.696 9.507 19.036 9.28 17.929 8.814C18.738 5.531 19.182 0 15.733 0C13.872 0 13.382 1.668 12.9 3.329C11.352 8.665 8.954 10.145 6.5 10.73V10H0.5V22H6.5V21.096C8.878 21.324 10.619 21.96 12.669 22.842C13.926 23.383 15.722 24 18.005 24C20.543 24 22.3 23.003 23.014 20.314C23.514 18.437 24.5 13.064 24.5 12.064C24.5 10.416 23.332 9.618 21.906 9.558ZM4.5 20H2.5V12H4.5V20ZM20.396 14.417C20.396 14.417 20.597 14.427 21.465 14.39C22.547 14.344 22.516 15.859 21.469 15.953L19.708 16.052C18.974 16.146 19.052 17.255 19.849 17.224C19.849 17.224 20.535 17.207 20.992 17.183C22.06 17.127 22.008 18.612 21.032 18.734C20.608 18.787 19.287 18.849 19.287 18.849C18.476 18.921 18.581 20.084 19.396 19.99L20.167 19.959C20.989 19.885 21.17 20.784 19.875 21.62C18.308 22.501 15.19 21.751 13.459 21.006C11.22 20.041 9.021 19.072 6.5 19V13C9.764 12.251 12.828 10.746 14.821 3.887C15.719 0.795 16.5 1.956 16.5 4.461C16.5 6.532 16.01 8.247 15.579 9.994C16.64 10.537 18.95 11.396 21.699 11.55C22.754 11.609 22.723 13.005 21.648 13.134L20.254 13.301C20.254 13.301 19.646 14.412 20.396 14.417Z" fill="white"/>
</svg>
