<svg width="20" height="20" viewBox="0 0 20 20" fill="none" xmlns="http://www.w3.org/2000/svg">
<path fill-rule="evenodd" clip-rule="evenodd"
            d="M17.6015 2.39874C15.356 0.153221 11.7153 0.153221 9.46978 2.39874L8.76267 3.10584C8.46978 3.39874 8.46978 3.87361 8.76267 4.1665C9.05556 4.4594 9.53044 4.4594 9.82333 4.1665L10.5304 3.4594C12.1902 1.79967 14.8811 1.79967 16.5408 3.4594C18.2006 5.11912 18.2006 7.81007 16.5408 9.4698L14.8547 11.156C13.3451 12.6655 10.8977 12.6655 9.38819 11.156L9.11623 10.884C8.82333 10.5911 8.34846 10.5911 8.05557 10.884C7.76267 11.1769 7.76267 11.6518 8.05557 11.9447L8.32753 12.2166C10.4228 14.312 13.82 14.312 15.9153 12.2166L17.6015 10.5305C19.847 8.28495 19.847 4.64425 17.6015 2.39874ZM5.14567 8.84429C6.65519 7.33477 9.10262 7.33477 10.6121 8.84429L10.8841 9.11626C11.177 9.40915 11.6519 9.40915 11.9448 9.11626C12.2377 8.82336 12.2377 8.34849 11.9448 8.0556L11.6728 7.78363C9.57749 5.68832 6.18032 5.68832 4.08501 7.78363L2.39883 9.46981C0.153313 11.7153 0.153313 15.356 2.39883 17.6015C4.64434 19.8471 8.28504 19.8471 10.5306 17.6015L11.2377 16.8944C11.5306 16.6015 11.5306 16.1267 11.2377 15.8338C10.9448 15.5409 10.4699 15.5409 10.177 15.8338L9.46989 16.5409C7.81017 18.2006 5.11922 18.2006 3.45949 16.5409C1.79976 14.8811 1.79976 12.1902 3.45949 10.5305L5.14567 8.84429Z" />
      </svg>
