<svg width="50" height="50" viewBox="0 0 50 50" fill="none" xmlns="http://www.w3.org/2000/svg">
  <path
     d="M 43.877112,0 H 5.9293395 C 2.6563441,0 0,2.6701075 0,5.9600615 V 44.104454 c 0,3.289954 2.6563441,5.960062 5.9293395,5.960062 H 43.877112 c 3.272996,0 5.92934,-2.670108 5.92934,-5.960062 V 5.9600615 C 49.806452,2.6701075 47.150108,0 43.877112,0 Z M 15.416283,19.072197 V 41.72043 H 8.3010753 V 19.072197 Z M 8.3010753,12.480369 c 0,-1.668818 1.4230414,-2.9442707 3.5576037,-2.9442707 2.134562,0 3.474593,1.2754527 3.557604,2.9442707 0,1.668816 -1.328172,3.01579 -3.557604,3.01579 -2.1345623,0 -3.5576037,-1.346974 -3.5576037,-3.01579 z M 41.505376,41.72043 h -7.115207 c 0,0 0,-11.038034 0,-11.920123 0,-2.384025 -1.185868,-4.768049 -4.150538,-4.81573 h -0.09487 c -2.8698,0 -4.055668,2.455546 -4.055668,4.81573 0,1.084732 0,11.920123 0,11.920123 H 18.973886 V 19.072197 h 7.115208 v 3.051551 c 0,0 2.288725,-3.051551 6.889892,-3.051551 4.707896,0 8.52639,3.254194 8.52639,9.846021 z"
     id="path250"
     style="stroke-width:1.18894" /></svg>
