<svg width="18" height="20" viewBox="0 0 18 20" fill="none" xmlns="http://www.w3.org/2000/svg">
<path fill-rule="evenodd" clip-rule="evenodd"
            d="M11.5 1.75C12.6902 1.75 13.5201 1.75112 14.1557 1.82277C14.7762 1.89272 15.1181 2.02187 15.3697 2.21496C15.5257 2.33466 15.6653 2.47429 15.785 2.63029C15.9781 2.88193 16.1073 3.22376 16.1772 3.84426C16.2489 4.47987 16.25 5.30977 16.25 6.5V13.5C16.25 14.6902 16.2489 15.5201 16.1772 16.1557C16.1073 16.7762 15.9781 17.1181 15.785 17.3697C15.6653 17.5257 15.5257 17.6653 15.3697 17.785C15.1181 17.9781 14.7762 18.1073 14.1557 18.1772C13.5201 18.2489 12.6902 18.25 11.5 18.25H11C10.5858 18.25 10.25 18.5858 10.25 19C10.25 19.4142 10.5858 19.75 11 19.75H11.5H11.5452C12.6796 19.75 13.5943 19.75 14.3238 19.6678C15.0781 19.5828 15.7266 19.4019 16.2829 18.9751C16.5429 18.7756 16.7756 18.5429 16.9751 18.2829C17.4019 17.7266 17.5828 17.0781 17.6678 16.3238C17.75 15.5943 17.75 14.6796 17.75 13.5452V13.5V6.5V6.45482C17.75 5.3204 17.75 4.40571 17.6678 3.67622C17.5828 2.92195 17.4019 2.27343 16.9751 1.71714C16.7756 1.45715 16.5429 1.22443 16.2829 1.02493C15.7266 0.598075 15.0781 0.417247 14.3238 0.332214C13.5943 0.249974 12.6796 0.249986 11.5452 0.25H11.5H11C10.5858 0.25 10.25 0.585787 10.25 1C10.25 1.41421 10.5858 1.75 11 1.75H11.5ZM6.53033 5.46967C6.23744 5.17678 5.76256 5.17678 5.46967 5.46967C5.17678 5.76256 5.17678 6.23744 5.46967 6.53033L8.18934 9.25H1C0.585786 9.25 0.25 9.58579 0.25 10C0.25 10.4142 0.585786 10.75 1 10.75H8.18934L5.46967 13.4697C5.17678 13.7626 5.17678 14.2374 5.46967 14.5303C5.76256 14.8232 6.23744 14.8232 6.53033 14.5303L10.5303 10.5303C10.8232 10.2374 10.8232 9.76256 10.5303 9.46967L6.53033 5.46967Z" />
      </svg>
