<svg width="10" height="8" viewBox="0 0 10 8" fill="none" xmlns="http://www.w3.org/2000/svg">
<path d="M0.999908 8.00037C0.724908 8.00037 0.489575 7.90253 0.293908 7.70687C0.0979085 7.51087 -9.15527e-05 7.27537 -9.15527e-05 7.00037V1.00037C-9.15527e-05 0.725366 0.0979085 0.490033 0.293908 0.294366C0.489575 0.0983661 0.724908 0.000366211 0.999908 0.000366211H8.99991C9.27491 0.000366211 9.51041 0.0983661 9.70641 0.294366C9.90207 0.490033 9.99991 0.725366 9.99991 1.00037V7.00037C9.99991 7.27537 9.90207 7.51087 9.70641 7.70687C9.51041 7.90253 9.27491 8.00037 8.99991 8.00037H0.999908ZM4.99991 4.50037L0.999908 2.00037V7.00037H8.99991V2.00037L4.99991 4.50037ZM4.99991 3.50037L8.99991 1.00037H0.999908L4.99991 3.50037ZM0.999908 2.00037V1.00037V7.00037V2.00037Z" fill="#9E9E9E"/>
</svg>
