<svg width="19.500124" height="19.500124" viewBox="0 0 19.500124 19.500124" fill="none" xmlns="http://www.w3.org/2000/svg">
  <path
     fill-rule="evenodd"
     clip-rule="evenodd"
     d="m 14.1768,2.3099222e-5 0.0732,2.4e-5 h 2 l 0.0733,-2.4e-5 C 16.716,-1.7190078e-4 17.019,-3.2190078e-4 17.2865,0.0528881 c 1.0909,0.216992 1.9437,1.069762 2.1607,2.160662 0.0532,0.2675 0.0531,0.5705 0.0529,0.96322 l -10e-5,0.07328 10e-5,0.07327 c 2e-4,0.39273 3e-4,0.69572 -0.0529,0.96323 -0.217,1.09089 -1.0698,1.94366 -2.1607,2.16066 -0.2675,0.05321 -0.5705,0.05306 -0.9632,0.05286 l -0.0733,-2e-5 h -2 l -0.0732,2e-5 c -0.3928,2e-4 -0.6957,3.5e-4 -0.9633,-0.05286 -1.0908,-0.217 -1.9436,-1.06977 -2.1606,-2.16066 -0.0532,-0.26751 -0.0531,-0.5705 -0.0529,-0.96323 v -0.07327 -0.07328 c -2e-4,-0.39272 -3e-4,-0.69572 0.0529,-0.96322 0.217,-1.0909 1.0698,-1.94367 2.1606,-2.160662 0.2676,-0.0532100008 0.5705,-0.0530600008 0.9633,-0.05286500078 z m -9.9267499,2.4e-5 h -0.03835 c -0.66958,-1.7e-5 -1.2283,-3.1e-5 -1.68063,0.04598400078 -0.47348,0.048165 -0.91284,0.152879 -1.30884,0.417479 -0.30027,0.20063 -0.558088,0.45845 -0.758724,0.75872 -0.264596,0.396 -0.36931,0.83536 -0.417475,1.30884 -0.04601500078,0.45233 -0.04600100078,1.01105 -0.04598400078,1.68063 v 0.03835 2 0.03834 c -1.7e-5,0.66958 -3.1e-5,1.22831 0.04598400078,1.68064 0.048165,0.47347 0.152879,0.91284 0.417475,1.30887 0.200636,0.3002 0.458454,0.5581 0.758724,0.7586999 0.396,0.2646 0.83536,0.3693 1.30884,0.4175 0.45233,0.046 1.01105,0.046 1.68062,0.0459 h 0.03836 0.03835 c 0.66958,10e-5 1.2283,10e-5 1.68063,-0.0459 0.47347,-0.0482 0.91284,-0.1529 1.30884,-0.4175 0.30027,-0.2005999 0.55808,-0.4584999 0.75872,-0.7586999 0.2646,-0.39603 0.36931,-0.8354 0.41747,-1.30887 0.04602,-0.45234 0.046,-1.01106 0.04599,-1.68064 v -0.03834 -2 -0.03834 c 1e-5,-0.66958 3e-5,-1.22831 -0.04599,-1.68064 -0.04816,-0.47348 -0.15287,-0.91284 -0.41747,-1.30884 -0.20064,-0.30027 -0.45845,-0.55809 -0.75872,-0.75872 -0.396,-0.2646 -0.83537,-0.369314 -1.30884,-0.417479 C 5.5167001,1.6099222e-5 4.9579701,3.0099222e-5 4.2883901,4.7099222e-5 Z M 3.1767701,13 h 0.07328 2 0.07327 c 0.39273,-2e-4 0.69572,-3e-4 0.96323,0.0529 1.09089,0.217 1.94366,1.0698 2.16066,2.1606 0.05321,0.2676 0.05306,0.5705 0.05286,0.9633 l -2e-5,0.0732 2e-5,0.0733 c 2e-4,0.3927 3.5e-4,0.6957 -0.05286,0.9632 -0.217,1.0909 -1.06977,1.9437 -2.16066,2.1607 -0.26751,0.0532 -0.5705,0.0531 -0.96323,0.0529 L 5.2500501,19.5 h -2 l -0.07328,10e-5 c -0.39272,2e-4 -0.69572,3e-4 -0.96322,-0.0529 -1.0909,-0.217 -1.943669,-1.0698 -2.160662,-2.1607 C -3.2190078e-4,17.019 -1.7190078e-4,16.716 2.3099222e-5,16.3233 l 2.4e-5,-0.0733 -2.4e-5,-0.0732 C -1.7190078e-4,15.784 -3.2190078e-4,15.4811 0.0528881,15.2135 c 0.216993,-1.0908 1.069762,-1.9436 2.160662,-2.1606 0.2675,-0.0532 0.5705,-0.0531 0.96322,-0.0529 z M 15.2117,9.0000501 h 0.0383 0.0384 c 0.6696,-2e-5 1.2283,-3e-5 1.6806,0.04598 0.4735,0.04817 0.9129,0.15288 1.3089,0.41747 0.3002,0.2006 0.5581,0.4585 0.7587,0.7586999 0.2646,0.396 0.3693,0.8354 0.4175,1.3089 0.046,0.4523 0.046,1.011 0.0459,1.6806 v 0.0383 2 0.0384 c 10e-5,0.6696 10e-5,1.2283 -0.0459,1.6806 -0.0482,0.4735 -0.1529,0.9129 -0.4175,1.3089 -0.2006,0.3002 -0.4585,0.5581 -0.7587,0.7587 -0.396,0.2646 -0.8354,0.3693 -1.3089,0.4175 -0.4523,0.046 -1.011,0.046 -1.6806,0.0459 H 15.25 15.2117 c -0.6696,10e-5 -1.2283,10e-5 -1.6806,-0.0459 C 13.0576,19.4059 12.6182,19.3012 12.2222,19.0366 11.922,18.836 11.6641,18.5781 11.4635,18.2779 11.1989,17.8819 11.0942,17.4425 11.046,16.969 11,16.5167 11,15.958 11,15.2884 v -0.0384 -2 -0.0383 c 0,-0.6696 0,-1.2283 0.046,-1.6806 0.0482,-0.4735 0.1529,-0.9129 0.4175,-1.3089 0.2006,-0.3001999 0.4585,-0.5580999 0.7587,-0.7586999 0.396,-0.26459 0.8354,-0.3693 1.3089,-0.41747 0.4523,-0.04601 1.011,-0.046 1.6806,-0.04598 z" />
</svg>
