<svg width="20" height="21" viewBox="0 0 20 21" fill="none" xmlns="http://www.w3.org/2000/svg">
<path fill-rule="evenodd" clip-rule="evenodd"
            d="M14.4268 0.750023L14.5 0.750047H16.5L16.5733 0.750023C16.966 0.749828 17.269 0.749678 17.5365 0.802888C18.6274 1.01988 19.4802 1.87265 19.6972 2.96355C19.7504 3.23105 19.7503 3.53405 19.7501 3.92677L19.75 4.00005L19.7501 4.07332C19.7503 4.46605 19.7504 4.76904 19.6972 5.03655C19.4802 6.12744 18.6274 6.98021 17.5365 7.19721C17.269 7.25042 16.966 7.25027 16.5733 7.25007L16.5 7.25005H14.5L14.4268 7.25007C14.034 7.25027 13.7311 7.25042 13.4635 7.19721C12.3727 6.98021 11.5199 6.12744 11.3029 5.03655C11.2497 4.76904 11.2498 4.46605 11.25 4.07332V4.00005V3.92677C11.2498 3.53405 11.2497 3.23105 11.3029 2.96355C11.5199 1.87265 12.3727 1.01988 13.4635 0.802888C13.7311 0.749678 14.034 0.749828 14.4268 0.750023ZM4.50005 0.750047H4.4617C3.79212 0.75003 3.2334 0.750016 2.78107 0.796031C2.30759 0.844196 1.86823 0.94891 1.47223 1.21351C1.17196 1.41414 0.914142 1.67196 0.713506 1.97223C0.44891 2.36823 0.344196 2.80759 0.296031 3.28107C0.250016 3.7334 0.25003 4.29212 0.250047 4.9617V5.00005V7.00005V7.03839C0.25003 7.70797 0.250016 8.2667 0.296031 8.71903C0.344196 9.1925 0.44891 9.63187 0.713506 10.0279C0.914142 10.3281 1.17196 10.586 1.47223 10.7866C1.86823 11.0512 2.30759 11.1559 2.78107 11.2041C3.2334 11.2501 3.79212 11.2501 4.46169 11.25H4.50005H4.5384C5.20798 11.2501 5.7667 11.2501 6.21903 11.2041C6.6925 11.1559 7.13187 11.0512 7.52787 10.7866C7.82814 10.586 8.08595 10.3281 8.28659 10.0279C8.55119 9.63187 8.6559 9.1925 8.70406 8.71903C8.75008 8.26669 8.75006 7.70797 8.75005 7.03839V7.00005V5.00005V4.96171C8.75006 4.29213 8.75008 3.7334 8.70406 3.28107C8.6559 2.80759 8.55119 2.36823 8.28659 1.97223C8.08595 1.67196 7.82814 1.41414 7.52787 1.21351C7.13187 0.94891 6.6925 0.844196 6.21903 0.796031C5.7667 0.750016 5.20797 0.75003 4.53839 0.750047H4.50005ZM3.42677 13.75H3.50005H5.50005H5.57332C5.96605 13.7498 6.26904 13.7497 6.53655 13.8029C7.62744 14.0199 8.48021 14.8727 8.69721 15.9635C8.75042 16.2311 8.75027 16.534 8.75007 16.9268L8.75005 17L8.75007 17.0733C8.75027 17.466 8.75042 17.769 8.69721 18.0365C8.48021 19.1274 7.62744 19.9802 6.53655 20.1972C6.26904 20.2504 5.96605 20.2503 5.57332 20.2501L5.50005 20.25H3.50005L3.42677 20.2501C3.03405 20.2503 2.73105 20.2504 2.46355 20.1972C1.37265 19.9802 0.519881 19.1274 0.302888 18.0365C0.249678 17.769 0.249828 17.466 0.250023 17.0733L0.250047 17L0.250023 16.9268C0.249828 16.534 0.249678 16.2311 0.302888 15.9635C0.519881 14.8727 1.37265 14.0199 2.46355 13.8029C2.73105 13.7497 3.03405 13.7498 3.42677 13.75ZM15.4617 9.75005H15.5H15.5384C16.208 9.75003 16.7667 9.75002 17.219 9.79603C17.6925 9.8442 18.1319 9.94891 18.5279 10.2135C18.8281 10.4141 19.086 10.672 19.2866 10.9722C19.5512 11.3682 19.6559 11.8076 19.7041 12.2811C19.7501 12.7334 19.7501 13.2921 19.75 13.9617V14V16V16.0384C19.7501 16.708 19.7501 17.2667 19.7041 17.719C19.6559 18.1925 19.5512 18.6319 19.2866 19.0279C19.086 19.3281 18.8281 19.586 18.5279 19.7866C18.1319 20.0512 17.6925 20.1559 17.219 20.2041C16.7667 20.2501 16.208 20.2501 15.5384 20.25H15.5H15.4617C14.7921 20.2501 14.2334 20.2501 13.7811 20.2041C13.3076 20.1559 12.8682 20.0512 12.4722 19.7866C12.172 19.586 11.9141 19.3281 11.7135 19.0279C11.4489 18.6319 11.3442 18.1925 11.296 17.719C11.25 17.2667 11.25 16.708 11.25 16.0384V16V14V13.9617C11.25 13.2921 11.25 12.7334 11.296 12.2811C11.3442 11.8076 11.4489 11.3682 11.7135 10.9722C11.9141 10.672 12.172 10.4141 12.4722 10.2135C12.8682 9.94891 13.3076 9.8442 13.7811 9.79603C14.2334 9.75002 14.7921 9.75003 15.4617 9.75005Z" />
     
</svg>
