<svg width="10" height="6" viewBox="0 0 10 6" fill="none" xmlns="http://www.w3.org/2000/svg">
<path fill-rule="evenodd" clip-rule="evenodd" d="M5.45323 2.08017C5.1705 1.05072 4.4405 0.269589 3.56175 0.0561682C3.26637 -0.0155938 2.78307 -0.0189133 2.51396 0.0489286C1.64173 0.268862 0.893517 1.06201 0.625028 2.05134C0.359199 3.03088 0.523264 4.09795 1.06003 4.88082C1.46437 5.47053 2.03254 5.85805 2.66298 5.97416C2.96204 6.02923 3.42903 5.99392 3.71676 5.89446C4.16433 5.73981 4.52534 5.48175 4.85371 5.08175C5.31861 4.5155 5.53189 3.91952 5.55577 3.11999C5.56956 2.65955 5.54554 2.41625 5.45323 2.08017ZM8.31502 2.25104C8.19394 1.29152 7.8307 0.489111 7.41282 0.258113C7.27081 0.179618 7.06526 0.146487 6.94459 0.182684C6.63744 0.274805 6.37849 0.575668 6.16612 1.08714C5.93199 1.65109 5.83168 2.22471 5.83168 2.99974C5.83168 3.77748 5.93941 4.3752 6.1835 4.95173C6.60748 5.9532 7.30356 6.11386 7.81028 5.3272C8.251 4.64305 8.45781 3.38264 8.31502 2.25104ZM9.41912 1.52666C9.34965 0.987145 9.23155 0.562612 9.13373 0.501029C9.02015 0.429489 8.93106 0.513833 8.84378 0.775527C8.68654 1.24704 8.61387 2.1023 8.63273 3.2595C8.64984 4.30852 8.72453 4.93861 8.87368 5.29169C8.98385 5.55253 9.06066 5.58955 9.17116 5.435C9.46441 5.02491 9.59812 2.91726 9.41912 1.52666Z" fill="#9E9E9E"/>
</svg>
