<svg width="13" height="13" viewBox="0 0 13 13" fill="none" xmlns="http://www.w3.org/2000/svg">
<path d="M1 12V1.5C1 1.22386 1.22386 1 1.5 1H11.5C11.7761 1 12 1.22386 12 1.5V8.75C12 9.02614 11.7761 9.25 11.5 9.25H3.86957L1 12Z" fill="#AB0E36"/>
<path d="M1 12V1.5C1 1.22386 1.22386 1 1.5 1H11.5C11.7761 1 12 1.22386 12 1.5V8.75C12 9.02614 11.7761 9.25 11.5 9.25H3.86957L1 12Z" stroke="white" stroke-width="0.6"/>
<path d="M1 12V1.5C1 1.22386 1.22386 1 1.5 1H11.5C11.7761 1 12 1.22386 12 1.5V8.75C12 9.02614 11.7761 9.25 11.5 9.25H3.86957L1 12Z" stroke="#AB0E36" stroke-width="0.6"/>
<path d="M4.21094 4.20898H9.71094" stroke="white" stroke-width="0.5"/>
<path d="M4.21094 4.20898H9.71094" stroke="black" stroke-width="0.5"/>
<path d="M4.21094 6.04102H7.8776" stroke="white" stroke-width="0.5"/>
<path d="M4.21094 6.04102H7.8776" stroke="black" stroke-width="0.5"/>
</svg>
