<svg width="20" height="21" viewBox="0 0 20 21" fill="none" xmlns="http://www.w3.org/2000/svg">
<path fill-rule="evenodd" clip-rule="evenodd"
            d="M9.96646 2.5L10 2.5L10.0335 2.5C11.6489 2.49999 12.9059 2.49999 13.8954 2.61695C14.9028 2.73603 15.6977 2.98225 16.3548 3.52145C16.5826 3.70845 16.7916 3.91738 16.9785 4.14523C17.5178 4.80225 17.764 5.59723 17.883 6.6046C18 7.59409 18 8.85112 18 10.4665V10.5V12.3096L18 12.358C18 13.0006 18.0001 13.3837 17.9382 13.7532C17.8253 14.427 17.5605 15.0662 17.1639 15.6224C16.9464 15.9275 16.6755 16.1983 16.2211 16.6527L16.1869 16.6869L16.1527 16.7211C15.6983 17.1755 15.4275 17.4464 15.1224 17.6639C14.5662 18.0605 13.927 18.3253 13.2532 18.4382C12.8837 18.5001 12.5006 18.5 11.858 18.5L11.8096 18.5H10H9.96646C8.35112 18.5 7.09409 18.5 6.1046 18.383C5.09723 18.264 4.30225 18.0178 3.64523 17.4785C3.41738 17.2916 3.20845 17.0826 3.02145 16.8548C2.48225 16.1977 2.23603 15.4028 2.11695 14.3954C1.99999 13.4059 1.99999 12.1489 2 10.5335L2 10.5L2 10.4665C1.99999 8.85112 1.99999 7.59409 2.11695 6.6046C2.23603 5.59723 2.48225 4.80225 3.02145 4.14523C3.20845 3.91738 3.41738 3.70845 3.64523 3.52145C4.30225 2.98225 5.09723 2.73603 6.1046 2.61695C7.09409 2.49999 8.35112 2.49999 9.96646 2.5ZM6.22198 3.61004C5.30902 3.71795 4.72895 3.92571 4.27962 4.29446C4.1024 4.4399 3.9399 4.6024 3.79446 4.77962C3.42571 5.22895 3.21795 5.80902 3.11004 6.72198C3.00082 7.64598 3 8.84401 3 10.5C3 12.156 3.00082 13.354 3.11004 14.278C3.21795 15.191 3.42571 15.771 3.79446 16.2204C3.9399 16.3976 4.1024 16.5601 4.27962 16.7055C4.72895 17.0743 5.30902 17.282 6.22198 17.39C7.14598 17.4992 8.34401 17.5 10 17.5H11.8096C12.311 17.5 12.6053 17.4992 12.8333 17.482C12.8334 16.7192 12.8351 16.1008 12.8935 15.6063C12.9559 15.079 13.0886 14.6278 13.4008 14.2473C13.5047 14.1207 13.6208 14.0047 13.7474 13.9008C14.1278 13.5886 14.579 13.4558 15.1063 13.3935C15.6008 13.3351 16.2192 13.3334 16.982 13.3333C16.9992 13.1053 17 12.811 17 12.3096V10.5C17 8.84401 16.9992 7.64598 16.89 6.72198C16.782 5.80902 16.5743 5.22895 16.2055 4.77962C16.0601 4.6024 15.8976 4.4399 15.7204 4.29446C15.271 3.92571 14.691 3.71795 13.778 3.61004C12.854 3.50082 11.656 3.5 10 3.5C8.34401 3.5 7.14598 3.50082 6.22198 3.61004ZM16.74 14.3335C16.0854 14.3346 15.604 14.3416 15.2237 14.3866C14.7908 14.4378 14.5545 14.532 14.3817 14.6738C14.3058 14.7361 14.2361 14.8058 14.1738 14.8817C14.0321 15.0545 13.9378 15.2908 13.8866 15.7237C13.8417 16.104 13.8346 16.5854 13.8335 17.24C14.0831 17.1381 14.3209 17.0072 14.5419 16.8497C14.771 16.6863 14.9811 16.4784 15.4798 15.9798C15.9784 15.4811 16.1863 15.271 16.3497 15.0419C16.5073 14.8209 16.6381 14.5831 16.74 14.3335ZM5.33333 6.33333C5.33333 6.05719 5.55719 5.83333 5.83333 5.83333H12.5C12.7761 5.83333 13 6.05719 13 6.33333C13 6.60948 12.7761 6.83333 12.5 6.83333H5.83333C5.55719 6.83333 5.33333 6.60948 5.33333 6.33333ZM5.83333 9.16667C5.55719 9.16667 5.33333 9.39052 5.33333 9.66667C5.33333 9.94281 5.55719 10.1667 5.83333 10.1667H10.8333C11.1095 10.1667 11.3333 9.94281 11.3333 9.66667C11.3333 9.39052 11.1095 9.16667 10.8333 9.16667H5.83333ZM5.33333 13C5.33333 12.7239 5.55719 12.5 5.83333 12.5H7.5C7.77614 12.5 8 12.7239 8 13C8 13.2761 7.77614 13.5 7.5 13.5H5.83333C5.55719 13.5 5.33333 13.2761 5.33333 13Z" />
</svg>
