<svg width="16" height="16" viewBox="0 0 16 16" fill="none" xmlns="http://www.w3.org/2000/svg">

  <path
     fill-rule="evenodd"
     clip-rule="evenodd"
     d="m 7.9664602,1.8239796e-7 h 0.03354 0.0335 C 9.6489002,-9.817602e-6 10.9059,-9.817602e-6 11.8954,0.11695018 c 1.0074,0.11908 1.8023,0.3653 2.4594,0.90450002 0.2278,0.187 0.4368,0.39593 0.6237,0.62378 0.5393,0.65702 0.7855,1.452 0.9045,2.45937 0.117,0.98949 0.117,2.24652 0.117,3.8619 v 0.0335 1.8096 0.0484 C 16,10.5006 16.0001,10.8837 15.9382,11.2532 c -0.1129,0.6738 -0.3777,1.313 -0.7743,1.8692 -0.2175,0.3051 -0.4884,0.5759 -0.9428,1.0303 l -0.0342,0.0342 -0.0342,0.0342 c -0.4544,0.4544 -0.7252,0.7253 -1.0303,0.9428 -0.5562,0.3966 -1.1954,0.6614 -1.8692,0.7743 C 10.8837,16.0001 10.5006,16 9.8580002,16 h -0.0484 -1.8096 -0.03354 c -1.61534,0 -2.87237,0 -3.86186,-0.117 -1.00737,-0.119 -1.80235,-0.3652 -2.45937,-0.9045 -0.22785,-0.1869 -0.43678,-0.3959 -0.62378,-0.6237 C 0.48225018,13.6977 0.23603018,12.9028 0.11695018,11.8954 -9.817602e-6,10.9059 -9.817602e-6,9.6489002 1.8239796e-7,8.0335002 v -0.0335 -0.0335 C -9.817602e-6,6.3511202 -9.817602e-6,5.0940902 0.11695018,4.1046002 c 0.11908,-1.00737 0.3653,-1.80235 0.90450002,-2.45937 0.187,-0.22785 0.39593,-0.43678 0.62378,-0.62378 0.65702,-0.53920002 1.452,-0.78542002 2.45937,-0.90450002 C 5.0940902,-9.817602e-6 6.3511202,-9.817602e-6 7.9664602,1.8239796e-7 Z M 4.2219802,1.1100402 c -0.91296,0.10791 -1.49303,0.31567 -1.94236,0.68442 -0.17722,0.14544 -0.33972,0.30794 -0.48516,0.48516 -0.36875,0.44933 -0.57651,1.0294 -0.68442,1.94236 -0.10922,0.924 -0.11004,2.12203 -0.11004,3.77802 0,1.656 8.2e-4,2.8539998 0.11004,3.7779998 0.10791,0.913 0.31567,1.493 0.68442,1.9424 0.14544,0.1772 0.30794,0.3397 0.48516,0.4851 0.44933,0.3688 1.0294,0.5765 1.94236,0.6845 0.924,0.1092 2.12203,0.11 3.77802,0.11 h 1.8096 C 10.311,15 10.6053,14.9992 10.8333,14.982 c 10e-5,-0.7628 0.0018,-1.3812 0.0602,-1.8757 0.0624,-0.5273 0.1951,-0.9785 0.5073,-1.359 0.1039,-0.1266 0.22,-0.2426 0.3466,-0.3465 0.3804,-0.3122 0.8316,-0.445 1.3589,-0.5073 0.4945,-0.0584 1.1129,-0.0601 1.8757,-0.0602 C 14.9992,10.6053 15,10.311 15,9.8096002 v -1.8096 c 0,-1.65599 -8e-4,-2.85402 -0.11,-3.77802 -0.108,-0.91296 -0.3157,-1.49303 -0.6845,-1.94236 -0.1454,-0.17722 -0.3079,-0.33972 -0.4851,-0.48516 -0.4494,-0.36875 -1.0294,-0.57651 -1.9424,-0.68442 -0.924,-0.10922 -2.1219998,-0.11004 -3.7779998,-0.11004 -1.65599,0 -2.85402,8.2e-4 -3.77802,0.11004 z M 14.74,11.8335 c -0.6546,0.0011 -1.136,0.0081 -1.5163,0.0531 -0.4329,0.0512 -0.6692,0.1454 -0.842,0.2872 -0.0759,0.0623 -0.1456,0.132 -0.2079,0.2079 -0.1417,0.1728 -0.236,0.4091 -0.2872,0.842 -0.0449,0.3803 -0.052,0.8617 -0.0531,1.5163 0.2496,-0.1019 0.4874,-0.2328 0.7084,-0.3903 0.2291,-0.1634 0.4392,-0.3713 0.9379,-0.8699 0.4986,-0.4987 0.7065,-0.7088 0.8699,-0.9379 0.1576,-0.221 0.2884,-0.4588 0.3903,-0.7084 z M 3.3333302,3.8333302 c 0,-0.27614 0.22386,-0.5 0.5,-0.5 H 10.5 c 0.2761,0 0.5,0.22386 0.5,0.5 0,0.27615 -0.2239,0.5 -0.5,0.5 H 3.8333302 c -0.27614,0 -0.5,-0.22385 -0.5,-0.5 z m 0.5,2.83334 c -0.27614,0 -0.5,0.22385 -0.5,0.5 0,0.27614 0.22386,0.50003 0.5,0.50003 h 4.99997 c 0.2762,0 0.5,-0.22389 0.5,-0.50003 0,-0.27615 -0.2238,-0.5 -0.5,-0.5 z m -0.5,3.8333298 c 0,-0.2761 0.22386,-0.5 0.5,-0.5 h 1.66667 c 0.27614,0 0.5,0.2239 0.5,0.5 0,0.2761 -0.22386,0.5 -0.5,0.5 h -1.66667 c -0.27614,0 -0.5,-0.2239 -0.5,-0.5 z"/>
</svg>
