<?xml version="1.0" encoding="UTF-8" standalone="no"?>
<svg
   width="9.0000134"
   height="10"
   viewBox="0 0 9.0000134 10"
   fill="none"
   version="1.1"
   id="svg4"
   sodipodi:docname="notifN-icon.svg"
   inkscape:version="1.2.1 (9c6d41e410, 2022-07-14)"
   xmlns:inkscape="http://www.inkscape.org/namespaces/inkscape"
   xmlns:sodipodi="http://sodipodi.sourceforge.net/DTD/sodipodi-0.dtd"
   xmlns="http://www.w3.org/2000/svg"
   xmlns:svg="http://www.w3.org/2000/svg">
  <defs
     id="defs8" />
  <sodipodi:namedview
     id="namedview6"
     pagecolor="#ffffff"
     bordercolor="#000000"
     borderopacity="0.25"
     inkscape:showpageshadow="2"
     inkscape:pageopacity="0.0"
     inkscape:pagecheckerboard="0"
     inkscape:deskcolor="#d1d1d1"
     showgrid="false"
     inkscape:zoom="73.090909"
     inkscape:cx="4.159204"
     inkscape:cy="5.0006219"
     inkscape:window-width="1920"
     inkscape:window-height="991"
     inkscape:window-x="-9"
     inkscape:window-y="-9"
     inkscape:window-maximized="1"
     inkscape:current-layer="svg4" />
  <path
     fill-rule="evenodd"
     clip-rule="evenodd"
     d="m 4.8575499,1.609 c -0.11897,-0.02227 -0.23856,-0.034 -0.35755,-0.034 -0.11899,0 -0.23858,0.01173 -0.35755,0.034 -0.05382,0.01008 -0.10752,0.02231 -0.16098,0.03659 -0.72413,0.19346 -1.40479,0.76267 -1.76491,1.43488 -0.00925,0.01728 -0.0183,0.03463 -0.02713,0.05204 -0.13574,0.2677 -0.22029,0.55038 -0.23655,0.83123 -0.00191,0.03295 -0.00288,0.06588 -0.00288,0.09876 -0.15001,0.0039 -0.15121,0.0074 0,0.01135 -1.8e-4,0.13299 -0.00368,0.26307 -0.01019,0.39014 -0.01083,0.21129 -0.02998,0.41425 -0.05601,0.60838 -0.07319,0.54592 -0.20076,1.02209 -0.3505,1.41763 -0.09196,0.24292 -0.19229,0.45543 -0.29353,0.635 -0.0806,0.14296 -0.16178,0.26505 -0.23977,0.365 h 6.995 c -0.07801,-0.09993 -0.15904,-0.22202 -0.23938,-0.365 -0.1009,-0.17956 -0.20072,-0.39207 -0.29213,-0.635 -0.14882,-0.39552 -0.27534,-0.87168 -0.34789,-1.41762 -0.02551,-0.19195 -0.04435,-0.39253 -0.05514,-0.60126 -0.00669,-0.12933 -0.01028,-0.26179 -0.01046,-0.39727 0.15,-0.00395 0.15,-0.00745 0,-0.01135 0,-0.03312 -9.8e-4,-0.06629 -0.00292,-0.09949 -0.01637,-0.28066 -0.10093,-0.56315 -0.2366,-0.83066 -0.00879,-0.01734 -0.0178,-0.03462 -0.02702,-0.05183 -0.36011,-0.67223 -1.0408,-1.24147 -1.76493,-1.43492 -0.05346,-0.01429 -0.10716,-0.02652 -0.16098,-0.0366 z m 2.71858,1.54851 c 0.08885,0.28476 0.13652,0.58828 0.13652,0.90499 0,0.0035 0,0.00699 1e-5,0.01047 3.7e-4,0.29535 0.01665,0.56026 0.04538,0.7986 0.14471,1.20077 0.60525,1.72681 0.93873,2.07061 0.01848,0.01904 0.03657,0.03753 0.05419,0.05555 0.02648,0.02707 0.05191,0.05306 0.07604,0.07827 0.12055,0.12575 0.174,0.27655 0.173,0.424 -0.002,0.3203 -0.26075,0.625 -0.6449,0.625 h -7.71022 C 0.2607689,8.125 0.0022239,7.8203 1.3904806e-5,7.5 -9.9109519e-4,7.35255 0.0524439,7.20195 0.1729789,7.076 c 0.024116,-0.0252 0.049538,-0.05118 0.07601,-0.07824 0.016913,-0.01729 0.034254,-0.03501 0.051958,-0.05325 0.333653,-0.34373 0.795883,-0.86937 0.940963,-2.07265 0.02874,-0.23841 0.04504,-0.50342 0.04541,-0.79889 1e-5,-0.00349 1e-5,-0.00698 1e-5,-0.01047 0,-0.31678 0.04769,-0.62037 0.13658,-0.90519 0.33695,-1.07962 1.26593,-1.88945 2.43364,-2.12528 V 0.625 c 0,-0.345115 0.28765,-0.625 0.64245,-0.625 0.3548,0 0.64245,0.279885 0.64245,0.625 v 0.40703 c 1.16777,0.23585 2.09678,1.04576 2.43368,2.12548 z M 3.7288499,9.75 c 0.21483,0.157 0.48185,0.25 0.77115,0.25 0.2893,0 0.55632,-0.093 0.77114,-0.25 0.21236,-0.1552 0.3737,-0.37287 0.45512,-0.625 0.03823,-0.11838 0.05884,-0.24434 0.05884,-0.375 h -2.57021 c 0,0.13066 0.02061,0.25662 0.05884,0.375 0.08142,0.25213 0.24277,0.4698 0.45512,0.625 z"
     fill="#fff8f8"
     id="path2" />
</svg>
