<svg width="20" height="20" viewBox="0 0 20 20" fill="none" xmlns="http://www.w3.org/2000/svg">
<path fill-rule="evenodd" clip-rule="evenodd" d="M15.5 0.250001H15.4617C14.7921 0.249983 14.2334 0.24997 13.781 0.295984C13.3075 0.344149 12.8682 0.448863 12.4722 0.713459C12.1719 0.914095 11.9141 1.17191 11.7135 1.47218C11.4489 1.86818 11.3441 2.30755 11.296 2.78102C11.25 3.23335 11.25 3.79208 11.25 4.46165L11.25 4.5L11.25 4.53835C11.25 5.20792 11.25 5.76665 11.296 6.21898C11.3441 6.69245 11.4489 7.13182 11.7135 7.52782C11.9141 7.82809 12.1719 8.08591 12.4722 8.28654C12.8682 8.55114 13.3075 8.65585 13.781 8.70402C14.2334 8.75003 14.7921 8.75002 15.4617 8.75L15.5 8.75L15.5383 8.75C16.2079 8.75002 16.7666 8.75003 17.219 8.70402C17.6925 8.65585 18.1318 8.55114 18.5278 8.28654C18.8281 8.08591 19.0859 7.82809 19.2865 7.52782C19.5511 7.13182 19.6559 6.69245 19.704 6.21898C19.75 5.76665 19.75 5.20792 19.75 4.53834V4.5V4.46166C19.75 3.79208 19.75 3.23335 19.704 2.78102C19.6559 2.30755 19.5511 1.86818 19.2865 1.47218C19.0859 1.17191 18.8281 0.914095 18.5278 0.713459C18.1318 0.448863 17.6925 0.344149 17.219 0.295984C16.7666 0.24997 16.2079 0.249983 15.5383 0.250001H15.5ZM13.3055 1.96066C13.414 1.8882 13.578 1.82438 13.9328 1.78828C14.3002 1.75091 14.7822 1.75 15.5 1.75C16.2178 1.75 16.6998 1.75091 17.0672 1.78828C17.422 1.82438 17.586 1.8882 17.6945 1.96066C17.8309 2.05186 17.9481 2.16905 18.0393 2.30554C18.1118 2.41399 18.1756 2.57796 18.2117 2.93283C18.2491 3.30023 18.25 3.78216 18.25 4.5C18.25 5.21784 18.2491 5.69977 18.2117 6.06717C18.1756 6.42204 18.1118 6.58601 18.0393 6.69446C17.9481 6.83095 17.8309 6.94814 17.6945 7.03934C17.586 7.1118 17.422 7.17562 17.0672 7.21172C16.6998 7.24909 16.2178 7.25 15.5 7.25C14.7822 7.25 14.3002 7.24909 13.9328 7.21172C13.578 7.17562 13.414 7.1118 13.3055 7.03934C13.1691 6.94814 13.0519 6.83095 12.9607 6.69446C12.8882 6.58601 12.8244 6.42204 12.7883 6.06717C12.7509 5.69977 12.75 5.21784 12.75 4.5C12.75 3.78216 12.7509 3.30023 12.7883 2.93283C12.8244 2.57796 12.8882 2.41399 12.9607 2.30554C13.0519 2.16905 13.1691 2.05186 13.3055 1.96066ZM4.5 0.250001H4.46166H4.46165C3.79207 0.249984 3.23335 0.249971 2.78102 0.295985C2.30755 0.34415 1.86818 0.448864 1.47218 0.71346C1.17191 0.914096 0.914096 1.17191 0.71346 1.47218C0.448864 1.86818 0.34415 2.30755 0.295985 2.78102C0.249971 3.23335 0.249984 3.79207 0.250001 4.46165V4.46166V4.5V4.53835V4.53835C0.249984 5.20793 0.249971 5.76665 0.295985 6.21898C0.34415 6.69245 0.448864 7.13182 0.71346 7.52782C0.914096 7.82809 1.17191 8.08591 1.47218 8.28654C1.86818 8.55114 2.30755 8.65585 2.78102 8.70402C3.23335 8.75003 3.79208 8.75002 4.46166 8.75L4.5 8.75L4.53834 8.75C5.20792 8.75002 5.76665 8.75003 6.21898 8.70402C6.69245 8.65585 7.13182 8.55114 7.52782 8.28654C7.82809 8.08591 8.08591 7.82809 8.28654 7.52782C8.55114 7.13182 8.65585 6.69245 8.70402 6.21898C8.75003 5.76665 8.75002 5.20792 8.75 4.53834L8.75 4.5L8.75 4.46166C8.75002 3.79208 8.75003 3.23335 8.70402 2.78102C8.65585 2.30755 8.55114 1.86818 8.28654 1.47218C8.08591 1.17191 7.82809 0.914096 7.52782 0.71346C7.13182 0.448864 6.69245 0.34415 6.21898 0.295985C5.76665 0.249971 5.20793 0.249984 4.53835 0.250001H4.53835H4.5ZM2.30554 1.96066C2.41399 1.8882 2.57796 1.82438 2.93283 1.78828C3.30023 1.75091 3.78216 1.75 4.5 1.75C5.21784 1.75 5.69977 1.75091 6.06717 1.78828C6.42204 1.82438 6.58601 1.8882 6.69446 1.96066C6.83095 2.05186 6.94814 2.16905 7.03934 2.30554C7.1118 2.41399 7.17562 2.57796 7.21172 2.93283C7.24909 3.30023 7.25 3.78216 7.25 4.5C7.25 5.21784 7.24909 5.69977 7.21172 6.06717C7.17562 6.42204 7.1118 6.58601 7.03934 6.69446C6.94814 6.83095 6.83095 6.94814 6.69446 7.03934C6.58601 7.1118 6.42204 7.17562 6.06717 7.21172C5.69977 7.24909 5.21784 7.25 4.5 7.25C3.78216 7.25 3.30023 7.24909 2.93283 7.21172C2.57796 7.17562 2.41399 7.1118 2.30554 7.03934C2.16905 6.94814 2.05186 6.83095 1.96066 6.69446C1.8882 6.58601 1.82438 6.42204 1.78828 6.06717C1.75091 5.69977 1.75 5.21784 1.75 4.5C1.75 3.78216 1.75091 3.30023 1.78828 2.93283C1.82438 2.57796 1.8882 2.41399 1.96066 2.30554C2.05186 2.16905 2.16905 2.05186 2.30554 1.96066ZM4.46165 11.25L4.5 11.25L4.53835 11.25C5.20793 11.25 5.76665 11.25 6.21898 11.296C6.69245 11.3441 7.13182 11.4489 7.52782 11.7135C7.82809 11.9141 8.08591 12.1719 8.28654 12.4722C8.55114 12.8682 8.65585 13.3075 8.70402 13.781C8.75003 14.2334 8.75002 14.7921 8.75 15.4617L8.75 15.5L8.75 15.5383C8.75002 16.2079 8.75003 16.7666 8.70402 17.219C8.65585 17.6925 8.55114 18.1318 8.28654 18.5278C8.08591 18.8281 7.82809 19.0859 7.52782 19.2865C7.13182 19.5511 6.69245 19.6559 6.21898 19.704C5.76665 19.75 5.20792 19.75 4.53834 19.75H4.5H4.46166C3.79208 19.75 3.23335 19.75 2.78102 19.704C2.30755 19.6559 1.86818 19.5511 1.47218 19.2865C1.17191 19.0859 0.914095 18.8281 0.713459 18.5278C0.448863 18.1318 0.344149 17.6925 0.295984 17.219C0.24997 16.7666 0.249983 16.2079 0.250001 15.5383V15.5V15.4617C0.249983 14.7921 0.24997 14.2334 0.295984 13.781C0.344149 13.3075 0.448863 12.8682 0.713459 12.4722C0.914095 12.1719 1.17191 11.9141 1.47218 11.7135C1.86818 11.4489 2.30755 11.3441 2.78102 11.296C3.23335 11.25 3.79208 11.25 4.46165 11.25ZM2.93283 12.7883C2.57796 12.8244 2.41399 12.8882 2.30554 12.9607C2.16905 13.0519 2.05186 13.1691 1.96066 13.3055C1.8882 13.414 1.82438 13.578 1.78828 13.9328C1.75091 14.3002 1.75 14.7822 1.75 15.5C1.75 16.2178 1.75091 16.6998 1.78828 17.0672C1.82438 17.422 1.8882 17.586 1.96066 17.6945C2.05186 17.8309 2.16905 17.9481 2.30554 18.0393C2.41399 18.1118 2.57796 18.1756 2.93283 18.2117C3.30023 18.2491 3.78216 18.25 4.5 18.25C5.21784 18.25 5.69977 18.2491 6.06717 18.2117C6.42204 18.1756 6.58601 18.1118 6.69446 18.0393C6.83095 17.9481 6.94814 17.8309 7.03934 17.6945C7.1118 17.586 7.17562 17.422 7.21172 17.0672C7.24909 16.6998 7.25 16.2178 7.25 15.5C7.25 14.7822 7.24909 14.3002 7.21172 13.9328C7.17562 13.578 7.1118 13.414 7.03934 13.3055C6.94814 13.1691 6.83095 13.0519 6.69446 12.9607C6.58601 12.8882 6.42204 12.8244 6.06717 12.7883C5.69977 12.7509 5.21784 12.75 4.5 12.75C3.78216 12.75 3.30023 12.7509 2.93283 12.7883ZM15.5 11.25L15.4617 11.25H15.4616C14.7921 11.25 14.2333 11.25 13.781 11.296C13.3075 11.3442 12.8682 11.4489 12.4722 11.7135C12.1719 11.9141 11.9141 12.1719 11.7135 12.4722C11.4489 12.8682 11.3442 13.3075 11.296 13.781C11.25 14.2333 11.25 14.7921 11.25 15.4616V15.4617L11.25 15.5L11.25 15.5383V15.5384C11.25 16.2079 11.25 16.7667 11.296 17.219C11.3442 17.6925 11.4489 18.1318 11.7135 18.5278C11.9141 18.8281 12.1719 19.0859 12.4722 19.2865C12.8682 19.5511 13.3075 19.6559 13.781 19.704C14.2334 19.75 14.7921 19.75 15.4617 19.75L15.5 19.75L15.5383 19.75C16.2079 19.75 16.7666 19.75 17.219 19.704C17.6925 19.6559 18.1318 19.5511 18.5278 19.2865C18.8281 19.0859 19.0859 18.8281 19.2865 18.5278C19.5511 18.1318 19.6559 17.6925 19.704 17.219C19.75 16.7666 19.75 16.2079 19.75 15.5383L19.75 15.5L19.75 15.4617C19.75 14.7921 19.75 14.2334 19.704 13.781C19.6559 13.3075 19.5511 12.8682 19.2865 12.4722C19.0859 12.1719 18.8281 11.9141 18.5278 11.7135C18.1318 11.4489 17.6925 11.3442 17.219 11.296C16.7667 11.25 16.2079 11.25 15.5384 11.25H15.5383L15.5 11.25ZM13.3055 12.9607C13.414 12.8882 13.578 12.8244 13.9328 12.7883C14.3002 12.7509 14.7822 12.75 15.5 12.75C16.2178 12.75 16.6998 12.7509 17.0672 12.7883C17.422 12.8244 17.586 12.8882 17.6945 12.9607C17.831 13.0519 17.9481 13.1691 18.0393 13.3055C18.1118 13.414 18.1756 13.578 18.2117 13.9328C18.2491 14.3002 18.25 14.7822 18.25 15.5C18.25 16.2178 18.2491 16.6998 18.2117 17.0672C18.1756 17.422 18.1118 17.586 18.0393 17.6945C17.9481 17.831 17.831 17.9481 17.6945 18.0393C17.586 18.1118 17.422 18.1756 17.0672 18.2117C16.6998 18.2491 16.2178 18.25 15.5 18.25C14.7822 18.25 14.3002 18.2491 13.9328 18.2117C13.578 18.1756 13.414 18.1118 13.3055 18.0393C13.1691 17.9481 13.0519 17.831 12.9607 17.6945C12.8882 17.586 12.8244 17.422 12.7883 17.0672C12.7509 16.6998 12.75 16.2178 12.75 15.5C12.75 14.7822 12.7509 14.3002 12.7883 13.9328C12.8244 13.578 12.8882 13.414 12.9607 13.3055C13.0519 13.1691 13.1691 13.0519 13.3055 12.9607Z" />
</svg>
