<?xml version="1.0" encoding="UTF-8" standalone="no"?>
<svg
   width="14.564929"
   height="14.564904"
   viewBox="0 0 14.564929 14.564904"
   fill="none"
   version="1.1"
   id="svg3797"
   sodipodi:docname="phone-icon.svg"
   inkscape:version="1.2.1 (9c6d41e410, 2022-07-14)"
   xmlns:inkscape="http://www.inkscape.org/namespaces/inkscape"
   xmlns:sodipodi="http://sodipodi.sourceforge.net/DTD/sodipodi-0.dtd"
   xmlns="http://www.w3.org/2000/svg"
   xmlns:svg="http://www.w3.org/2000/svg">
  <defs
     id="defs3801" />
  <sodipodi:namedview
     id="namedview3799"
     pagecolor="#ffffff"
     bordercolor="#000000"
     borderopacity="0.25"
     inkscape:showpageshadow="2"
     inkscape:pageopacity="0.0"
     inkscape:pagecheckerboard="0"
     inkscape:deskcolor="#d1d1d1"
     showgrid="false"
     inkscape:zoom="43.055556"
     inkscape:cx="7.2464516"
     inkscape:cy="7.3045161"
     inkscape:window-width="1920"
     inkscape:window-height="991"
     inkscape:window-x="-9"
     inkscape:window-y="-9"
     inkscape:window-maximized="1"
     inkscape:current-layer="svg3797" />
  <path
     fill-rule="evenodd"
     clip-rule="evenodd"
     d="m 2.3976177,3.7726784e-5 -0.04903,-2e-5 c -0.28726,-1.60000004e-4 -0.51392,-2.80000004e-4 -0.73731,0.04962000322 -0.81298004,0.18159 -1.49563004,0.93409 -1.59742004,1.76086997 -0.02793,0.2268 -0.00882,0.4217 0.01494,0.66413 l 0.00344,0.03508 c 0.19315,1.97975 0.68774,3.76151 1.46752004,5.31345 1.15847,2.3056003 2.93637,4.0835003 5.24198,5.2420003 1.55198,0.7798 3.3336803,1.2744 5.3134803,1.4675 l 0.0351,0.0034 v 0 c 0.2424,0.0238 0.4373,0.0429 0.6641,0.015 0.8268,-0.1018 1.5793,-0.7845 1.7609,-1.5974 0.0499,-0.2234 0.0497,-0.4501 0.0496,-0.7373 v -0.0491 -0.0451 -10e-5 c 10e-5,-0.249 2e-4,-0.4428 -0.0314,-0.6218 -0.1191,-0.6746 -0.5652,-1.246 -1.1908,-1.5251003 -0.166,-0.0741 -0.354,-0.121 -0.5957,-0.1813 v 0 l -0.0438,-0.0109 -1.2408,-0.3102 -0.0272,-0.0068 c -0.4202,-0.1051 -0.7768,-0.1943 -1.079,-0.2372 -0.3217,-0.0456 -0.6290003,-0.0469 -0.9444003,0.0557 -0.3153,0.1027 -0.563,0.2847 -0.7961,0.511 -0.219,0.2126003 -0.45478,0.4946003 -0.73259,0.8269003 h -1e-5 l -0.01793,0.0215 -1.01091,1.2091 c -1.76954,-0.9774 -3.1649,-2.3728003 -4.14238,-4.1423303 l 1.20917,-1.01091 0.02146,-0.01794 c 0.33232,-0.27781 0.61436,-0.51359 0.82692,-0.73258 0.22628,-0.23314 0.40827,-0.48077 0.51095,-0.79616 0.10268,-0.31539 0.10136,-0.6227 0.0557,-0.94437 -0.04288,-0.30216 -0.13206,-0.65881 -0.23713,-1.07903 l -0.00678,-0.02711 -0.31021,-1.24085 -0.01094,-0.04381 v -2e-5 c -0.06031,-0.24168 -0.10722,-0.42966 -0.18128,-0.59567 -0.2791,-0.62554997 -0.85055,-1.07172997 -1.52511,-1.19076997 -0.17902,-0.0315900032 -0.37277,-0.03151000322 -0.62188,-0.03140000322 z"
     id="path3795" />
</svg>
