<svg width="18" height="18" viewBox="0 0 18 18" fill="none" xmlns="http://www.w3.org/2000/svg">
<path fill-rule="evenodd" clip-rule="evenodd"
            d="M4.1453 1.68747L4.09627 1.68745C3.80901 1.68729 3.58235 1.68717 3.35896 1.73707C2.54598 1.91866 1.86333 2.67116 1.76154 3.49794C1.73361 3.72474 1.75272 3.91964 1.77648 4.16207L1.77992 4.19715C1.97307 6.1769 2.46766 7.95866 3.24744 9.5106C4.40591 11.8162 6.18381 13.5941 8.48942 14.7526C10.0414 15.5324 11.8231 16.027 13.8029 16.2201L13.838 16.2235H13.838C14.0804 16.2473 14.2753 16.2664 14.5021 16.2385C15.3289 16.1367 16.0814 15.454 16.263 14.6411C16.3129 14.4177 16.3127 14.191 16.3126 13.9038L16.3126 13.8547L16.3126 13.8096V13.8095C16.3127 13.5605 16.3128 13.3667 16.2812 13.1877C16.1621 12.5131 15.716 11.9417 15.0904 11.6626C14.9244 11.5885 14.7364 11.5416 14.4947 11.4813L14.4947 11.4813L14.4509 11.4704L13.2101 11.1602L13.1829 11.1534C12.7627 11.0483 12.4061 10.9591 12.1039 10.9162C11.7822 10.8706 11.4749 10.8693 11.1595 10.9719C10.8442 11.0746 10.5965 11.2566 10.3634 11.4829C10.1444 11.6955 9.90862 11.9775 9.63081 12.3098L9.6308 12.3098L9.61287 12.3313L8.60196 13.5404C6.83242 12.563 5.43706 11.1676 4.45958 9.39807L5.66875 8.38716L5.69021 8.36922C6.02253 8.09141 6.30457 7.85563 6.51713 7.63664C6.74341 7.4035 6.9254 7.15587 7.02808 6.84048C7.13076 6.52509 7.12944 6.21778 7.08378 5.89611C7.0409 5.59395 6.95172 5.2373 6.84665 4.81708L6.83987 4.78997L6.52966 3.54912L6.51872 3.50531L6.51872 3.50529C6.45841 3.26361 6.4115 3.07563 6.33744 2.90962C6.05834 2.28407 5.48689 1.83789 4.81233 1.71885C4.63331 1.68726 4.43956 1.68734 4.19045 1.68745L4.1453 1.68747Z" />
      
</svg>
