<svg width="18" height="18" viewBox="0 0 18 18" fill="none" xmlns="http://www.w3.org/2000/svg">
<path fill-rule="evenodd" clip-rule="evenodd"  d="M15.5625 7.6111C15.5625 5.425 14.7524 3.74234 13.5025 2.61077C12.2622 1.48787 10.6227 0.937474 9 0.937469C7.37733 0.937465 5.73777 1.48785 4.49748 2.61075C3.24761 3.74232 2.4375 5.42498 2.4375 7.6111C2.4375 10.5102 4.16265 12.9284 5.74494 14.5455L5.78018 14.5815C6.28063 15.0931 6.71742 15.5396 7.1947 15.8455C7.71712 16.1803 8.2727 16.341 9.00018 16.341C9.72766 16.341 10.2832 16.1802 10.8056 15.8454C11.2829 15.5395 11.7197 15.093 12.2201 14.5814L12.2201 14.5814L12.2553 14.5454C13.8375 12.9283 15.5625 10.5101 15.5625 7.6111ZM11.25 7.49998C11.25 8.74262 10.2426 9.74998 9 9.74998C7.75736 9.74998 6.75 8.74262 6.75 7.49998C6.75 6.25734 7.75736 5.24998 9 5.24998C10.2426 5.24998 11.25 6.25734 11.25 7.49998Z" />
</svg>
