<?xml version="1.0" encoding="UTF-8" standalone="no"?>
<svg
   width="13.125"
   height="15.403531"
   viewBox="0 0 13.125 15.403531"
   fill="none"
   version="1.1"
   id="svg3824"
   sodipodi:docname="pin-icon.svg"
   inkscape:version="1.2.1 (9c6d41e410, 2022-07-14)"
   xmlns:inkscape="http://www.inkscape.org/namespaces/inkscape"
   xmlns:sodipodi="http://sodipodi.sourceforge.net/DTD/sodipodi-0.dtd"
   xmlns="http://www.w3.org/2000/svg"
   xmlns:svg="http://www.w3.org/2000/svg">
  <defs
     id="defs3828" />
  <sodipodi:namedview
     id="namedview3826"
     pagecolor="#ffffff"
     bordercolor="#000000"
     borderopacity="0.25"
     inkscape:showpageshadow="2"
     inkscape:pageopacity="0.0"
     inkscape:pagecheckerboard="0"
     inkscape:deskcolor="#d1d1d1"
     showgrid="false"
     inkscape:zoom="43.055556"
     inkscape:cx="6.5496774"
     inkscape:cy="8.0709677"
     inkscape:window-width="1920"
     inkscape:window-height="991"
     inkscape:window-x="-9"
     inkscape:window-y="-9"
     inkscape:window-maximized="1"
     inkscape:current-layer="svg3824" />
  <path
     fill-rule="evenodd"
     clip-rule="evenodd"
     d="m 13.125,6.673631 c 0,-2.1861 -0.8101,-3.86876 -2.06,-5.00033 C 9.8247,0.550401 8.1852,5.0000218e-6 6.5625,0 4.93983,-3.9999782e-6 3.30027,0.550381 2.05998,1.673281 0.81011,2.804851 0,4.487511 0,6.673631 c 0,2.8991 1.72515,5.3173 3.30744,6.9344 l 0.03524,0.036 c 0.50045,0.5116 0.93724,0.9581 1.41452,1.264 0.52242,0.3348 1.078,0.4955 1.80548,0.4955 0.72748,0 1.28302,-0.1608 1.80542,-0.4956 0.4773,-0.3059 0.9141,-0.7524 1.4145,-1.264 v 0 l 0.0352,-0.036 c 1.5822,-1.6171 3.3072,-4.0353 3.3072,-6.9343 z M 8.8125,6.562511 c 0,1.24264 -1.0074,2.25 -2.25,2.25 -1.24264,0 -2.25,-1.00736 -2.25,-2.25 0,-1.24264 1.00736,-2.25 2.25,-2.25 1.2426,0 2.25,1.00736 2.25,2.25 z"
     id="path3822" />
</svg>
