<svg width="512" height="512" viewBox="0 0 512 512" fill="none" xmlns="http://www.w3.org/2000/svg">
<g>
<path d="M256.7,507.8C118.8,507.8,7.9,395.3,8.6,254.7C9.2,117.7,120.2,4.8,259.8,6.2   c137,1.4,247.2,114.3,245.7,253.6C504.1,396.3,394.5,507.6,256.7,507.8z M257.2,25.8C132.9,25.4,29.5,126.6,28.1,254.2   c-1.5,130.1,102.4,232.8,226.5,234c125.9,1.3,230.6-100.8,231.3-229.2C486.5,129.5,384.3,25.8,257.2,25.8z"/>
<path d="M269.1,80.5c40.9,0.2,74.5,15.7,98.6,49.3c18.1,25.3,23.8,54,20.5,84.7c-1.9,18.1-5.2,35.8-12.1,52.7   c-10.2,24.9-25,46.2-49.8,58.5c-21.7,10.7-44,13.8-66.5,1.9c-6.1-3.2-11.3-7.6-15.4-13.1c-0.7-0.9-1.2-2.2-2.6-2   c-1.5,0.3-1.1,1.9-1.4,2.9c-3.9,16.5-7.6,33-11.8,49.4c-5.3,20.4-15.1,38.8-26.7,56.3c-2.1,3.2-4.2,6.4-6.4,9.5   c-0.8,1.2-2,2.4-3.7,1.8c-1.5-0.5-1.8-1.8-1.9-3.2c-3.5-27.7-4.4-55.3,2.4-82.8c6.1-24.8,10.9-50,16.3-75   c1.8-8.4,3.9-16.8,5.9-25.2c0.3-1.5,0.5-2.9-0.1-4.4c-6.6-16.8-7.7-34-2.7-51.3c3.6-12.4,9.6-23.3,22.2-29   c16.7-7.6,33.9,2.3,35.9,20.7c1.2,11.5-1,22.5-3.8,33.5c-4,15.8-9.7,31.1-12.4,47.2c-2.3,13.9,1.7,25.6,14.1,33   c12.9,7.7,25.6,5.2,37.5-2.7c12.3-8.2,19.8-20.3,25.3-33.6c9.6-23.3,13.4-47.7,12-72.8c-1.5-26.7-12.3-48.4-36.2-62.1   c-10-5.7-21-8.3-32.2-9.3c-18.7-1.6-36.7,1.4-53.4,10.5c-16.3,8.9-28.4,21.7-36.8,38c-10.4,20.1-13.4,41.6-10,63.9   c1.2,8,4.3,15.5,9.4,21.6c4.6,5.5,5.3,11.1,3.4,17.6c-1.2,4-2,8.1-3.1,12.1c-1.5,5.7-5.1,7.1-10.6,4.5c-16.1-7.5-25.5-20.8-31-37   c-9-26.8-8.5-53.7,0.9-80.3c10.8-30.6,30.6-54.1,59-69.7C222.7,85.3,245.3,80.1,269.1,80.5z"/>
</g>
</svg>