<svg width="20" height="21" viewBox="0 0 20 21" fill="none" xmlns="http://www.w3.org/2000/svg">
<path
            d="M15.1042 5.5887C14.7396 5.38037 14.2708 5.38037 13.8542 5.5887L10.9375 7.30745L8.95833 8.4012L6.09375 10.12C5.72917 10.3283 5.26042 10.3283 4.84375 10.12L2.60417 8.76579C2.23958 8.55745 1.97917 8.14079 1.97917 7.67204V5.06787C1.97917 4.6512 2.1875 4.23454 2.60417 3.97412L4.84375 2.67204C5.20833 2.4637 5.67708 2.4637 6.09375 2.67204L8.33333 4.0262C8.69792 4.23454 8.95833 4.6512 8.95833 5.11995V6.8387L10.9375 5.69287V3.92204C10.9375 3.50537 10.7292 3.0887 10.3125 2.82829L6.14583 0.380371C5.78125 0.172038 5.3125 0.172038 4.89583 0.380371L0.625 2.88037C0.208333 3.0887 0 3.50537 0 3.92204V8.81787C0 9.23454 0.208333 9.6512 0.625 9.91162L4.84375 12.3595C5.20833 12.5679 5.67708 12.5679 6.09375 12.3595L8.95833 10.6929L10.9375 9.54704L13.8021 7.88037C14.1667 7.67204 14.6354 7.67204 15.0521 7.88037L17.2917 9.18245C17.6562 9.39079 17.9167 9.80746 17.9167 10.2762V12.8804C17.9167 13.297 17.7083 13.7137 17.2917 13.9741L15.1042 15.2762C14.7396 15.4845 14.2708 15.4845 13.8542 15.2762L11.6146 13.9741C11.25 13.7658 10.9896 13.3491 10.9896 12.8804V11.2137L9.01042 12.3595V14.0783C9.01042 14.495 9.21875 14.9116 9.63542 15.172L13.8542 17.62C14.2188 17.8283 14.6875 17.8283 15.1042 17.62L19.3229 15.172C19.6875 14.9637 19.9479 14.547 19.9479 14.0783V9.13037C19.9479 8.7137 19.7396 8.29704 19.3229 8.03662L15.1042 5.5887Z" />
      
</svg>
