<?xml version="1.0" encoding="UTF-8" standalone="no"?>
<svg
   width="11.601562"
   height="12.003906"
   viewBox="0 0 11.601562 12.003906"
   fill="none"
   version="1.1"
   id="svg14"
   sodipodi:docname="pp-cmt-icon.svg"
   inkscape:version="1.2.1 (9c6d41e410, 2022-07-14)"
   xmlns:inkscape="http://www.inkscape.org/namespaces/inkscape"
   xmlns:sodipodi="http://sodipodi.sourceforge.net/DTD/sodipodi-0.dtd"
   xmlns="http://www.w3.org/2000/svg"
   xmlns:svg="http://www.w3.org/2000/svg">
  <defs
     id="defs18" />
  <sodipodi:namedview
     id="namedview16"
     pagecolor="#ffffff"
     bordercolor="#000000"
     borderopacity="0.25"
     inkscape:showpageshadow="2"
     inkscape:pageopacity="0.0"
     inkscape:pagecheckerboard="0"
     inkscape:deskcolor="#d1d1d1"
     showgrid="false"
     inkscape:zoom="61.846154"
     inkscape:cx="5.4166667"
     inkscape:cy="5.8128109"
     inkscape:window-width="1920"
     inkscape:window-height="991"
     inkscape:window-x="-9"
     inkscape:window-y="-9"
     inkscape:window-maximized="1"
     inkscape:current-layer="svg14" />
  <path
     id="path12"
     style="color:#000000;fill:#ab0e36;-inkscape-stroke:none"
     d="M 3.5097657,5.1914062 V 5.4921875 H 7.1757812 V 5.1914062 Z m 0,0 V 5.4921875 H 7.1757812 V 5.1914062 Z m 0,-1.8320312 v 0.3007813 h 5.5 V 3.359375 Z m 0,0 v 0.3007813 h 5.5 V 3.359375 Z M 0.80078125,0 C 0.36250655,0 0,0.36250655 0,0.80078125 V 12.003906 L 0.50781245,11.517578 3.2910156,8.8515626 h 7.5097654 c 0.438258,0 0.800781,-0.3624776 0.800781,-0.8007813 V 0.80078125 C 11.601562,0.36247755 11.239039,0 10.800781,0 Z m 0,0.60156245 H 10.800781 c 0.113941,0 0.199219,0.085243 0.199219,0.1992188 V 8.0507813 C 11,8.1647571 10.91472,8.25 10.800781,8.2500001 H 3.0507813 L 0.60156245,10.597656 V 0.80078125 c 0,-0.1140047 0.085214,-0.1992188 0.1992188,-0.1992188 z M 0.80078125,0 C 0.36250655,0 0,0.36250655 0,0.80078125 V 12.003906 L 0.50781245,11.517578 3.2910156,8.8515626 h 7.5097654 c 0.438258,0 0.800781,-0.3624776 0.800781,-0.8007813 V 0.80078125 C 11.601562,0.36247755 11.239039,0 10.800781,0 Z m 0,0.60156245 H 10.800781 c 0.113941,0 0.199219,0.085243 0.199219,0.1992188 V 8.0507813 C 11,8.1647571 10.91472,8.25 10.800781,8.2500001 H 3.0507813 L 0.60156245,10.597656 V 0.80078125 c 0,-0.1140047 0.085214,-0.1992188 0.1992188,-0.1992188 z" />
</svg>
