<?xml version="1.0" encoding="UTF-8" standalone="no"?>
<svg
   width="11"
   height="11"
   viewBox="0 0 11 11"
   fill="none"
   version="1.1"
   id="svg173"
   sodipodi:docname="pp-cmt-icon1.svg"
   inkscape:version="1.2.1 (9c6d41e410, 2022-07-14)"
   xmlns:inkscape="http://www.inkscape.org/namespaces/inkscape"
   xmlns:sodipodi="http://sodipodi.sourceforge.net/DTD/sodipodi-0.dtd"
   xmlns="http://www.w3.org/2000/svg"
   xmlns:svg="http://www.w3.org/2000/svg">
  <defs
     id="defs177" />
  <sodipodi:namedview
     id="namedview175"
     pagecolor="#ffffff"
     bordercolor="#000000"
     borderopacity="0.25"
     inkscape:showpageshadow="2"
     inkscape:pageopacity="0.0"
     inkscape:pagecheckerboard="0"
     inkscape:deskcolor="#d1d1d1"
     showgrid="false"
     inkscape:zoom="67"
     inkscape:cx="5.1492537"
     inkscape:cy="5.0074627"
     inkscape:window-width="1920"
     inkscape:window-height="991"
     inkscape:window-x="-9"
     inkscape:window-y="-9"
     inkscape:window-maximized="1"
     inkscape:current-layer="svg173" />
  <path
     id="path171"
     d="m 3.20825,5.04102 h 3.66667 m -3.66667,0 H 6.87492 M 3.20825,3.20898 h 5.5 m -5.5,0 h 5.5 M 0,11 V 0.5 C 0,0.22386 0.22386,0 0.5,0 h 10 C 10.7761,0 11,0.22386 11,0.5 v 7.25 c 0,0.27614 -0.2239,0.5 -0.5,0.5 H 2.86957 Z m 0,0 V 0.5 C 0,0.22386 0.22386,0 0.5,0 h 10 C 10.7761,0 11,0.22386 11,0.5 v 7.25 c 0,0.27614 -0.2239,0.5 -0.5,0.5 H 2.86957 Z" />
</svg>
