<svg width="8" height="8" viewBox="0 0 8 8" fill="none" xmlns="http://www.w3.org/2000/svg">
<path fill-rule="evenodd" clip-rule="evenodd" d="M4.01788 1.25814L3.71465 2.51618L3.58798 2.52726C3.28065 2.55418 2.83557 2.65165 2.53965 2.75684C2.24583 2.86129 1.90225 3.03177 1.68966 3.17859C1.62929 3.22028 1.57587 3.2544 1.57095 3.2544C1.56602 3.2544 1.52785 3.22821 1.48611 3.19618C1.10879 2.90678 0.608227 2.95105 0.278609 3.30295C-0.13671 3.74635 -0.0805251 4.4515 0.399247 4.81701L0.500048 4.8938L0.487745 4.99621C0.467047 5.16858 0.476239 5.50386 0.505879 5.65772C0.5343 5.80521 0.617545 6.06201 0.679013 6.19179C0.737761 6.31585 0.903845 6.57686 0.997611 6.69248C1.56504 7.39215 2.4305 7.83874 3.49258 7.9799C3.69431 8.0067 4.33826 8.0067 4.53999 7.9799C5.72286 7.82268 6.6838 7.26286 7.18902 6.43661C7.42894 6.04427 7.54765 5.61069 7.52797 5.19875C7.52314 5.09778 7.51468 4.98823 7.50917 4.95528C7.49938 4.89682 7.50155 4.89358 7.60101 4.81781C7.91373 4.57956 8.057 4.19273 7.97915 3.79681C7.90527 3.42116 7.61197 3.10803 7.2601 3.02915C6.99847 2.97052 6.73132 3.03042 6.5152 3.19618C6.47346 3.22821 6.43528 3.2544 6.43036 3.2544C6.42543 3.2544 6.37444 3.2221 6.31705 3.18263C5.96162 2.93821 5.5055 2.7405 5.03788 2.62818C4.82826 2.57783 4.44369 2.52083 4.31032 2.52037C4.26139 2.52018 4.21765 2.51366 4.21313 2.50585C4.20712 2.49545 4.63488 0.674983 4.64776 0.656157C4.64887 0.654521 4.87473 0.737136 5.14967 0.839761L5.64953 1.02632L5.67812 1.17653C5.75588 1.58506 6.03616 1.89594 6.4003 1.97757C6.97907 2.1073 7.53313 1.6298 7.53313 1.00128C7.53313 0.536976 7.21363 0.120133 6.7833 0.0230485C6.41362 -0.0603501 5.98815 0.13502 5.80875 0.470567C5.79018 0.505298 5.76984 0.533771 5.76355 0.533838C5.75727 0.533921 5.43046 0.413805 5.03731 0.266936C4.64418 0.120066 4.3222 -5.00536e-05 4.32181 1.56475e-08C4.32144 5.00849e-05 4.18467 0.566216 4.01788 1.25814ZM2.70483 4.02248C3.07186 4.09678 3.32889 4.48114 3.26913 4.86626C3.21831 5.19366 2.98756 5.44 2.68089 5.49426C2.22886 5.57422 1.8121 5.12929 1.887 4.64669C1.95245 4.22496 2.31987 3.94454 2.70483 4.02248ZM5.55001 4.02248C5.91704 4.09678 6.17407 4.48114 6.11431 4.86626C6.06349 5.19366 5.83275 5.44 5.52608 5.49426C5.07404 5.57422 4.65728 5.12929 4.73218 4.64669C4.79763 4.22496 5.16505 3.94454 5.55001 4.02248ZM2.82625 6.28265C3.50595 6.57245 4.49692 6.5718 5.1787 6.2811C5.25485 6.24862 5.32208 6.22839 5.3281 6.23614C5.33412 6.24388 5.38002 6.34303 5.43011 6.45649C5.50324 6.62214 5.51691 6.66566 5.49956 6.67755C5.43794 6.71972 5.12469 6.8372 4.94414 6.88583C4.60736 6.97656 4.41555 6.99993 4.00847 6.99983C3.62651 6.99973 3.45192 6.98023 3.12521 6.90122C2.88211 6.84242 2.48384 6.69355 2.48448 6.66173C2.48461 6.6557 2.52044 6.5719 2.5641 6.47552C2.60776 6.37913 2.64969 6.28339 2.65729 6.26272C2.66487 6.24206 2.67566 6.22517 2.68125 6.22517C2.68685 6.22517 2.7521 6.25104 2.82625 6.28265Z" fill="#9E9E9E"/>
</svg>
