<svg width="256" height="256" viewBox="0 0 256 256" fill="none" xmlns="http://www.w3.org/2000/svg">
<g
     transform="translate(128 128) scale(0.72 0.72)"
     style=""
     id="g38">
    <g
       style="stroke: none; stroke-width: 0; stroke-dasharray: none; stroke-linecap: butt; stroke-linejoin: miter; stroke-miterlimit: 10; "
       transform="translate(-175.05 -175.05000000000004) scale(3.89 3.89)"
       id="g36">
      <path
         id="path34"
         style="stroke: none; stroke-width: 1; stroke-dasharray: none; stroke-linecap: butt; stroke-linejoin: miter; stroke-miterlimit: 10; fill: rgb(0,0,0); fill-rule: nonzero; opacity: 1;"
         transform=" matrix(1 0 0 1 0 0) "
         d="m 60.757,59.629 c -0.117,0 -0.218,0 -0.336,0 l 0.051,-0.252 c -3.728,0 -6.769,-3.041 -6.769,-6.769 0,-3.728 3.041,-6.769 6.769,-6.769 3.728,0 6.769,3.041 6.769,6.769 0.15,3.729 -2.755,6.869 -6.484,7.021 z m 0.924,11.589 v -0.269 c -4.803,3.611 -10.682,5.458 -16.696,5.207 -6.014,0.252 -11.891,-1.596 -16.696,-5.207 -0.638,-0.773 -0.521,-1.931 0.252,-2.569 0.671,-0.554 1.629,-0.554 2.318,0 4.065,2.973 9.02,4.485 14.058,4.249 5.039,0.269 10.011,-1.176 14.125,-4.114 0.739,-0.722 1.948,-0.706 2.671,0.033 0.723,0.739 0.706,1.948 -0.032,2.67 z M 22.429,52.373 c 0,-3.728 3.041,-6.769 6.769,-6.769 3.728,0 6.769,3.041 6.769,6.769 0,3.728 -3.041,6.769 -6.769,6.769 -3.745,-0.034 -6.769,-3.04 -6.769,-6.769 z M 89.998,45.604 C 89.797,40.162 85.228,35.913 79.769,36.098 77.35,36.182 75.05,37.173 73.303,38.835 65.611,33.595 56.574,30.722 47.286,30.521 L 51.67,9.442 66.131,12.483 c 0.402,3.712 3.728,6.4 7.44,5.996 3.712,-0.402 6.4,-3.728 5.996,-7.44 -0.404,-3.712 -3.728,-6.4 -7.44,-5.996 -2.134,0.218 -4.048,1.461 -5.105,3.309 L 50.461,5.043 c -1.125,-0.252 -2.251,0.453 -2.503,1.596 0,0.017 0,0.017 0,0.033 L 42.97,30.119 C 33.564,30.271 24.411,33.16 16.618,38.433 12.654,34.705 6.406,34.889 2.678,38.87 c -3.728,3.964 -3.544,10.212 0.437,13.94 0.773,0.722 1.662,1.344 2.653,1.781 -0.068,0.991 -0.068,1.982 0,2.973 0,15.133 17.636,27.444 39.386,27.444 21.75,0 39.386,-12.295 39.386,-27.444 0.068,-0.991 0.068,-1.982 0,-2.973 3.392,-1.697 5.526,-5.191 5.458,-8.987 z" />
    </g>
  </g>
</svg>
