<?xml version="1.0" encoding="UTF-8" standalone="no"?>
<svg
   width="18.166643"
   height="18.166643"
   viewBox="0 0 18.166643 18.166643"
   fill="none"
   version="1.1"
   id="svg3511"
   sodipodi:docname="settingsbold-icon.svg"
   inkscape:version="1.2.1 (9c6d41e410, 2022-07-14)"
   xmlns:inkscape="http://www.inkscape.org/namespaces/inkscape"
   xmlns:sodipodi="http://sodipodi.sourceforge.net/DTD/sodipodi-0.dtd"
   xmlns="http://www.w3.org/2000/svg"
   xmlns:svg="http://www.w3.org/2000/svg">
  <defs
     id="defs3515" />
  <sodipodi:namedview
     id="namedview3513"
     pagecolor="#ffffff"
     bordercolor="#000000"
     borderopacity="0.25"
     inkscape:showpageshadow="2"
     inkscape:pageopacity="0.0"
     inkscape:pagecheckerboard="0"
     inkscape:deskcolor="#d1d1d1"
     showgrid="false"
     inkscape:zoom="38.8"
     inkscape:cx="9.0721649"
     inkscape:cy="8.943299"
     inkscape:window-width="1920"
     inkscape:window-height="991"
     inkscape:window-x="-9"
     inkscape:window-y="-9"
     inkscape:window-maximized="1"
     inkscape:current-layer="svg3511" />
  <path
     fill-rule="evenodd"
     clip-rule="evenodd"
     d="m 9.083344,0 c -1.33468,1e-6 -2.41666,1.081974 -2.41666,2.416664 v 0.54126 c -0.06917,0.02731 -0.13776,0.05576 -0.20575,0.08531 l -0.38281,-0.3828 c -0.94376,-0.94377 -2.47391,-0.94377 -3.41768,0 -0.94377,0.94377 -0.94377,2.47392 0,3.41768 l 0.3828,0.3828 c -0.02956,0.06799 -0.058,0.13659 -0.08531,0.20575 H 2.416664 C 1.081984,6.666664 0,7.748644 0,9.083334 c 1e-6,1.33471 1.081984,2.41671 2.416664,2.41671 h 0.54127 c 0.02731,0.0691 0.05575,0.1377 0.08531,0.2057 l -0.38281,0.3828 c -0.94376,0.9438 -0.94376,2.4739 0,3.4177 0.94377,0.9438 2.47392,0.9438 3.41769,0 l 0.38281,-0.3828 c 0.06799,0.0295 0.13658,0.058 0.20575,0.0853 v 0.5413 c 0,1.3346 1.08198,2.4166 2.41666,2.4166 1.3347,0 2.4167,-1.082 2.4167,-2.4166 v -0.5413 c 0.0691,-0.0273 0.1377,-0.0558 0.2057,-0.0853 l 0.3828,0.3828 c 0.9438,0.9437 2.4739,0.9437 3.4177,0 0.9437,-0.9438 0.9437,-2.4739 0,-3.4177 l -0.3828,-0.3828 c 0.0295,-0.068 0.058,-0.1366 0.0853,-0.2057 h 0.5413 c 1.3346,0 2.4166,-1.082 2.4166,-2.41671 0,-1.33469 -1.082,-2.41667 -2.4166,-2.41667 h -0.5413 c -0.0273,-0.06916 -0.0558,-0.13775 -0.0853,-0.20574 l 0.3828,-0.38277 c 0.9437,-0.94377 0.9437,-2.47392 0,-3.41769 -0.9438,-0.94376 -2.4739,-0.94376 -3.4177,0 l -0.3828,0.38278 c -0.068,-0.02956 -0.1366,-0.058 -0.2057,-0.08531 V 2.416664 C 11.500044,1.081984 10.418044,0 9.083344,0 Z m -0.91666,2.416664 c 0,-0.50626 0.4104,-0.91666 0.91666,-0.91666 0.5063,0 0.9167,0.4104 0.9167,0.91666 v 1.07491 c 0,0.33181 0.218,0.62418 0.536,0.71884 0.3377,0.10048 0.6607,0.23517 0.9651,0.40015 0.2919,0.15814 0.653,0.10564 0.8877,-0.12908 l 0.7603,-0.76036 c 0.358,-0.35798 0.9384,-0.35798 1.2964,0 0.358,0.35798 0.358,0.93839 0,1.29637 l -0.7603,0.76035 c -0.2348,0.23472 -0.2873,0.59581 -0.1291,0.88765 0.1649,0.30445 0.2996,0.62748 0.4001,0.96511 0.0947,0.31803 0.387,0.53606 0.7189,0.53606 h 1.0749 c 0.5062,0 0.9166,0.41041 0.9166,0.91667 0,0.50631 -0.4104,0.91671 -0.9166,0.91671 h -1.0749 c -0.3319,0 -0.6242,0.218 -0.7189,0.536 -0.1005,0.3376 -0.2352,0.6607 -0.4001,0.9651 -0.1582,0.2919 -0.1057,0.653 0.1291,0.8877 l 0.7603,0.7603 c 0.358,0.358 0.358,0.9384 0,1.2964 -0.358,0.358 -0.9384,0.358 -1.2963,0 l -0.7604,-0.7604 c -0.2347,-0.2347 -0.5958,-0.2872 -0.8877,-0.129 -0.3044,0.1649 -0.6274,0.2996 -0.9651,0.4001 -0.318,0.0947 -0.536,0.387 -0.536,0.7189 v 1.0749 c 0,0.5062 -0.4104,0.9166 -0.9167,0.9166 -0.50626,0 -0.91666,-0.4104 -0.91666,-0.9166 v -1.0749 c 0,-0.3319 -0.21804,-0.6242 -0.53607,-0.7189 -0.33763,-0.1005 -0.66066,-0.2352 -0.96512,-0.4001 -0.29184,-0.1582 -0.65293,-0.1057 -0.88765,0.129 l -0.76038,0.7604 c -0.35798,0.358 -0.93838,0.358 -1.29637,0 -0.35798,-0.3579 -0.35798,-0.9383 0,-1.2963 l 0.76039,-0.7604 c 0.23472,-0.2347 0.28723,-0.5958 0.12908,-0.8877 -0.16498,-0.3044 -0.29967,-0.6274 -0.40016,-0.9651 -0.09464,-0.318 -0.38702,-0.536 -0.71884,-0.536 h -1.0749 c -0.50626,0 -0.91666,-0.4104 -0.91666,-0.91671 0,-0.50626 0.4104,-0.91667 0.91666,-0.91667 h 1.0749 c 0.33182,0 0.62419,-0.21803 0.71884,-0.53606 0.10049,-0.33763 0.23518,-0.66066 0.40016,-0.96512 0.15815,-0.29184 0.10564,-0.65293 -0.12908,-0.88765 l -0.76038,-0.76038 c -0.35798,-0.35798 -0.35798,-0.93838 0,-1.29636 0.35798,-0.35798 0.93838,-0.35798 1.29637,0 l 0.76038,0.76038 c 0.23471,0.23472 0.5958,0.28723 0.88765,0.12908 0.30445,-0.16497 0.62748,-0.29967 0.96511,-0.40015 0.31803,-0.09465 0.53607,-0.38703 0.53607,-0.71884 z m -1.08335,6.66667 c 0,-1.10457 0.89543,-2 2,-2 1.10461,0 2.00001,0.89543 2.00001,2 0,1.10461 -0.8954,2.00001 -2.00001,2.00001 -1.10457,0 -2,-0.8954 -2,-2.00001 z m 2,-3 c -1.65685,0 -3,1.34315 -3,3 0,1.65681 1.34315,3.00001 3,3.00001 1.65681,0 3.00001,-1.3432 3.00001,-3.00001 0,-1.65685 -1.3432,-3 -3.00001,-3 z"
     id="path3509" />
</svg>
