<svg width="20" height="22" viewBox="0 0 20 22" fill="none" xmlns="http://www.w3.org/2000/svg">
<path fill-rule="evenodd" clip-rule="evenodd"
            d="M8.75002 3C8.75002 2.30964 9.30966 1.75 10 1.75C10.6904 1.75 11.25 2.30964 11.25 3V4.28988C11.25 4.6217 11.4681 4.91407 11.7861 5.00872C12.7356 5.29132 13.5915 5.79407 14.2942 6.45874C14.5351 6.68671 14.8973 6.72928 15.1846 6.56341L16.3034 5.91748C16.9012 5.5723 17.6657 5.77714 18.0109 6.37501C18.3561 6.97287 18.1512 7.73736 17.5534 8.08254L16.4359 8.72768C16.1489 8.89341 16.0047 9.22792 16.0812 9.55042C16.1915 10.0149 16.25 10.5001 16.25 11C16.25 11.4999 16.1915 11.9851 16.0812 12.4496C16.0047 12.7721 16.1489 13.1066 16.4359 13.2723L17.5533 13.9174C18.1511 14.2626 18.356 15.0271 18.0108 15.6249C17.6656 16.2228 16.9011 16.4277 16.3033 16.0825L15.1846 15.4366C14.8973 15.2707 14.5351 15.3133 14.2942 15.5413C13.5915 16.2059 12.7356 16.7087 11.7861 16.9913C11.4681 17.0859 11.25 17.3783 11.25 17.7101V19C11.25 19.6904 10.6904 20.25 10 20.25C9.30966 20.25 8.75002 19.6904 8.75002 19V17.7101C8.75002 17.3783 8.53198 17.0859 8.21395 16.9913C7.26445 16.7087 6.4086 16.206 5.70596 15.5414C5.46497 15.3134 5.10286 15.2708 4.81557 15.4367L3.69695 16.0825C3.09908 16.4277 2.33459 16.2229 1.98942 15.625C1.64424 15.0271 1.84908 14.2627 2.44695 13.9175L3.56411 13.2725C3.85117 13.1067 3.99539 12.7722 3.91883 12.4497C3.80855 11.9852 3.75 11.4999 3.75 11C3.75 10.5001 3.80855 10.0148 3.91883 9.55027C3.99539 9.22777 3.85117 8.89325 3.56411 8.72752L2.44687 8.08248C1.849 7.7373 1.64416 6.97281 1.98934 6.37495C2.33452 5.77708 3.099 5.57224 3.69687 5.91741L4.81558 6.5633C5.10286 6.72916 5.46497 6.6866 5.70597 6.45864C6.4086 5.79401 7.26445 5.2913 8.21395 5.00872C8.53198 4.91407 8.75002 4.62169 8.75002 4.28988V3ZM10 0.25C8.48123 0.25 7.25002 1.48122 7.25002 3V3.75228C6.4638 4.05074 5.73918 4.47319 5.09992 4.99542L4.44687 4.61838C3.13157 3.85899 1.44969 4.30964 0.6903 5.62495C-0.0690913 6.94025 0.381566 8.62213 1.69687 9.38152L2.34909 9.75808C2.28385 10.1628 2.25 10.5777 2.25 11C2.25 11.4223 2.28385 11.8372 2.34909 12.2419L1.69695 12.6184C0.381644 13.3778 -0.0690129 15.0597 0.690379 16.375C1.44977 17.6903 3.13164 18.141 4.44695 17.3816L5.09992 17.0046C5.73918 17.5268 6.4638 17.9493 7.25002 18.2477V19C7.25002 20.5188 8.48123 21.75 10 21.75C11.5188 21.75 12.75 20.5188 12.75 19V18.2477C13.5363 17.9492 14.2609 17.5267 14.9002 17.0045L15.5533 17.3815C16.8686 18.1409 18.5505 17.6903 19.3098 16.3749C20.0692 15.0596 19.6186 13.3778 18.3033 12.6184L17.6509 12.2418C17.7162 11.8371 17.75 11.4223 17.75 11C17.75 10.5777 17.7162 10.1629 17.6509 9.75825L18.3034 9.38158C19.6187 8.62218 20.0693 6.94031 19.3099 5.62501C18.5505 4.3097 16.8687 3.85905 15.5534 4.61844L14.9002 4.99553C14.2609 4.47325 13.5363 4.05077 12.75 3.75229V3C12.75 1.48122 11.5188 0.25 10 0.25ZM7.75 11C7.75 9.75736 8.75736 8.75 10 8.75C11.2426 8.75 12.25 9.75736 12.25 11C12.25 12.2426 11.2426 13.25 10 13.25C8.75736 13.25 7.75 12.2426 7.75 11ZM10 7.25C7.92893 7.25 6.25 8.92893 6.25 11C6.25 13.0711 7.92893 14.75 10 14.75C12.0711 14.75 13.75 13.0711 13.75 11C13.75 8.92893 12.0711 7.25 10 7.25Z" />
</svg>
