<svg width="20" height="20" viewBox="0 0 20 20" fill="none" xmlns="http://www.w3.org/2000/svg">
<path fill-rule="evenodd" clip-rule="evenodd"
            d="M10 0.916656C8.66532 0.916657 7.58334 1.99863 7.58334 3.33332V3.87458C7.51417 3.90189 7.44558 3.93034 7.37759 3.95989L6.99478 3.57709C6.05102 2.63332 4.52087 2.63332 3.5771 3.57709C2.63333 4.52086 2.63333 6.05101 3.5771 6.99477L3.9599 7.37757C3.93034 7.44556 3.9019 7.51416 3.87459 7.58332H3.33332C1.99864 7.58332 0.916656 8.6653 0.916656 9.99999C0.916657 11.3347 1.99864 12.4167 3.33332 12.4167H3.87459C3.9019 12.4858 3.93034 12.5544 3.9599 12.6224L3.57709 13.0052C2.63333 13.949 2.63333 15.4791 3.57709 16.4229C4.52086 17.3667 6.05101 17.3667 6.99478 16.4229L7.37759 16.0401C7.44558 16.0696 7.51417 16.0981 7.58334 16.1254V16.6667C7.58334 18.0013 8.66532 19.0833 10 19.0833C11.3347 19.0833 12.4167 18.0013 12.4167 16.6667V16.1254C12.4858 16.0981 12.5544 16.0696 12.6224 16.0401L13.0052 16.4229C13.949 17.3666 15.4791 17.3666 16.4229 16.4229C17.3666 15.4791 17.3666 13.949 16.4229 13.0052L16.0401 12.6224C16.0696 12.5544 16.0981 12.4858 16.1254 12.4167H16.6667C18.0013 12.4167 19.0833 11.3347 19.0833 9.99999C19.0833 8.6653 18.0013 7.58332 16.6667 7.58332H16.1254C16.0981 7.51416 16.0696 7.44557 16.0401 7.37758L16.4229 6.99481C17.3666 6.05104 17.3666 4.52089 16.4229 3.57712C15.4791 2.63336 13.949 2.63336 13.0052 3.57712L12.6224 3.9599C12.5544 3.93034 12.4858 3.9019 12.4167 3.87459V3.33332C12.4167 1.99864 11.3347 0.916656 10 0.916656ZM9.08334 3.33332C9.08334 2.82706 9.49374 2.41666 10 2.41666C10.5063 2.41666 10.9167 2.82706 10.9167 3.33332V4.40823C10.9167 4.74004 11.1347 5.03241 11.4527 5.12707C11.7904 5.22755 12.1134 5.36224 12.4178 5.52722C12.7097 5.68536 13.0708 5.63286 13.3055 5.39814L14.0658 4.63778C14.4238 4.2798 15.0042 4.2798 15.3622 4.63778C15.7202 4.99576 15.7202 5.57617 15.3622 5.93415L14.6019 6.6945C14.3671 6.92922 14.3146 7.29031 14.4728 7.58215C14.6377 7.8866 14.7724 8.20963 14.8729 8.54726C14.9676 8.86529 15.2599 9.08332 15.5918 9.08332H16.6667C17.1729 9.08332 17.5833 9.49373 17.5833 9.99999C17.5833 10.5063 17.1729 10.9167 16.6667 10.9167H15.5918C15.2599 10.9167 14.9676 11.1347 14.8729 11.4527C14.7724 11.7903 14.6377 12.1134 14.4728 12.4178C14.3146 12.7097 14.3671 13.0708 14.6019 13.3055L15.3622 14.0658C15.7202 14.4238 15.7202 15.0042 15.3622 15.3622C15.0042 15.7202 14.4238 15.7202 14.0659 15.3622L13.3055 14.6018C13.0708 14.3671 12.7097 14.3146 12.4178 14.4728C12.1134 14.6377 11.7904 14.7724 11.4527 14.8729C11.1347 14.9676 10.9167 15.2599 10.9167 15.5918V16.6667C10.9167 17.1729 10.5063 17.5833 10 17.5833C9.49374 17.5833 9.08334 17.1729 9.08334 16.6667V15.5918C9.08334 15.2599 8.8653 14.9676 8.54727 14.8729C8.20964 14.7724 7.88661 14.6377 7.58215 14.4728C7.29031 14.3146 6.92922 14.3671 6.6945 14.6018L5.93412 15.3622C5.57614 15.7202 4.99574 15.7202 4.63775 15.3622C4.27977 15.0043 4.27977 14.4239 4.63775 14.0659L5.39814 13.3055C5.63286 13.0708 5.68537 12.7097 5.52722 12.4178C5.36224 12.1134 5.22755 11.7904 5.12706 11.4527C5.03242 11.1347 4.74004 10.9167 4.40822 10.9167H3.33332C2.82706 10.9167 2.41666 10.5063 2.41666 9.99999C2.41666 9.49373 2.82706 9.08332 3.33332 9.08332H4.40822C4.74004 9.08332 5.03241 8.86529 5.12706 8.54726C5.22755 8.20963 5.36224 7.8866 5.52722 7.58214C5.68537 7.2903 5.63286 6.92921 5.39814 6.69449L4.63776 5.93411C4.27978 5.57613 4.27978 4.99573 4.63776 4.63775C4.99574 4.27977 5.57614 4.27977 5.93413 4.63775L6.69451 5.39813C6.92922 5.63285 7.29031 5.68536 7.58216 5.52721C7.88661 5.36224 8.20964 5.22754 8.54727 5.12706C8.8653 5.03241 9.08334 4.74003 9.08334 4.40822V3.33332ZM7.99999 9.99999C7.99999 8.89542 8.89542 7.99999 9.99999 7.99999C11.1046 7.99999 12 8.89542 12 9.99999C12 11.1046 11.1046 12 9.99999 12C8.89542 12 7.99999 11.1046 7.99999 9.99999ZM9.99999 6.99999C8.34314 6.99999 6.99999 8.34314 6.99999 9.99999C6.99999 11.6568 8.34314 13 9.99999 13C11.6568 13 13 11.6568 13 9.99999C13 8.34314 11.6568 6.99999 9.99999 6.99999Z" />
      </svg>
