<svg width="13" height="12" viewBox="0 0 13 12" fill="none" xmlns="http://www.w3.org/2000/svg">
<path d="M3.07441 0.350586C2.61986 0.350586 2.204 0.461805 1.82683 0.684242C1.44965 0.906679 1.14984 1.20649 0.927406 1.58366C0.704969 1.96084 0.59375 2.3767 0.59375 2.83124V9.47534C0.59375 9.92989 0.704969 10.3458 0.927406 10.7229C1.14984 11.1001 1.44965 11.3999 1.82683 11.6223C2.204 11.8448 2.61986 11.956 3.07441 11.956H9.71851C10.1731 11.956 10.5889 11.8448 10.9661 11.6223C11.3433 11.3999 11.6431 11.1001 11.8655 10.7229C12.0879 10.3458 12.1992 9.92989 12.1992 9.47534V2.83124C12.1992 2.3767 12.0879 1.96084 11.8655 1.58366C11.6431 1.20649 11.3433 0.906679 10.9661 0.684242C10.5889 0.461805 10.1731 0.350586 9.71851 0.350586H3.07441ZM8.89162 2.16393C9.27847 2.16393 9.60971 2.29933 9.88534 2.57012C10.161 2.84091 10.2988 3.16973 10.2988 3.55658C10.2988 3.94343 10.161 4.27467 9.88534 4.5503C9.60971 4.82592 9.27847 4.96374 8.89162 4.96374C8.55313 4.96374 8.25332 4.85252 7.9922 4.63008L5.29394 6.00823V6.12428C5.29394 6.20165 5.28911 6.27418 5.27944 6.34188L7.94868 7.70552C8.21948 7.46374 8.53379 7.34285 8.89162 7.34285C9.27847 7.34285 9.60971 7.48066 9.88534 7.75629C10.161 8.03192 10.2988 8.36316 10.2988 8.75001C10.2988 9.13685 10.161 9.46567 9.88534 9.73647C9.60971 10.0073 9.27847 10.1427 8.89162 10.1427C8.50478 10.1427 8.17596 10.0073 7.90516 9.73647C7.63437 9.46567 7.49897 9.13685 7.49897 8.75001V8.66297L4.72818 7.25581C4.4864 7.43956 4.21077 7.53144 3.90129 7.53144C3.51445 7.53144 3.18321 7.39362 2.90758 7.11799C2.63195 6.84237 2.49414 6.51113 2.49414 6.12428C2.49414 5.73743 2.63195 5.40861 2.90758 5.13782C3.18321 4.86703 3.51445 4.73163 3.90129 4.73163C4.23978 4.73163 4.53959 4.84285 4.80071 5.06529L7.49897 3.68714V3.55658C7.49897 3.16973 7.63437 2.84091 7.90516 2.57012C8.17596 2.29933 8.50478 2.16393 8.89162 2.16393Z" fill="#B00F38"/>
</svg>
