<?xml version="1.0" encoding="UTF-8" standalone="no"?>
<svg
   width="12"
   height="12"
   viewBox="0 0 12 12"
   fill="none"
   version="1.1"
   id="svg4"
   sodipodi:docname="smile-icon.svg"
   inkscape:version="1.2.1 (9c6d41e410, 2022-07-14)"
   xmlns:inkscape="http://www.inkscape.org/namespaces/inkscape"
   xmlns:sodipodi="http://sodipodi.sourceforge.net/DTD/sodipodi-0.dtd"
   xmlns="http://www.w3.org/2000/svg"
   xmlns:svg="http://www.w3.org/2000/svg">
  <defs
     id="defs8" />
  <sodipodi:namedview
     id="namedview6"
     pagecolor="#ffffff"
     bordercolor="#000000"
     borderopacity="0.25"
     inkscape:showpageshadow="2"
     inkscape:pageopacity="0.0"
     inkscape:pagecheckerboard="0"
     inkscape:deskcolor="#d1d1d1"
     showgrid="false"
     inkscape:zoom="61.846154"
     inkscape:cx="5.6106965"
     inkscape:cy="6.136194"
     inkscape:window-width="1920"
     inkscape:window-height="991"
     inkscape:window-x="-9"
     inkscape:window-y="-9"
     inkscape:window-maximized="1"
     inkscape:current-layer="svg4" />
  <path
     fill-rule="evenodd"
     clip-rule="evenodd"
     d="m 0.886699,6.02956 c 0,-2.83744 2.305421,-5.14286 5.142861,-5.14286 2.77832,0 5.08374,2.30542 5.08374,5.14286 0,2.77832 -2.30542,5.08374 -5.08374,5.08374 -2.83744,0 -5.142861,-2.30542 -5.142861,-5.08374 z M 6.02956,0 C 2.71921,0 0,2.71921 0,6.02956 0,9.28079 2.71921,12 6.02956,12 9.28079,12 12,9.28079 12,6.02956 12,2.71921 9.28079,0 6.02956,0 Z M 3.72414,5.97044 c 0.41379,0 0.76847,-0.29556 0.76847,-0.70936 0,-0.41379 -0.35468,-0.76847 -0.76847,-0.76847 -0.4138,0 -0.76847,0.35468 -0.76847,0.76847 0,0.4138 0.35467,0.70936 0.76847,0.70936 z m 0.23645,1.53695 c 0,0.53202 0.23645,1.06404 0.59113,1.41872 0.4138,0.41379 0.8867,0.59109 1.41872,0.59109 0.59114,0 1.06404,-0.1773 1.47784,-0.59109 C 7.80296,8.57143 8.03941,8.03941 8.03941,7.50739 Z M 9.04434,5.26108 c 0,0.4138 -0.35469,0.70936 -0.76848,0.70936 -0.41379,0 -0.76847,-0.29556 -0.76847,-0.70936 0,-0.41379 0.35468,-0.76847 0.76847,-0.76847 0.41379,0 0.76848,0.35468 0.76848,0.76847 z"
     fill="#6a6a6a"
     id="path2" />
</svg>
