<svg width="20" height="21" viewBox="0 0 20 21" fill="none" xmlns="http://www.w3.org/2000/svg">
<path
            d="M3.33749 14.0349C3.45759 13.9152 3.62026 13.8479 3.78985 13.8479H19.4321C19.4956 13.8475 19.5577 13.866 19.6105 13.901C19.6634 13.9361 19.7047 13.986 19.7291 14.0446C19.7535 14.1031 19.7599 14.1676 19.7476 14.2298C19.7352 14.292 19.7047 14.3491 19.6598 14.3939L16.5687 17.4834C16.4488 17.6031 16.2862 17.6704 16.1167 17.6703H0.474404C0.411187 17.6703 0.349392 17.6516 0.296832 17.6165C0.244272 17.5813 0.203307 17.5314 0.179116 17.473C0.154925 17.4146 0.148595 17.3503 0.160925 17.2883C0.173255 17.2263 0.203692 17.1694 0.248388 17.1247L3.33749 14.0349Z" />
         <path
            d="M3.33733 2.49616C3.45737 2.37629 3.62005 2.30893 3.78969 2.30884H19.432C19.4954 2.30847 19.5575 2.32696 19.6104 2.36198C19.6633 2.397 19.7045 2.44696 19.7289 2.5055C19.7533 2.56404 19.7598 2.62852 19.7474 2.69073C19.7351 2.75294 19.7045 2.81007 19.6596 2.85486L16.5686 5.94429C16.5092 6.00368 16.4387 6.05076 16.3612 6.08285C16.2836 6.11494 16.2005 6.1314 16.1165 6.13128H0.474242C0.410957 6.13134 0.349081 6.1126 0.296451 6.07746C0.243821 6.04232 0.202806 5.99235 0.178602 5.93387C0.154398 5.8754 0.148094 5.81106 0.160488 5.749C0.172882 5.68694 0.203418 5.62996 0.248225 5.58527L3.33733 2.49616Z" />
         <path
            d="M16.5676 8.2276C16.5083 8.16817 16.4378 8.12103 16.3602 8.08889C16.2827 8.05674 16.1995 8.04023 16.1155 8.04028H0.473265C0.409981 8.04023 0.348104 8.05896 0.295474 8.0941C0.242844 8.12925 0.201829 8.17922 0.177625 8.23769C0.153421 8.29617 0.147117 8.36051 0.159511 8.42257C0.171906 8.48463 0.202441 8.54161 0.247249 8.5863L3.33668 11.6757C3.39608 11.7351 3.4666 11.7823 3.54422 11.8144C3.62184 11.8465 3.70503 11.8631 3.78904 11.863H19.4313C19.4947 11.8634 19.5568 11.8449 19.6097 11.8099C19.6626 11.7749 19.7039 11.7249 19.7283 11.6664C19.7527 11.6079 19.7591 11.5434 19.7468 11.4812C19.7344 11.419 19.7039 11.3618 19.659 11.317L16.5676 8.2276Z" />
      
</svg>
