<svg width="8" height="8" viewBox="0 0 8 8" fill="none" xmlns="http://www.w3.org/2000/svg">
<path fill-rule="evenodd" clip-rule="evenodd" d="M2.91465 0.0220035C1.75806 0.201101 0.770177 0.915163 0.285276 1.9226C0.0676748 2.37466 -0.000614339 2.69117 4.15634e-06 3.24447C0.000513506 3.66519 0.0132836 3.76948 0.0984905 4.04802C0.326388 4.79303 0.778544 5.39428 1.42545 5.81253C1.59791 5.92405 1.74453 6.0191 1.75129 6.02375C1.75806 6.02841 1.71982 6.10573 1.6663 6.19562C1.48865 6.49404 1.11406 6.76088 0.596452 6.95777C0.515611 6.9885 0.531183 7.0024 0.802266 7.14124C2.01594 7.76276 3.5406 8.08909 4.71581 7.97882C5.44087 7.91081 5.95983 7.73157 6.50436 7.36102C6.87134 7.1113 7.37622 6.58393 7.56744 6.25055C8.31844 4.94136 8.07392 3.3277 6.97092 2.31374C6.701 2.06563 6.26995 1.78501 6.02299 1.69666C5.95797 1.67338 5.90474 1.63657 5.90474 1.61483C5.90474 1.53239 6.11816 1.24986 6.31182 1.076C6.42261 0.976509 6.61376 0.848122 6.73655 0.790715C6.85934 0.733308 6.95982 0.674934 6.95982 0.660967C6.95982 0.630383 6.31404 0.380449 5.95983 0.273943C5.28498 0.0710664 4.87786 0.0152708 3.97649 0.00227095C3.50625 -0.00449758 3.02841 0.00438387 2.91465 0.0220035ZM5.27868 2.33444C6.46386 2.57492 7.27238 3.61688 7.20522 4.81713C7.1373 6.03013 6.21436 6.97647 4.87539 7.20595C4.46318 7.27661 3.55384 7.25537 3.13971 7.16541C2.80521 7.09279 2.08462 6.86667 2.08462 6.83437C2.08462 6.8214 2.14091 6.75372 2.20967 6.68395C2.38249 6.50869 2.58364 6.16829 2.61195 6.0032C2.63025 5.89676 2.6114 5.80609 2.52867 5.60256C2.38452 5.24781 2.33919 5.01875 2.33985 4.64835C2.3405 4.26544 2.4129 3.95044 2.57596 3.62103C3.06006 2.643 4.17761 2.11101 5.27868 2.33444Z" fill="#9E9E9E"/>
</svg>
