<?xml version="1.0" encoding="UTF-8" standalone="no"?>
<svg
   width="19.5"
   height="19.500004"
   viewBox="0 0 19.5 19.500004"
   fill="none"
   version="1.1"
   id="svg12"
   sodipodi:docname="trash-icon.svg"
   inkscape:version="1.2.1 (9c6d41e410, 2022-07-14)"
   xmlns:inkscape="http://www.inkscape.org/namespaces/inkscape"
   xmlns:sodipodi="http://sodipodi.sourceforge.net/DTD/sodipodi-0.dtd"
   xmlns="http://www.w3.org/2000/svg"
   xmlns:svg="http://www.w3.org/2000/svg">
  <defs
     id="defs16" />
  <sodipodi:namedview
     id="namedview14"
     pagecolor="#ffffff"
     bordercolor="#000000"
     borderopacity="0.25"
     inkscape:showpageshadow="2"
     inkscape:pageopacity="0.0"
     inkscape:pagecheckerboard="0"
     inkscape:deskcolor="#d1d1d1"
     showgrid="false"
     inkscape:zoom="33.5"
     inkscape:cx="9.0447761"
     inkscape:cy="9.7761194"
     inkscape:window-width="1920"
     inkscape:window-height="991"
     inkscape:window-x="-9"
     inkscape:window-y="-9"
     inkscape:window-maximized="1"
     inkscape:current-layer="svg12" />
  <path
     fill-rule="evenodd"
     clip-rule="evenodd"
     d="M 8.1562,2.9538287e-6 8.1915,1.2953829e-5 h 3.117 L 11.3438,2.9538287e-6 C 11.6612,-3.7046171e-5 11.9592,-6.7046171e-5 12.209,0.02844295 c 0.2781,0.03176 0.5706,0.10518 0.8435,0.30189 0.2729,0.19672 0.435,0.45092 0.5531,0.70476005 0.106,0.22791 0.2003,0.51065 0.3006,0.81177 v 2e-5 3e-5 l 0.0112,0.03347 0.3732,1.11963 h 2.4594 2 c 0.4142,0 0.75,0.33578 0.75,0.75 0,0.41421 -0.3358,0.75 -0.75,0.75 h -1.2983 l -0.58,8.69899 -0.0035,0.0526 c -0.0855,1.2828 -0.1545,2.3189 -0.3165,3.132 -0.1684,0.8453 -0.4548,1.5514 -1.0464,2.1048 -0.5916,0.5535 -1.3152,0.7923 -2.1698,0.9041 -0.8221,0.1075 -1.8605,0.1075 -3.1461,0.1075 H 10.1367 9.3633 9.3106 c -1.2856,0 -2.32405,0 -3.14609,-0.1075 -0.85465,-0.1118 -1.5782,-0.3506 -2.16979,-0.9041 -0.5916,-0.5534 -0.87802,-1.2595 -1.04641,-2.1048 -0.16198,-0.8131 -0.23104,-1.8492 -0.31653,-3.132 L 2.62827,13.199003 2.04834,4.500013 H 0.75 c -0.41421,0 -0.75,-0.33579 -0.75,-0.75 0,-0.41422 0.33579,-0.75 0.75,-0.75 h 2 2.45943 l 0.37321,-1.11963 0.01116,-0.0335 1e-5,-1e-5 C 5.69414,1.545753 5.78835,1.263003 5.89438,1.035093 6.01246,0.78125295 6.17459,0.52705295 6.44752,0.33033295 c 0.27293,-0.19671 0.56535,-0.27013 0.8435,-0.30189 C 7.54077,-6.7046171e-5 7.8388,-3.7046171e-5 8.1562,2.9538287e-6 Z M 6.79057,3.000013 h 5.91883 l -0.2151,-0.64529 c -0.1154,-0.3464 -0.1832,-0.54609 -0.2487,-0.68694 -0.0296,-0.06354 -0.0499,-0.09496 -0.0608,-0.10954 -0.005,-0.00674 -0.0078,-0.00962 -0.0084,-0.01022 l -10e-4,-8.2e-4 -0.0011,-6.5e-4 c -7e-4,-3.9e-4 -0.0043,-0.00216 -0.0123,-0.0048 -0.0173,-0.00571 -0.0535,-0.01504 -0.1232,-0.02299 -0.1543,-0.01762 -0.3652,-0.01875 -0.7303,-0.01875 h -3.117 c -0.3651,0 -0.57599,0.00113 -0.73033,0.01875 -0.06963,0.00795 -0.10586,0.01728 -0.12313,0.02299 -0.00799,0.00264 -0.01161,0.00441 -0.01238,0.0048 l -0.00108,6.5e-4 -9.5e-4,8.2e-4 c -6.1e-4,6e-4 -0.00344,0.00348 -0.00847,0.01022 -0.01088,0.01458 -0.03119,0.046 -0.06075,0.10954 -0.06552,0.14085 -0.13328,0.34054 -0.24875,0.68694 z m -3.23891,1.5 0.57329,8.59919 c 0.08985,1.3479 0.15388,2.2857 0.29445,2.9913 0.13635,0.6845 0.32668,1.0468 0.6001,1.3026 0.27341,0.2558 0.64757,0.4216 1.33957,0.5121 0.7134,0.0933 1.65343,0.0948 3.00423,0.0948 h 0.7734 c 1.3508,0 2.2908,-0.0015 3.0042,-0.0948 0.692,-0.0905 1.0662,-0.2563 1.3396,-0.5121 0.2734,-0.2558 0.4638,-0.6181 0.6001,-1.3026 0.1406,-0.7056 0.2046,-1.6434 0.2945,-2.9913 l 0.5732,-8.59919 h -2.1983 -8 z m 4.19834,2.5 c 0.4142,0 0.75,0.33578 0.75,0.74999 v 7 c 0,0.4142 -0.3358,0.75 -0.75,0.75 -0.41421,0 -0.75,-0.3358 -0.75,-0.75 v -7 c 0,-0.41421 0.33579,-0.74999 0.75,-0.74999 z m 4.75,0.74999 c 0,-0.41421 -0.3358,-0.74999 -0.75,-0.74999 -0.4142,0 -0.75,0.33578 -0.75,0.74999 v 4 c 0,0.4142 0.3358,0.75 0.75,0.75 0.4142,0 0.75,-0.3358 0.75,-0.75 z"
     id="path10" />
</svg>
