<svg width="24" height="20" viewBox="0 0 24 20" fill="none" xmlns="http://www.w3.org/2000/svg">
<path d="M20.9039 5.32948C20.919 5.53364 20.919 5.73664 20.919 5.93964C20.919 12.1521 16.1905 19.3108 7.54903 19.3108C4.8867 19.3108 2.41336 18.5396 0.332031 17.2003C0.710031 17.2435 1.07403 17.2586 1.4672 17.2586C3.58236 17.2638 5.63762 16.5565 7.3017 15.2508C6.32102 15.2331 5.37037 14.9095 4.58248 14.3253C3.79458 13.7412 3.20878 12.9255 2.90686 11.9923C3.19736 12.0355 3.48903 12.0646 3.7947 12.0646C4.21586 12.0646 4.63936 12.0063 5.03253 11.9048C3.96825 11.6899 3.01125 11.1131 2.32425 10.2723C1.63726 9.4315 1.26267 8.37873 1.2642 7.29298V7.23464C1.8907 7.58348 2.61753 7.80164 3.38753 7.83081C2.74247 7.40216 2.21354 6.8205 1.84793 6.13773C1.48232 5.45496 1.2914 4.69231 1.2922 3.91781C1.2922 3.04514 1.52436 2.24481 1.93153 1.54714C3.11236 2.99967 4.58512 4.18797 6.25442 5.03508C7.92373 5.88219 9.75235 6.36923 11.6219 6.46464C11.5495 6.11464 11.5052 5.75181 11.5052 5.38781C11.5049 4.7706 11.6262 4.15938 11.8623 3.58909C12.0983 3.0188 12.4445 2.50063 12.8809 2.0642C13.3174 1.62776 13.8355 1.28162 14.4058 1.04557C14.9761 0.809513 15.5873 0.68817 16.2045 0.688477C17.5579 0.688477 18.7794 1.25548 19.638 2.17248C20.6901 1.96903 21.699 1.58497 22.62 1.03731C22.2693 2.12326 21.5347 3.0441 20.5539 3.62731C21.4869 3.52089 22.3989 3.2755 23.2594 2.89931C22.6167 3.83626 21.8203 4.65788 20.9039 5.32948Z" />
</svg>
