<svg width="8" height="8" viewBox="0 0 8 8" fill="none" xmlns="http://www.w3.org/2000/svg">
<path fill-rule="evenodd" clip-rule="evenodd" d="M5.18268 0.0321935C5.02778 0.0742835 4.93352 0.114715 4.79918 0.196683C4.36148 0.46379 4.04794 0.938799 3.92292 1.52428C3.87837 1.73281 3.86305 2.131 3.89155 2.33931L3.90768 2.45726L3.72411 2.44226C3.06969 2.38875 2.35131 2.10254 1.74104 1.65212C1.40401 1.40335 1.15972 1.16473 0.829261 0.761425C0.476523 0.330958 0.50738 0.340982 0.416284 0.627174C0.261136 1.11456 0.248667 1.55897 0.377679 2.00275C0.478077 2.34815 0.690907 2.72602 0.905252 2.93943L1.01698 3.05068H0.955363C0.840943 3.05068 0.591493 2.97582 0.438134 2.89547L0.285719 2.81559V2.93414C0.285719 3.35752 0.468597 3.87106 0.74501 4.22393C0.949738 4.48529 1.15197 4.64156 1.43621 4.75807L1.59354 4.82257L1.42419 4.85343C1.32641 4.87124 1.1704 4.87932 1.05505 4.87254C0.820529 4.85872 0.826862 4.8373 0.96791 5.16756C1.12164 5.5275 1.37412 5.83624 1.66237 6.01678C1.87269 6.14849 1.9829 6.19221 2.2022 6.23091L2.37658 6.26168L2.29973 6.33572C2.25746 6.37644 2.16316 6.45427 2.09018 6.50869C1.52099 6.93317 0.884583 7.13699 0.219541 7.10778C-0.0727032 7.09495 -0.0727033 7.09547 0.216689 7.28544C1.20639 7.93509 2.27495 8.14364 3.38319 7.90341C5.0607 7.53976 6.39508 6.07988 6.94281 4.00896C7.09023 3.4516 7.16899 2.86282 7.16899 2.3182V1.99879L7.28207 1.89509C7.49437 1.70038 7.82166 1.27177 7.96482 1.00101L8 0.934448L7.90792 0.982691C7.70833 1.08726 7.12576 1.27513 7.09973 1.24331C7.09546 1.23809 7.15503 1.17502 7.23212 1.10317C7.45016 0.89993 7.6593 0.549557 7.74986 0.235793L7.77561 0.146661L7.5362 0.286801C7.31161 0.418287 7.04393 0.537297 6.8302 0.600709L6.73721 0.628304L6.63353 0.51374C6.42696 0.285527 6.17819 0.1257 5.90495 0.0456305C5.718 -0.00915138 5.35942 -0.0158098 5.18268 0.0321935Z" fill="#9E9E9E"/>
</svg>
