<svg width="20" height="20" viewBox="0 0 20 20" fill="none" xmlns="http://www.w3.org/2000/svg">
<path fill-rule="evenodd" clip-rule="evenodd" d="M6.66666 1.75C4.41149 1.75 2.58332 3.57817 2.58332 5.83333C2.58332 8.0885 4.41149 9.91667 6.66666 9.91667C8.92182 9.91667 10.75 8.0885 10.75 5.83333C10.75 3.57817 8.92182 1.75 6.66666 1.75ZM10.9167 2.5C10.9167 2.08579 11.2524 1.75 11.6667 1.75C13.9218 1.75 15.75 3.57817 15.75 5.83333C15.75 8.0885 13.9218 9.91667 11.6667 9.91667C11.2524 9.91667 10.9167 9.58088 10.9167 9.16667C10.9167 8.75245 11.2524 8.41667 11.6667 8.41667C13.0934 8.41667 14.25 7.26007 14.25 5.83333C14.25 4.4066 13.0934 3.25 11.6667 3.25C11.2524 3.25 10.9167 2.91421 10.9167 2.5ZM4.99999 11.75C2.74483 11.75 0.916656 13.5782 0.916656 15.8333C0.916656 17.168 1.99863 18.25 3.33332 18.25H9.99999C11.3347 18.25 12.4167 17.168 12.4167 15.8333C12.4167 13.5782 10.5885 11.75 8.33332 11.75H4.99999ZM13.3333 11.75C12.9191 11.75 12.5833 12.0858 12.5833 12.5C12.5833 12.9142 12.9191 13.25 13.3333 13.25H15C16.4267 13.25 17.5833 14.4066 17.5833 15.8333C17.5833 16.3396 17.1729 16.75 16.6667 16.75H13.3333C12.9191 16.75 12.5833 17.0858 12.5833 17.5C12.5833 17.9142 12.9191 18.25 13.3333 18.25H16.6667C18.0013 18.25 19.0833 17.168 19.0833 15.8333C19.0833 13.5782 17.2552 11.75 15 11.75H13.3333Z" fill="#B039AE"/>
</svg>
