<svg width="19" height="17" viewBox="0 0 19 17" fill="none" xmlns="http://www.w3.org/2000/svg">
<path fill-rule="evenodd" clip-rule="evenodd"
            d="M6.49999 1.5C4.93518 1.5 3.66666 2.76853 3.66666 4.33333C3.66666 5.89814 4.93518 7.16667 6.49999 7.16667C8.0648 7.16667 9.33332 5.89814 9.33332 4.33333C9.33332 2.76853 8.0648 1.5 6.49999 1.5ZM2.66666 4.33333C2.66666 2.21624 4.3829 0.5 6.49999 0.5C8.61708 0.5 10.3333 2.21624 10.3333 4.33333C10.3333 6.45043 8.61708 8.16667 6.49999 8.16667C4.3829 8.16667 2.66666 6.45043 2.66666 4.33333ZM3.99999 11.5C2.43518 11.5 1.16666 12.7685 1.16666 14.3333C1.16666 14.9777 1.68899 15.5 2.33332 15.5H10.6667C11.311 15.5 11.8333 14.9777 11.8333 14.3333C11.8333 12.7685 10.5648 11.5 8.99999 11.5H3.99999ZM0.166656 14.3333C0.166656 12.2162 1.8829 10.5 3.99999 10.5H8.99999C11.1171 10.5 12.8333 12.2162 12.8333 14.3333C12.8333 15.53 11.8633 16.5 10.6667 16.5H2.33332C1.13671 16.5 0.166656 15.53 0.166656 14.3333ZM16.1667 4.33333C16.1667 4.05719 15.9428 3.83333 15.6667 3.83333C15.3905 3.83333 15.1667 4.05719 15.1667 4.33333V6.33333H13.1667C12.8905 6.33333 12.6667 6.55719 12.6667 6.83333C12.6667 7.10948 12.8905 7.33333 13.1667 7.33333H15.1667V9.33333C15.1667 9.60948 15.3905 9.83333 15.6667 9.83333C15.9428 9.83333 16.1667 9.60948 16.1667 9.33333V7.33333H18.1667C18.4428 7.33333 18.6667 7.10948 18.6667 6.83333C18.6667 6.55719 18.4428 6.33333 18.1667 6.33333H16.1667V4.33333Z" />
      </svg>
