<svg width="90" height="81" viewBox="0 0 90 81" fill="none" xmlns="http://www.w3.org/2000/svg">
<path fill-rule="evenodd" clip-rule="evenodd"
            d="M14.3314 19.7302C14.3314 11.8771 20.6975 5.51099 28.5506 5.51099C36.4036 5.51099 42.7698 11.8771 42.7698 19.7302C42.7698 27.5833 36.4036 33.9494 28.5506 33.9494C20.6975 33.9494 14.3314 27.5833 14.3314 19.7302ZM28.5506 0.510986C17.9361 0.510986 9.33139 9.11572 9.33139 19.7302C9.33139 30.3447 17.9361 38.9494 28.5506 38.9494C39.1651 38.9494 47.7698 30.3447 47.7698 19.7302C47.7698 9.11572 39.1651 0.510986 28.5506 0.510986ZM53.6296 0.510986C52.2489 0.510986 51.1296 1.63027 51.1296 3.01099C51.1296 4.3917 52.2489 5.51099 53.6296 5.51099C61.4827 5.51099 67.8488 11.8771 67.8488 19.7302C67.8488 27.5833 61.4827 33.9494 53.6296 33.9494C52.2489 33.9494 51.1296 35.0687 51.1296 36.4494C51.1296 37.8301 52.2489 38.9494 53.6296 38.9494C64.2441 38.9494 72.8488 30.3447 72.8488 19.7302C72.8488 9.11572 64.2441 0.510986 53.6296 0.510986ZM20.1912 55.6686C12.3381 55.6686 5.97199 62.0348 5.97199 69.8878C5.97199 73.124 8.59542 75.7474 11.8316 75.7474H45.27C48.5062 75.7474 51.1296 73.124 51.1296 69.8878C51.1296 62.0348 44.7634 55.6686 36.9104 55.6686H20.1912ZM0.971985 69.8878C0.971985 59.2734 9.57672 50.6686 20.1912 50.6686H36.9104C47.5249 50.6686 56.1296 59.2734 56.1296 69.8878C56.1296 75.8854 51.2676 80.7474 45.27 80.7474H11.8316C5.834 80.7474 0.971985 75.8854 0.971985 69.8878ZM61.989 50.6686C60.6083 50.6686 59.489 51.7879 59.489 53.1686C59.489 54.5493 60.6083 55.6686 61.989 55.6686H70.3486C78.2017 55.6686 84.5678 62.0348 84.5678 69.8878C84.5678 73.124 81.9444 75.7474 78.7082 75.7474H61.989C60.6083 75.7474 59.489 76.8667 59.489 78.2474C59.489 79.6281 60.6083 80.7474 61.989 80.7474H78.7082C84.7058 80.7474 89.5678 75.8854 89.5678 69.8878C89.5678 59.2734 80.9631 50.6686 70.3486 50.6686H61.989Z" />
      </svg>
