<svg width="24" height="14" viewBox="0 0 24 14" fill="none" xmlns="http://www.w3.org/2000/svg">
<path d="M23.1742 0.996974C23.3375 0.454474 23.1742 0.0566406 22.4019 0.0566406H19.8434C19.1924 0.0566406 18.8949 0.400808 18.7315 0.778808C18.7315 0.778808 17.4307 3.95097 15.5874 6.00781C14.9924 6.60631 14.7205 6.79531 14.3962 6.79531C14.234 6.79531 13.9984 6.60631 13.9984 6.06381V0.996974C13.9984 0.345974 13.8105 0.0566406 13.268 0.0566406H9.2477C8.8417 0.0566406 8.5967 0.357641 8.5967 0.644641C8.5967 1.26064 9.51836 1.40297 9.61286 3.13897V6.90497C9.61286 7.72981 9.4647 7.88031 9.13803 7.88031C8.2712 7.88031 6.16186 4.69647 4.91003 1.05181C4.6662 0.343641 4.42003 0.0578078 3.7667 0.0578078H1.20936C0.477865 0.0578078 0.332031 0.401974 0.332031 0.779974C0.332031 1.45897 1.19886 4.81897 4.36986 9.26281C6.48386 12.2973 9.46003 13.9423 12.1714 13.9423C13.7965 13.9423 13.9972 13.5771 13.9972 12.9471V10.6535C13.9972 9.92314 14.1524 9.77614 14.6669 9.77614C15.0449 9.77614 15.6959 9.96747 17.2137 11.4293C18.9474 13.163 19.2344 13.9411 20.2085 13.9411H22.7659C23.4962 13.9411 23.8614 13.576 23.6514 12.855C23.4215 12.1375 22.5932 11.0933 21.4942 9.85781C20.8969 9.15314 20.0044 8.39481 19.7325 8.01564C19.3534 7.52681 19.463 7.31097 19.7325 6.87697C19.7337 6.87814 22.8499 2.48914 23.1742 0.996974Z" />
</svg>
