<svg width="18.166643" height="16.5" viewBox="0 0 18.166643 16.5" fill="none" xmlns="http://www.w3.org/2000/svg">
  <path
     fill-rule="evenodd"
     clip-rule="evenodd"
     d="m 10.750044,1.5000003 c 0.6368,0 1.0644,7.2e-4 1.3922,0.03043 0.3175,0.02878 0.4672,0.07995 0.5661,0.13704 0.19,0.10971 0.3478,0.26751 0.4575,0.45753 0.0571,0.09888 0.1083,0.24856 0.1371,0.5661 0.0161,0.17859 0.0237,0.38676 0.0273,0.64223 h -1.5997 -0.0956 -0.0516 -2.5000104 -6.66667 c -0.50626,0 -0.91666,-0.4104 -0.91666,-0.91666 0,-0.50626 0.4104,-0.91667 0.91666,-0.91667 z M 1.5610267e-6,2.4166703 C 1.5610267e-6,1.0819803 1.0819836,3.3063497e-7 2.4166636,3.3063497e-7 h 8.3333804 0.0339 c 0.5942,-9.99999997e-6 1.0901,-1.999999997e-5 1.4937,0.036559999365 0.4216,0.0382 0.8155,0.12101 1.1807,0.33187 0.418,0.24136 0.7652,0.58852 1.0066,1.00656997 0.2108,0.36523 0.2936,0.75913 0.3318,1.1807 0.0234,0.25786 0.0318,0.55339 0.0349,0.88816 0.8317,0.11086 1.5389,0.34357 2.1185,0.87468 0.0804,0.07371 0.1576,0.15089 0.2313,0.23133 0.5409,0.5903 0.7723,1.31289 0.8807,2.16462 0.0309,0.24257 0.0526,0.50413 0.068,0.78551 h -1.5468 c -1.3347,0 -2.4167,1.082 -2.4167,2.4167 0,1.3346997 1.082,2.4165997 2.4167,2.4165997 h 1.5468 c -0.0154,0.2814 -0.0371,0.543 -0.068,0.7855 -0.1084,0.8518 -0.3398,1.5744 -0.8807,2.1647 -0.0737,0.0804 -0.1509,0.1576 -0.2313,0.2313 -0.5903,0.5409 -1.3129,0.7723 -2.1646,0.8807 -0.8216,0.1045 -1.8611,0.1045 -3.1506,0.1045 h -0.0516 -4.8333404 -0.05487 c -1.36759,0 -2.46991,0 -3.33688,-0.1165 -0.90011,-0.121 -1.65799,-0.3799 -2.2599,-0.9818 C 0.49643356,14.7997 0.23754356,14.0419 0.11652356,13.1418 -3.6438973e-5,12.2748 -2.0438973e-5,11.1725 5.610267e-7,9.8049003 l 1e-6,-0.0549 z M 18.165344,9.0000003 c 0.0013,0.2749 0.0013,0.5631 0.0013,0.8651 v 0.0516 0.0516 c 0,0.3018997 0,0.5900997 -0.0013,0.8649997 h -1.582 c -0.5063,0 -0.9167,-0.4104 -0.9167,-0.9165997 0,-0.5063 0.4104,-0.9167 0.9167,-0.9167 z"
     fill="#ffffff" />
</svg>
