<svg width="20" height="20" viewBox="0 0 20 20" fill="none" xmlns="http://www.w3.org/2000/svg">
<path fill-rule="evenodd" clip-rule="evenodd" d="M11.6667 3.25C12.3035 3.25 12.7311 3.25072 13.0589 3.28043C13.3764 3.30921 13.5261 3.36038 13.625 3.41747C13.815 3.52718 13.9728 3.68498 14.0825 3.875C14.1396 3.97388 14.1908 4.12356 14.2196 4.4411C14.2357 4.61969 14.2433 4.82786 14.2469 5.08333H12.6472L12.5516 5.08333L12.5 5.08333H9.99999L3.33332 5.08333C2.82706 5.08333 2.41666 4.67293 2.41666 4.16667C2.41666 3.66041 2.82706 3.25 3.33332 3.25H11.6667ZM0.916658 4.16667C0.916658 2.83198 1.99864 1.75 3.33332 1.75H11.6667L11.7006 1.75C12.2948 1.74999 12.7907 1.74998 13.1943 1.78656C13.6159 1.82476 14.0098 1.90757 14.375 2.11843C14.793 2.35979 15.1402 2.70695 15.3816 3.125C15.5924 3.49023 15.6752 3.88413 15.7134 4.3057C15.7368 4.56356 15.7452 4.85909 15.7483 5.19386C16.58 5.30472 17.2872 5.53743 17.8668 6.06854C17.9472 6.14225 18.0244 6.21943 18.0981 6.29987C18.639 6.89017 18.8704 7.61276 18.9788 8.46449C19.0097 8.70706 19.0314 8.96862 19.0468 9.25H17.5C16.1653 9.25 15.0833 10.332 15.0833 11.6667C15.0833 13.0014 16.1653 14.0833 17.5 14.0833H19.0468C19.0314 14.3647 19.0097 14.6263 18.9788 14.8688C18.8704 15.7206 18.639 16.4432 18.0981 17.0335C18.0244 17.1139 17.9472 17.1911 17.8668 17.2648C17.2765 17.8057 16.5539 18.0371 15.7022 18.1455C14.8806 18.25 13.8411 18.25 12.5516 18.25H12.5H7.66666H7.61179C6.2442 18.25 5.14188 18.25 4.27491 18.1335C3.3748 18.0125 2.61692 17.7536 2.01501 17.1517C1.41309 16.5497 1.1542 15.7919 1.03318 14.8918C0.91662 14.0248 0.916636 12.9225 0.916657 11.5549L0.916658 11.5V4.16667ZM19.082 10.75C19.0833 11.0249 19.0833 11.3131 19.0833 11.6151V11.6667V11.7183C19.0833 12.0202 19.0833 12.3084 19.082 12.5833H17.5C16.9937 12.5833 16.5833 12.1729 16.5833 11.6667C16.5833 11.1604 16.9937 10.75 17.5 10.75H19.082Z" fill="white"/>
</svg>
