<svg width="24" height="18" viewBox="0 0 24 18" fill="none" xmlns="http://www.w3.org/2000/svg">
<path  d="M23.1919 3.40353C23.059 2.9105 22.7993 2.46086 22.4386 2.09939C22.078 1.73791 21.6289 1.4772 21.1362 1.34319C19.3092 0.841526 12 0.83336 12 0.83336C12 0.83336 4.69205 0.825193 2.86388 1.30469C2.37146 1.44486 1.92334 1.70927 1.56254 2.07252C1.20174 2.43577 0.940382 2.88567 0.803549 3.37903C0.321716 5.20603 0.317049 8.99536 0.317049 8.99536C0.317049 8.99536 0.312382 12.8034 0.790715 14.6117C1.05905 15.6115 1.84655 16.4014 2.84755 16.6709C4.69322 17.1725 11.9825 17.1807 11.9825 17.1807C11.9825 17.1807 19.2917 17.1889 21.1187 16.7105C21.6116 16.5768 22.0611 16.3166 22.4226 15.9559C22.7842 15.5952 23.0453 15.1463 23.1802 14.6537C23.6632 12.8279 23.6667 9.03969 23.6667 9.03969C23.6667 9.03969 23.69 5.23053 23.1919 3.40353ZM9.66205 12.5059L9.66788 5.50586L15.7427 9.01169L9.66205 12.5059Z" />
</svg>
